G04 PROTEUS GERBER X2 FILE*
%TF.GenerationSoftware,Labcenter,Proteus,8.15-SP1-Build34318*%
%TF.CreationDate,2023-09-27T19:19:53+00:00*%
%TF.FileFunction,AssemblyDrawing,Top*%
%TF.FilePolarity,Positive*%
%TF.Part,Single*%
%TF.SameCoordinates,{3c810428-778b-40b1-ace6-7a7f232bcbd0}*%
%FSLAX45Y45*%
%MOMM*%
G01*
%TA.AperFunction,Material*%
%ADD17C,0.101600*%
%ADD18C,1.016000*%
%ADD19C,0.163360*%
%ADD70C,0.231130*%
%TA.AperFunction,Profile*%
%ADD14C,0.101600*%
%TA.AperFunction,Material*%
%ADD71C,0.050000*%
%ADD20C,0.836710*%
%TD.AperFunction*%
D17*
X-3379980Y+2537720D02*
X-2333820Y+2537720D01*
X-2333820Y+2928880D01*
X-3379980Y+2928880D01*
X-3379980Y+2537720D01*
D18*
X-2465900Y+2733300D02*
X-2465900Y+2733300D01*
D19*
X-2580765Y+2749637D02*
X-2617522Y+2782310D01*
X-2654280Y+2782310D01*
X-2691037Y+2749637D01*
X-2691037Y+2716963D01*
X-2654280Y+2684290D01*
X-2617522Y+2684290D01*
X-2580765Y+2716963D01*
X-2580765Y+2749637D01*
X-2727795Y+2782310D02*
X-2727795Y+2684290D01*
X-2838067Y+2684290D01*
X-2985097Y+2684290D02*
X-2874825Y+2684290D01*
X-2874825Y+2782310D01*
X-2985097Y+2782310D01*
X-2874825Y+2733300D02*
X-2948340Y+2733300D01*
X-3021855Y+2684290D02*
X-3021855Y+2782310D01*
X-3095370Y+2782310D01*
X-3132127Y+2749637D01*
X-3132127Y+2716963D01*
X-3095370Y+2684290D01*
X-3021855Y+2684290D01*
X-3205642Y+2749637D02*
X-3242400Y+2782310D01*
X-3242400Y+2684290D01*
D17*
X-1151320Y+2747080D02*
X-760160Y+2747080D01*
X-760160Y+3793240D01*
X-1151320Y+3793240D01*
X-1151320Y+2747080D01*
D18*
X-955740Y+2879160D02*
X-955740Y+2879160D01*
D70*
X-1025082Y+3049563D02*
X-886398Y+3049563D01*
X-955740Y+3127572D01*
X-886398Y+3205581D01*
X-1025082Y+3205581D01*
X-932626Y+3257588D02*
X-886398Y+3309594D01*
X-886398Y+3361600D01*
X-932626Y+3413606D01*
X-978854Y+3413606D01*
X-1025082Y+3361600D01*
X-1025082Y+3309594D01*
X-978854Y+3257588D01*
X-932626Y+3257588D01*
X-978854Y+3361600D02*
X-1025082Y+3413606D01*
X-932626Y+3517619D02*
X-886398Y+3569625D01*
X-1025082Y+3569625D01*
D17*
X-5195580Y+2367920D02*
X-4804420Y+2367920D01*
X-4804420Y+3664080D01*
X-5195580Y+3664080D01*
X-5195580Y+2367920D01*
D18*
X-5000000Y+2750000D02*
X-5000000Y+2750000D01*
D70*
X-4930658Y+2946406D02*
X-4930658Y+3050418D01*
X-4930658Y+2998412D02*
X-5069342Y+2998412D01*
X-5069342Y+2946406D02*
X-5069342Y+3050418D01*
X-4930658Y+3284446D02*
X-5069342Y+3128428D01*
X-4976886Y+3336453D02*
X-4930658Y+3388459D01*
X-4930658Y+3440465D01*
X-4976886Y+3492471D01*
X-5023114Y+3492471D01*
X-5069342Y+3440465D01*
X-5069342Y+3388459D01*
X-5023114Y+3336453D01*
X-4976886Y+3336453D01*
D14*
X-5300000Y+173000D02*
X-500000Y+173000D01*
X-500000Y+3990500D01*
X-5300000Y+3990500D01*
X-5300000Y+173000D01*
D71*
X-673500Y+356000D02*
X-673500Y+2184000D01*
X-5041500Y+2184000D01*
X-5041500Y+356000D02*
X-673500Y+356000D01*
X-5041500Y+356000D02*
X-5041500Y+948000D01*
X-5231500Y+948000D01*
X-5231500Y+1595000D01*
X-5041500Y+1595000D01*
X-5041500Y+2184000D01*
D18*
X-1079500Y+508000D02*
X-1079500Y+508000D01*
D20*
X-2429110Y+1521013D02*
X-2429110Y+1102657D01*
X-2523240Y+1018986D01*
X-2899760Y+1018986D01*
X-2993890Y+1102657D01*
X-2993890Y+1521013D01*
X-3370410Y+1353671D02*
X-3558670Y+1521013D01*
X-3558670Y+1018986D01*
D17*
X-8879980Y+2537720D02*
X-7833820Y+2537720D01*
X-7833820Y+2928880D01*
X-8879980Y+2928880D01*
X-8879980Y+2537720D01*
D18*
X-7965900Y+2733300D02*
X-7965900Y+2733300D01*
D19*
X-8080765Y+2749637D02*
X-8117522Y+2782310D01*
X-8154280Y+2782310D01*
X-8191037Y+2749637D01*
X-8191037Y+2716963D01*
X-8154280Y+2684290D01*
X-8117522Y+2684290D01*
X-8080765Y+2716963D01*
X-8080765Y+2749637D01*
X-8227795Y+2782310D02*
X-8227795Y+2684290D01*
X-8338067Y+2684290D01*
X-8485097Y+2684290D02*
X-8374825Y+2684290D01*
X-8374825Y+2782310D01*
X-8485097Y+2782310D01*
X-8374825Y+2733300D02*
X-8448340Y+2733300D01*
X-8521855Y+2684290D02*
X-8521855Y+2782310D01*
X-8595370Y+2782310D01*
X-8632127Y+2749637D01*
X-8632127Y+2716963D01*
X-8595370Y+2684290D01*
X-8521855Y+2684290D01*
X-8705642Y+2749637D02*
X-8742400Y+2782310D01*
X-8742400Y+2684290D01*
D17*
X-6651320Y+2747080D02*
X-6260160Y+2747080D01*
X-6260160Y+3793240D01*
X-6651320Y+3793240D01*
X-6651320Y+2747080D01*
D18*
X-6455740Y+2879160D02*
X-6455740Y+2879160D01*
D70*
X-6525082Y+3049563D02*
X-6386398Y+3049563D01*
X-6455740Y+3127572D01*
X-6386398Y+3205581D01*
X-6525082Y+3205581D01*
X-6432626Y+3257588D02*
X-6386398Y+3309594D01*
X-6386398Y+3361600D01*
X-6432626Y+3413606D01*
X-6478854Y+3413606D01*
X-6525082Y+3361600D01*
X-6525082Y+3309594D01*
X-6478854Y+3257588D01*
X-6432626Y+3257588D01*
X-6478854Y+3361600D02*
X-6525082Y+3413606D01*
X-6432626Y+3517619D02*
X-6386398Y+3569625D01*
X-6525082Y+3569625D01*
D17*
X-10695580Y+2367920D02*
X-10304420Y+2367920D01*
X-10304420Y+3664080D01*
X-10695580Y+3664080D01*
X-10695580Y+2367920D01*
D18*
X-10500000Y+2750000D02*
X-10500000Y+2750000D01*
D70*
X-10430658Y+2946406D02*
X-10430658Y+3050418D01*
X-10430658Y+2998412D02*
X-10569342Y+2998412D01*
X-10569342Y+2946406D02*
X-10569342Y+3050418D01*
X-10430658Y+3284446D02*
X-10569342Y+3128428D01*
X-10476886Y+3336453D02*
X-10430658Y+3388459D01*
X-10430658Y+3440465D01*
X-10476886Y+3492471D01*
X-10523114Y+3492471D01*
X-10569342Y+3440465D01*
X-10569342Y+3388459D01*
X-10523114Y+3336453D01*
X-10476886Y+3336453D01*
D14*
X-10800000Y+173000D02*
X-6000000Y+173000D01*
X-6000000Y+3990500D01*
X-10800000Y+3990500D01*
X-10800000Y+173000D01*
D71*
X-6173500Y+356000D02*
X-6173500Y+2184000D01*
X-10541500Y+2184000D01*
X-10541500Y+356000D02*
X-6173500Y+356000D01*
X-10541500Y+356000D02*
X-10541500Y+948000D01*
X-10731500Y+948000D01*
X-10731500Y+1595000D01*
X-10541500Y+1595000D01*
X-10541500Y+2184000D01*
D18*
X-6579500Y+508000D02*
X-6579500Y+508000D01*
D20*
X-7929110Y+1521013D02*
X-7929110Y+1102657D01*
X-8023240Y+1018986D01*
X-8399760Y+1018986D01*
X-8493890Y+1102657D01*
X-8493890Y+1521013D01*
X-8870410Y+1353671D02*
X-9058670Y+1521013D01*
X-9058670Y+1018986D01*
D17*
X-3379980Y+6537720D02*
X-2333820Y+6537720D01*
X-2333820Y+6928880D01*
X-3379980Y+6928880D01*
X-3379980Y+6537720D01*
D18*
X-2465900Y+6733300D02*
X-2465900Y+6733300D01*
D19*
X-2580765Y+6749637D02*
X-2617522Y+6782310D01*
X-2654280Y+6782310D01*
X-2691037Y+6749637D01*
X-2691037Y+6716963D01*
X-2654280Y+6684290D01*
X-2617522Y+6684290D01*
X-2580765Y+6716963D01*
X-2580765Y+6749637D01*
X-2727795Y+6782310D02*
X-2727795Y+6684290D01*
X-2838067Y+6684290D01*
X-2985097Y+6684290D02*
X-2874825Y+6684290D01*
X-2874825Y+6782310D01*
X-2985097Y+6782310D01*
X-2874825Y+6733300D02*
X-2948340Y+6733300D01*
X-3021855Y+6684290D02*
X-3021855Y+6782310D01*
X-3095370Y+6782310D01*
X-3132127Y+6749637D01*
X-3132127Y+6716963D01*
X-3095370Y+6684290D01*
X-3021855Y+6684290D01*
X-3205642Y+6749637D02*
X-3242400Y+6782310D01*
X-3242400Y+6684290D01*
D17*
X-1151320Y+6747080D02*
X-760160Y+6747080D01*
X-760160Y+7793240D01*
X-1151320Y+7793240D01*
X-1151320Y+6747080D01*
D18*
X-955740Y+6879160D02*
X-955740Y+6879160D01*
D70*
X-1025082Y+7049563D02*
X-886398Y+7049563D01*
X-955740Y+7127572D01*
X-886398Y+7205581D01*
X-1025082Y+7205581D01*
X-932626Y+7257588D02*
X-886398Y+7309594D01*
X-886398Y+7361600D01*
X-932626Y+7413606D01*
X-978854Y+7413606D01*
X-1025082Y+7361600D01*
X-1025082Y+7309594D01*
X-978854Y+7257588D01*
X-932626Y+7257588D01*
X-978854Y+7361600D02*
X-1025082Y+7413606D01*
X-932626Y+7517619D02*
X-886398Y+7569625D01*
X-1025082Y+7569625D01*
D17*
X-5195580Y+6367920D02*
X-4804420Y+6367920D01*
X-4804420Y+7664080D01*
X-5195580Y+7664080D01*
X-5195580Y+6367920D01*
D18*
X-5000000Y+6750000D02*
X-5000000Y+6750000D01*
D70*
X-4930658Y+6946406D02*
X-4930658Y+7050418D01*
X-4930658Y+6998412D02*
X-5069342Y+6998412D01*
X-5069342Y+6946406D02*
X-5069342Y+7050418D01*
X-4930658Y+7284446D02*
X-5069342Y+7128428D01*
X-4976886Y+7336453D02*
X-4930658Y+7388459D01*
X-4930658Y+7440465D01*
X-4976886Y+7492471D01*
X-5023114Y+7492471D01*
X-5069342Y+7440465D01*
X-5069342Y+7388459D01*
X-5023114Y+7336453D01*
X-4976886Y+7336453D01*
D14*
X-5300000Y+4173000D02*
X-500000Y+4173000D01*
X-500000Y+7990500D01*
X-5300000Y+7990500D01*
X-5300000Y+4173000D01*
D71*
X-673500Y+4356000D02*
X-673500Y+6184000D01*
X-5041500Y+6184000D01*
X-5041500Y+4356000D02*
X-673500Y+4356000D01*
X-5041500Y+4356000D02*
X-5041500Y+4948000D01*
X-5231500Y+4948000D01*
X-5231500Y+5595000D01*
X-5041500Y+5595000D01*
X-5041500Y+6184000D01*
D18*
X-1079500Y+4508000D02*
X-1079500Y+4508000D01*
D20*
X-2429110Y+5521013D02*
X-2429110Y+5102657D01*
X-2523240Y+5018986D01*
X-2899760Y+5018986D01*
X-2993890Y+5102657D01*
X-2993890Y+5521013D01*
X-3370410Y+5353671D02*
X-3558670Y+5521013D01*
X-3558670Y+5018986D01*
D17*
X-8879980Y+6537720D02*
X-7833820Y+6537720D01*
X-7833820Y+6928880D01*
X-8879980Y+6928880D01*
X-8879980Y+6537720D01*
D18*
X-7965900Y+6733300D02*
X-7965900Y+6733300D01*
D19*
X-8080765Y+6749637D02*
X-8117522Y+6782310D01*
X-8154280Y+6782310D01*
X-8191037Y+6749637D01*
X-8191037Y+6716963D01*
X-8154280Y+6684290D01*
X-8117522Y+6684290D01*
X-8080765Y+6716963D01*
X-8080765Y+6749637D01*
X-8227795Y+6782310D02*
X-8227795Y+6684290D01*
X-8338067Y+6684290D01*
X-8485097Y+6684290D02*
X-8374825Y+6684290D01*
X-8374825Y+6782310D01*
X-8485097Y+6782310D01*
X-8374825Y+6733300D02*
X-8448340Y+6733300D01*
X-8521855Y+6684290D02*
X-8521855Y+6782310D01*
X-8595370Y+6782310D01*
X-8632127Y+6749637D01*
X-8632127Y+6716963D01*
X-8595370Y+6684290D01*
X-8521855Y+6684290D01*
X-8705642Y+6749637D02*
X-8742400Y+6782310D01*
X-8742400Y+6684290D01*
D17*
X-6651320Y+6747080D02*
X-6260160Y+6747080D01*
X-6260160Y+7793240D01*
X-6651320Y+7793240D01*
X-6651320Y+6747080D01*
D18*
X-6455740Y+6879160D02*
X-6455740Y+6879160D01*
D70*
X-6525082Y+7049563D02*
X-6386398Y+7049563D01*
X-6455740Y+7127572D01*
X-6386398Y+7205581D01*
X-6525082Y+7205581D01*
X-6432626Y+7257588D02*
X-6386398Y+7309594D01*
X-6386398Y+7361600D01*
X-6432626Y+7413606D01*
X-6478854Y+7413606D01*
X-6525082Y+7361600D01*
X-6525082Y+7309594D01*
X-6478854Y+7257588D01*
X-6432626Y+7257588D01*
X-6478854Y+7361600D02*
X-6525082Y+7413606D01*
X-6432626Y+7517619D02*
X-6386398Y+7569625D01*
X-6525082Y+7569625D01*
D17*
X-10695580Y+6367920D02*
X-10304420Y+6367920D01*
X-10304420Y+7664080D01*
X-10695580Y+7664080D01*
X-10695580Y+6367920D01*
D18*
X-10500000Y+6750000D02*
X-10500000Y+6750000D01*
D70*
X-10430658Y+6946406D02*
X-10430658Y+7050418D01*
X-10430658Y+6998412D02*
X-10569342Y+6998412D01*
X-10569342Y+6946406D02*
X-10569342Y+7050418D01*
X-10430658Y+7284446D02*
X-10569342Y+7128428D01*
X-10476886Y+7336453D02*
X-10430658Y+7388459D01*
X-10430658Y+7440465D01*
X-10476886Y+7492471D01*
X-10523114Y+7492471D01*
X-10569342Y+7440465D01*
X-10569342Y+7388459D01*
X-10523114Y+7336453D01*
X-10476886Y+7336453D01*
D14*
X-10800000Y+4173000D02*
X-6000000Y+4173000D01*
X-6000000Y+7990500D01*
X-10800000Y+7990500D01*
X-10800000Y+4173000D01*
D71*
X-6173500Y+4356000D02*
X-6173500Y+6184000D01*
X-10541500Y+6184000D01*
X-10541500Y+4356000D02*
X-6173500Y+4356000D01*
X-10541500Y+4356000D02*
X-10541500Y+4948000D01*
X-10731500Y+4948000D01*
X-10731500Y+5595000D01*
X-10541500Y+5595000D01*
X-10541500Y+6184000D01*
D18*
X-6579500Y+4508000D02*
X-6579500Y+4508000D01*
D20*
X-7929110Y+5521013D02*
X-7929110Y+5102657D01*
X-8023240Y+5018986D01*
X-8399760Y+5018986D01*
X-8493890Y+5102657D01*
X-8493890Y+5521013D01*
X-8870410Y+5353671D02*
X-9058670Y+5521013D01*
X-9058670Y+5018986D01*
M02*
