G04 PROTEUS GERBER X2 FILE*
%TF.GenerationSoftware,Labcenter,Proteus,8.15-SP1-Build34318*%
%TF.CreationDate,2023-09-27T19:19:53+00:00*%
%TF.FileFunction,Copper,L1,Bot*%
%TF.FilePolarity,Positive*%
%TF.Part,Single*%
%TF.SameCoordinates,{3c810428-778b-40b1-ace6-7a7f232bcbd0}*%
%FSLAX45Y45*%
%MOMM*%
G01*
%TA.AperFunction,NonConductor*%
%ADD10C,1.016000*%
%TA.AperFunction,Conductor*%
%ADD11C,1.016000*%
%AMDIL002*
4,1,8,
-1.016000,0.965200,-0.711200,1.270000,0.711200,1.270000,1.016000,0.965200,1.016000,-0.965200,
0.711200,-1.270000,-0.711200,-1.270000,-1.016000,-0.965200,-1.016000,0.965200,
0*%
%TA.AperFunction,ComponentPad*%
%ADD12DIL002*%
%AMDIL003*
4,1,8,
-1.270000,0.711200,-0.965200,1.016000,0.965200,1.016000,1.270000,0.711200,1.270000,-0.711200,
0.965200,-1.016000,-0.965200,-1.016000,-1.270000,-0.711200,-1.270000,0.711200,
0*%
%ADD13DIL003*%
%TA.AperFunction,Profile*%
%ADD14C,0.101600*%
%TD.AperFunction*%
%TA.AperFunction,Conductor*%
G36*
X-1638301Y+2582833D02*
X-1638301Y+2311399D01*
X-1587501Y+2311399D01*
X-1587501Y+1752601D01*
X-1638301Y+1752601D01*
X-1638301Y+1630333D01*
X-1805435Y+1463199D01*
X-1556833Y+1463199D01*
X-1130301Y+1036667D01*
X-1130301Y+787399D01*
X-825501Y+787399D01*
X-825501Y+330480D01*
X-657480Y+330480D01*
X-657480Y+2230154D01*
X-804833Y+2082801D01*
X-825501Y+2082801D01*
X-825501Y+1752601D01*
X-1587499Y+1752601D01*
X-1587499Y+2311399D01*
X-1536698Y+2311399D01*
X-1536698Y+2370168D01*
X-1417667Y+2489199D01*
X-973167Y+2489199D01*
X-901699Y+2560667D01*
X-901699Y+2625161D01*
X-1235139Y+2625161D01*
X-1235139Y+2675961D01*
X-1545173Y+2675961D01*
X-1638301Y+2582833D01*
G37*
%TD.AperFunction*%
%TA.AperFunction,Conductor*%
G36*
X-5142520Y+330480D02*
X-4889499Y+330480D01*
X-4889499Y+719232D01*
X-5076598Y+719232D01*
X-5142520Y+785154D01*
X-5142520Y+330480D01*
G37*
%TD.AperFunction*%
%TA.AperFunction,Conductor*%
G36*
X-4381501Y+330480D02*
X-3884624Y+330480D01*
X-3960945Y+406801D01*
X-4334167Y+406801D01*
X-4381501Y+454135D01*
X-4381501Y+330480D01*
G37*
%TD.AperFunction*%
%TA.AperFunction,Conductor*%
G36*
X-3024701Y+2311399D02*
X-2905665Y+2311399D01*
X-2923099Y+2328833D01*
X-2923099Y+2453901D01*
X-3024701Y+2453901D01*
X-3024701Y+2311399D01*
G37*
%TD.AperFunction*%
%TA.AperFunction,Conductor*%
G36*
X-4720601Y+3461199D02*
X-4697833Y+3461199D01*
X-4368801Y+3132167D01*
X-4368801Y+2311399D01*
X-4127501Y+2311399D01*
X-4127501Y+2065367D01*
X-4127499Y+2065365D01*
X-4127499Y+2311399D01*
X-4076699Y+2311399D01*
X-4076699Y+3534827D01*
X-3941225Y+3670301D01*
X-4720601Y+3670301D01*
X-4720601Y+3461199D01*
G37*
%TD.AperFunction*%
%TA.AperFunction,Conductor*%
G36*
X-3670301Y+3366493D02*
X-3670301Y+2311399D01*
X-3619501Y+2311399D01*
X-3619501Y+2027865D01*
X-3431099Y+2216267D01*
X-3431099Y+2453901D01*
X-3481899Y+2453901D01*
X-3481899Y+3012699D01*
X-3173199Y+3012699D01*
X-3173199Y+3104168D01*
X-3054168Y+3223199D01*
X-2885832Y+3223199D01*
X-2766801Y+3104168D01*
X-2766801Y+3012699D01*
X-2211901Y+3012699D01*
X-2211901Y+2936499D01*
X-2201833Y+2936499D01*
X-2082801Y+2817467D01*
X-2082801Y+2311399D01*
X-2044699Y+2311399D01*
X-2044699Y+2751167D01*
X-1713507Y+3082359D01*
X-1235139Y+3082359D01*
X-1235139Y+3437961D01*
X-3598833Y+3437961D01*
X-3670301Y+3366493D01*
G37*
%TD.AperFunction*%
%TA.AperFunction,Conductor*%
G36*
X-3345435Y+1727199D02*
X-3060699Y+1727199D01*
X-3060699Y+1752601D01*
X-3111499Y+1752601D01*
X-3111499Y+1961135D01*
X-3345435Y+1727199D01*
G37*
%TD.AperFunction*%
%TA.AperFunction,Conductor*%
G36*
X-2142317Y+1761317D02*
X-2176435Y+1727199D01*
X-2116167Y+1727199D01*
X-2090765Y+1752601D01*
X-2095499Y+1752601D01*
X-2095499Y+1808135D01*
X-2142317Y+1761317D01*
G37*
%TD.AperFunction*%
%TA.AperFunction,Conductor*%
G36*
X-4165833Y+813199D02*
X-3792611Y+813199D01*
X-3468501Y+489089D01*
X-2603499Y+489089D01*
X-2603499Y+787399D01*
X-2552699Y+787399D01*
X-2552699Y+876801D01*
X-4229435Y+876801D01*
X-4165833Y+813199D01*
G37*
%TD.AperFunction*%
%TA.AperFunction,Conductor*%
G36*
X-2146301Y+787399D02*
X-2095501Y+787399D01*
X-2095501Y+489089D01*
X-2095499Y+489089D01*
X-2095499Y+787399D01*
X-1587501Y+787399D01*
X-1587501Y+489089D01*
X-1587499Y+489089D01*
X-1587499Y+787399D01*
X-1536699Y+787399D01*
X-1536699Y+868333D01*
X-1725167Y+1056801D01*
X-2146301Y+1056801D01*
X-2146301Y+787399D01*
G37*
%TD.AperFunction*%
%TA.AperFunction,Conductor*%
G36*
X-7138301Y+2582833D02*
X-7138301Y+2311399D01*
X-7087501Y+2311399D01*
X-7087501Y+1752601D01*
X-7138301Y+1752601D01*
X-7138301Y+1630333D01*
X-7305435Y+1463199D01*
X-7056833Y+1463199D01*
X-6630301Y+1036667D01*
X-6630301Y+787399D01*
X-6325501Y+787399D01*
X-6325501Y+330480D01*
X-6157480Y+330480D01*
X-6157480Y+2230154D01*
X-6304833Y+2082801D01*
X-6325501Y+2082801D01*
X-6325501Y+1752601D01*
X-7087499Y+1752601D01*
X-7087499Y+2311399D01*
X-7036698Y+2311399D01*
X-7036698Y+2370168D01*
X-6917667Y+2489199D01*
X-6473167Y+2489199D01*
X-6401699Y+2560667D01*
X-6401699Y+2625161D01*
X-6735139Y+2625161D01*
X-6735139Y+2675961D01*
X-7045173Y+2675961D01*
X-7138301Y+2582833D01*
G37*
%TD.AperFunction*%
%TA.AperFunction,Conductor*%
G36*
X-10642520Y+330480D02*
X-10389499Y+330480D01*
X-10389499Y+719232D01*
X-10576598Y+719232D01*
X-10642520Y+785154D01*
X-10642520Y+330480D01*
G37*
%TD.AperFunction*%
%TA.AperFunction,Conductor*%
G36*
X-9881501Y+330480D02*
X-9384624Y+330480D01*
X-9460945Y+406801D01*
X-9834167Y+406801D01*
X-9881501Y+454135D01*
X-9881501Y+330480D01*
G37*
%TD.AperFunction*%
%TA.AperFunction,Conductor*%
G36*
X-8524701Y+2311399D02*
X-8405665Y+2311399D01*
X-8423099Y+2328833D01*
X-8423099Y+2453901D01*
X-8524701Y+2453901D01*
X-8524701Y+2311399D01*
G37*
%TD.AperFunction*%
%TA.AperFunction,Conductor*%
G36*
X-10220601Y+3461199D02*
X-10197833Y+3461199D01*
X-9868801Y+3132167D01*
X-9868801Y+2311399D01*
X-9627501Y+2311399D01*
X-9627501Y+2065367D01*
X-9627499Y+2065365D01*
X-9627499Y+2311399D01*
X-9576699Y+2311399D01*
X-9576699Y+3534827D01*
X-9441225Y+3670301D01*
X-10220601Y+3670301D01*
X-10220601Y+3461199D01*
G37*
%TD.AperFunction*%
%TA.AperFunction,Conductor*%
G36*
X-9170301Y+3366493D02*
X-9170301Y+2311399D01*
X-9119501Y+2311399D01*
X-9119501Y+2027865D01*
X-8931099Y+2216267D01*
X-8931099Y+2453901D01*
X-8981899Y+2453901D01*
X-8981899Y+3012699D01*
X-8673199Y+3012699D01*
X-8673199Y+3104168D01*
X-8554168Y+3223199D01*
X-8385832Y+3223199D01*
X-8266801Y+3104168D01*
X-8266801Y+3012699D01*
X-7711901Y+3012699D01*
X-7711901Y+2936499D01*
X-7701833Y+2936499D01*
X-7582801Y+2817467D01*
X-7582801Y+2311399D01*
X-7544699Y+2311399D01*
X-7544699Y+2751167D01*
X-7213507Y+3082359D01*
X-6735139Y+3082359D01*
X-6735139Y+3437961D01*
X-9098833Y+3437961D01*
X-9170301Y+3366493D01*
G37*
%TD.AperFunction*%
%TA.AperFunction,Conductor*%
G36*
X-8845435Y+1727199D02*
X-8560699Y+1727199D01*
X-8560699Y+1752601D01*
X-8611499Y+1752601D01*
X-8611499Y+1961135D01*
X-8845435Y+1727199D01*
G37*
%TD.AperFunction*%
%TA.AperFunction,Conductor*%
G36*
X-7642317Y+1761317D02*
X-7676435Y+1727199D01*
X-7616167Y+1727199D01*
X-7590765Y+1752601D01*
X-7595499Y+1752601D01*
X-7595499Y+1808135D01*
X-7642317Y+1761317D01*
G37*
%TD.AperFunction*%
%TA.AperFunction,Conductor*%
G36*
X-9665833Y+813199D02*
X-9292611Y+813199D01*
X-8968501Y+489089D01*
X-8103499Y+489089D01*
X-8103499Y+787399D01*
X-8052699Y+787399D01*
X-8052699Y+876801D01*
X-9729435Y+876801D01*
X-9665833Y+813199D01*
G37*
%TD.AperFunction*%
%TA.AperFunction,Conductor*%
G36*
X-7646301Y+787399D02*
X-7595501Y+787399D01*
X-7595501Y+489089D01*
X-7595499Y+489089D01*
X-7595499Y+787399D01*
X-7087501Y+787399D01*
X-7087501Y+489089D01*
X-7087499Y+489089D01*
X-7087499Y+787399D01*
X-7036699Y+787399D01*
X-7036699Y+868333D01*
X-7225167Y+1056801D01*
X-7646301Y+1056801D01*
X-7646301Y+787399D01*
G37*
%TD.AperFunction*%
%TA.AperFunction,Conductor*%
G36*
X-1638301Y+6582833D02*
X-1638301Y+6311399D01*
X-1587501Y+6311399D01*
X-1587501Y+5752601D01*
X-1638301Y+5752601D01*
X-1638301Y+5630333D01*
X-1805435Y+5463199D01*
X-1556833Y+5463199D01*
X-1130301Y+5036667D01*
X-1130301Y+4787399D01*
X-825501Y+4787399D01*
X-825501Y+4330480D01*
X-657480Y+4330480D01*
X-657480Y+6230154D01*
X-804833Y+6082801D01*
X-825501Y+6082801D01*
X-825501Y+5752601D01*
X-1587499Y+5752601D01*
X-1587499Y+6311399D01*
X-1536698Y+6311399D01*
X-1536698Y+6370168D01*
X-1417667Y+6489199D01*
X-973167Y+6489199D01*
X-901699Y+6560667D01*
X-901699Y+6625161D01*
X-1235139Y+6625161D01*
X-1235139Y+6675961D01*
X-1545173Y+6675961D01*
X-1638301Y+6582833D01*
G37*
%TD.AperFunction*%
%TA.AperFunction,Conductor*%
G36*
X-5142520Y+4330480D02*
X-4889499Y+4330480D01*
X-4889499Y+4719232D01*
X-5076598Y+4719232D01*
X-5142520Y+4785154D01*
X-5142520Y+4330480D01*
G37*
%TD.AperFunction*%
%TA.AperFunction,Conductor*%
G36*
X-4381501Y+4330480D02*
X-3884624Y+4330480D01*
X-3960945Y+4406801D01*
X-4334167Y+4406801D01*
X-4381501Y+4454135D01*
X-4381501Y+4330480D01*
G37*
%TD.AperFunction*%
%TA.AperFunction,Conductor*%
G36*
X-3024701Y+6311399D02*
X-2905665Y+6311399D01*
X-2923099Y+6328833D01*
X-2923099Y+6453901D01*
X-3024701Y+6453901D01*
X-3024701Y+6311399D01*
G37*
%TD.AperFunction*%
%TA.AperFunction,Conductor*%
G36*
X-4720601Y+7461199D02*
X-4697833Y+7461199D01*
X-4368801Y+7132167D01*
X-4368801Y+6311399D01*
X-4127501Y+6311399D01*
X-4127501Y+6065367D01*
X-4127499Y+6065365D01*
X-4127499Y+6311399D01*
X-4076699Y+6311399D01*
X-4076699Y+7534827D01*
X-3941225Y+7670301D01*
X-4720601Y+7670301D01*
X-4720601Y+7461199D01*
G37*
%TD.AperFunction*%
%TA.AperFunction,Conductor*%
G36*
X-3670301Y+7366493D02*
X-3670301Y+6311399D01*
X-3619501Y+6311399D01*
X-3619501Y+6027865D01*
X-3431099Y+6216267D01*
X-3431099Y+6453901D01*
X-3481899Y+6453901D01*
X-3481899Y+7012699D01*
X-3173199Y+7012699D01*
X-3173199Y+7104168D01*
X-3054168Y+7223199D01*
X-2885832Y+7223199D01*
X-2766801Y+7104168D01*
X-2766801Y+7012699D01*
X-2211901Y+7012699D01*
X-2211901Y+6936499D01*
X-2201833Y+6936499D01*
X-2082801Y+6817467D01*
X-2082801Y+6311399D01*
X-2044699Y+6311399D01*
X-2044699Y+6751167D01*
X-1713507Y+7082359D01*
X-1235139Y+7082359D01*
X-1235139Y+7437961D01*
X-3598833Y+7437961D01*
X-3670301Y+7366493D01*
G37*
%TD.AperFunction*%
%TA.AperFunction,Conductor*%
G36*
X-3345435Y+5727199D02*
X-3060699Y+5727199D01*
X-3060699Y+5752601D01*
X-3111499Y+5752601D01*
X-3111499Y+5961135D01*
X-3345435Y+5727199D01*
G37*
%TD.AperFunction*%
%TA.AperFunction,Conductor*%
G36*
X-2142317Y+5761317D02*
X-2176435Y+5727199D01*
X-2116167Y+5727199D01*
X-2090765Y+5752601D01*
X-2095499Y+5752601D01*
X-2095499Y+5808135D01*
X-2142317Y+5761317D01*
G37*
%TD.AperFunction*%
%TA.AperFunction,Conductor*%
G36*
X-4165833Y+4813199D02*
X-3792611Y+4813199D01*
X-3468501Y+4489089D01*
X-2603499Y+4489089D01*
X-2603499Y+4787399D01*
X-2552699Y+4787399D01*
X-2552699Y+4876801D01*
X-4229435Y+4876801D01*
X-4165833Y+4813199D01*
G37*
%TD.AperFunction*%
%TA.AperFunction,Conductor*%
G36*
X-2146301Y+4787399D02*
X-2095501Y+4787399D01*
X-2095501Y+4489089D01*
X-2095499Y+4489089D01*
X-2095499Y+4787399D01*
X-1587501Y+4787399D01*
X-1587501Y+4489089D01*
X-1587499Y+4489089D01*
X-1587499Y+4787399D01*
X-1536699Y+4787399D01*
X-1536699Y+4868333D01*
X-1725167Y+5056801D01*
X-2146301Y+5056801D01*
X-2146301Y+4787399D01*
G37*
%TD.AperFunction*%
%TA.AperFunction,Conductor*%
G36*
X-7138301Y+6582833D02*
X-7138301Y+6311399D01*
X-7087501Y+6311399D01*
X-7087501Y+5752601D01*
X-7138301Y+5752601D01*
X-7138301Y+5630333D01*
X-7305435Y+5463199D01*
X-7056833Y+5463199D01*
X-6630301Y+5036667D01*
X-6630301Y+4787399D01*
X-6325501Y+4787399D01*
X-6325501Y+4330480D01*
X-6157480Y+4330480D01*
X-6157480Y+6230154D01*
X-6304833Y+6082801D01*
X-6325501Y+6082801D01*
X-6325501Y+5752601D01*
X-7087499Y+5752601D01*
X-7087499Y+6311399D01*
X-7036698Y+6311399D01*
X-7036698Y+6370168D01*
X-6917667Y+6489199D01*
X-6473167Y+6489199D01*
X-6401699Y+6560667D01*
X-6401699Y+6625161D01*
X-6735139Y+6625161D01*
X-6735139Y+6675961D01*
X-7045173Y+6675961D01*
X-7138301Y+6582833D01*
G37*
%TD.AperFunction*%
%TA.AperFunction,Conductor*%
G36*
X-10642520Y+4330480D02*
X-10389499Y+4330480D01*
X-10389499Y+4719232D01*
X-10576598Y+4719232D01*
X-10642520Y+4785154D01*
X-10642520Y+4330480D01*
G37*
%TD.AperFunction*%
%TA.AperFunction,Conductor*%
G36*
X-9881501Y+4330480D02*
X-9384624Y+4330480D01*
X-9460945Y+4406801D01*
X-9834167Y+4406801D01*
X-9881501Y+4454135D01*
X-9881501Y+4330480D01*
G37*
%TD.AperFunction*%
%TA.AperFunction,Conductor*%
G36*
X-8524701Y+6311399D02*
X-8405665Y+6311399D01*
X-8423099Y+6328833D01*
X-8423099Y+6453901D01*
X-8524701Y+6453901D01*
X-8524701Y+6311399D01*
G37*
%TD.AperFunction*%
%TA.AperFunction,Conductor*%
G36*
X-10220601Y+7461199D02*
X-10197833Y+7461199D01*
X-9868801Y+7132167D01*
X-9868801Y+6311399D01*
X-9627501Y+6311399D01*
X-9627501Y+6065367D01*
X-9627499Y+6065365D01*
X-9627499Y+6311399D01*
X-9576699Y+6311399D01*
X-9576699Y+7534827D01*
X-9441225Y+7670301D01*
X-10220601Y+7670301D01*
X-10220601Y+7461199D01*
G37*
%TD.AperFunction*%
%TA.AperFunction,Conductor*%
G36*
X-9170301Y+7366493D02*
X-9170301Y+6311399D01*
X-9119501Y+6311399D01*
X-9119501Y+6027865D01*
X-8931099Y+6216267D01*
X-8931099Y+6453901D01*
X-8981899Y+6453901D01*
X-8981899Y+7012699D01*
X-8673199Y+7012699D01*
X-8673199Y+7104168D01*
X-8554168Y+7223199D01*
X-8385832Y+7223199D01*
X-8266801Y+7104168D01*
X-8266801Y+7012699D01*
X-7711901Y+7012699D01*
X-7711901Y+6936499D01*
X-7701833Y+6936499D01*
X-7582801Y+6817467D01*
X-7582801Y+6311399D01*
X-7544699Y+6311399D01*
X-7544699Y+6751167D01*
X-7213507Y+7082359D01*
X-6735139Y+7082359D01*
X-6735139Y+7437961D01*
X-9098833Y+7437961D01*
X-9170301Y+7366493D01*
G37*
%TD.AperFunction*%
%TA.AperFunction,Conductor*%
G36*
X-8845435Y+5727199D02*
X-8560699Y+5727199D01*
X-8560699Y+5752601D01*
X-8611499Y+5752601D01*
X-8611499Y+5961135D01*
X-8845435Y+5727199D01*
G37*
%TD.AperFunction*%
%TA.AperFunction,Conductor*%
G36*
X-7642317Y+5761317D02*
X-7676435Y+5727199D01*
X-7616167Y+5727199D01*
X-7590765Y+5752601D01*
X-7595499Y+5752601D01*
X-7595499Y+5808135D01*
X-7642317Y+5761317D01*
G37*
%TD.AperFunction*%
%TA.AperFunction,Conductor*%
G36*
X-9665833Y+4813199D02*
X-9292611Y+4813199D01*
X-8968501Y+4489089D01*
X-8103499Y+4489089D01*
X-8103499Y+4787399D01*
X-8052699Y+4787399D01*
X-8052699Y+4876801D01*
X-9729435Y+4876801D01*
X-9665833Y+4813199D01*
G37*
%TD.AperFunction*%
%TA.AperFunction,Conductor*%
G36*
X-7646301Y+4787399D02*
X-7595501Y+4787399D01*
X-7595501Y+4489089D01*
X-7595499Y+4489089D01*
X-7595499Y+4787399D01*
X-7087501Y+4787399D01*
X-7087501Y+4489089D01*
X-7087499Y+4489089D01*
X-7087499Y+4787399D01*
X-7036699Y+4787399D01*
X-7036699Y+4868333D01*
X-7225167Y+5056801D01*
X-7646301Y+5056801D01*
X-7646301Y+4787399D01*
G37*
%TD.AperFunction*%
D10*
X-1841500Y+2032000D02*
X-1841500Y+1714500D01*
X-2032000Y+1524000D01*
X-4381500Y+1524000D01*
X-4572000Y+1714500D01*
X-4572000Y+3048000D01*
X-4782000Y+3258000D01*
X-5000000Y+3258000D01*
X-1841500Y+2032000D02*
X-1841500Y+2667000D01*
X-1629340Y+2879160D01*
X-955740Y+2879160D01*
X-955740Y+3641160D02*
X-3683000Y+3641160D01*
X-3873500Y+3450660D01*
X-3873500Y+2032000D01*
X-698500Y+3111500D02*
X-698500Y+3873500D01*
X-5000000Y+3873500D01*
X-5000000Y+3512000D01*
X-1333500Y+2032000D02*
X-1333500Y+2286000D01*
X-889000Y+2286000D01*
X-698500Y+2476500D01*
X-698500Y+3111500D01*
X-889000Y+3111500D02*
X-698500Y+3111500D01*
X-955740Y+3133160D02*
X-955740Y+3111500D01*
X-889000Y+3111500D01*
X-2719900Y+2733300D02*
X-2719900Y+2413000D01*
X-2603500Y+2296600D01*
X-2603500Y+2032000D01*
X-2857500Y+2032000D02*
X-2857500Y+1714500D01*
X-2476500Y+1714500D01*
X-2286000Y+1905000D01*
X-2286000Y+2733300D01*
X-2465900Y+2733300D01*
X-3227900Y+2733300D02*
X-3227900Y+2132100D01*
X-3610000Y+1750000D01*
X-4099500Y+1750000D01*
X-4381500Y+2032000D01*
X-5000000Y+2750000D02*
X-4762500Y+2750000D01*
X-4762500Y+1333500D01*
X-4689000Y+1260000D01*
X-1641000Y+1260000D01*
X-1333500Y+952500D01*
X-1333500Y+508000D01*
X-2349500Y+508000D02*
X-2349500Y+1080000D01*
X-4830000Y+1080000D01*
X-5000000Y+1250000D01*
X-5000000Y+2500000D01*
X-5000000Y+3004000D02*
X-5204610Y+3004000D01*
X-5204610Y+1134610D01*
X-4992431Y+922431D01*
X-4562431Y+922431D01*
X-4250000Y+610000D01*
X-3876778Y+610000D01*
X-3552668Y+285890D01*
X-1143000Y+285890D01*
X-1143000Y+317500D01*
X-1079500Y+317500D01*
X-1079500Y+508000D01*
X-2970000Y+3020000D02*
X-2970000Y+2737200D01*
X-2973900Y+2733300D01*
X-7341500Y+2032000D02*
X-7341500Y+1714500D01*
X-7532000Y+1524000D01*
X-9881500Y+1524000D01*
X-10072000Y+1714500D01*
X-10072000Y+3048000D01*
X-10282000Y+3258000D01*
X-10500000Y+3258000D01*
X-7341500Y+2032000D02*
X-7341500Y+2667000D01*
X-7129340Y+2879160D01*
X-6455740Y+2879160D01*
X-6455740Y+3641160D02*
X-9183000Y+3641160D01*
X-9373500Y+3450660D01*
X-9373500Y+2032000D01*
X-6198500Y+3111500D02*
X-6198500Y+3873500D01*
X-10500000Y+3873500D01*
X-10500000Y+3512000D01*
X-6833500Y+2032000D02*
X-6833500Y+2286000D01*
X-6389000Y+2286000D01*
X-6198500Y+2476500D01*
X-6198500Y+3111500D01*
X-6389000Y+3111500D02*
X-6198500Y+3111500D01*
X-6455740Y+3133160D02*
X-6455740Y+3111500D01*
X-6389000Y+3111500D01*
X-8219900Y+2733300D02*
X-8219900Y+2413000D01*
X-8103500Y+2296600D01*
X-8103500Y+2032000D01*
X-8357500Y+2032000D02*
X-8357500Y+1714500D01*
X-7976500Y+1714500D01*
X-7786000Y+1905000D01*
X-7786000Y+2733300D01*
X-7965900Y+2733300D01*
X-8727900Y+2733300D02*
X-8727900Y+2132100D01*
X-9110000Y+1750000D01*
X-9599500Y+1750000D01*
X-9881500Y+2032000D01*
X-10500000Y+2750000D02*
X-10262500Y+2750000D01*
X-10262500Y+1333500D01*
X-10189000Y+1260000D01*
X-7141000Y+1260000D01*
X-6833500Y+952500D01*
X-6833500Y+508000D01*
X-7849500Y+508000D02*
X-7849500Y+1080000D01*
X-10330000Y+1080000D01*
X-10500000Y+1250000D01*
X-10500000Y+2500000D01*
X-10500000Y+3004000D02*
X-10704610Y+3004000D01*
X-10704610Y+1134610D01*
X-10492431Y+922431D01*
X-10062431Y+922431D01*
X-9750000Y+610000D01*
X-9376778Y+610000D01*
X-9052668Y+285890D01*
X-6643000Y+285890D01*
X-6643000Y+317500D01*
X-6579500Y+317500D01*
X-6579500Y+508000D01*
X-8470000Y+3020000D02*
X-8470000Y+2737200D01*
X-8473900Y+2733300D01*
X-1841500Y+6032000D02*
X-1841500Y+5714500D01*
X-2032000Y+5524000D01*
X-4381500Y+5524000D01*
X-4572000Y+5714500D01*
X-4572000Y+7048000D01*
X-4782000Y+7258000D01*
X-5000000Y+7258000D01*
X-1841500Y+6032000D02*
X-1841500Y+6667000D01*
X-1629340Y+6879160D01*
X-955740Y+6879160D01*
X-955740Y+7641160D02*
X-3683000Y+7641160D01*
X-3873500Y+7450660D01*
X-3873500Y+6032000D01*
X-698500Y+7111500D02*
X-698500Y+7873500D01*
X-5000000Y+7873500D01*
X-5000000Y+7512000D01*
X-1333500Y+6032000D02*
X-1333500Y+6286000D01*
X-889000Y+6286000D01*
X-698500Y+6476500D01*
X-698500Y+7111500D01*
X-889000Y+7111500D02*
X-698500Y+7111500D01*
X-955740Y+7133160D02*
X-955740Y+7111500D01*
X-889000Y+7111500D01*
X-2719900Y+6733300D02*
X-2719900Y+6413000D01*
X-2603500Y+6296600D01*
X-2603500Y+6032000D01*
X-2857500Y+6032000D02*
X-2857500Y+5714500D01*
X-2476500Y+5714500D01*
X-2286000Y+5905000D01*
X-2286000Y+6733300D01*
X-2465900Y+6733300D01*
X-3227900Y+6733300D02*
X-3227900Y+6132100D01*
X-3610000Y+5750000D01*
X-4099500Y+5750000D01*
X-4381500Y+6032000D01*
X-5000000Y+6750000D02*
X-4762500Y+6750000D01*
X-4762500Y+5333500D01*
X-4689000Y+5260000D01*
X-1641000Y+5260000D01*
X-1333500Y+4952500D01*
X-1333500Y+4508000D01*
X-2349500Y+4508000D02*
X-2349500Y+5080000D01*
X-4830000Y+5080000D01*
X-5000000Y+5250000D01*
X-5000000Y+6500000D01*
X-5000000Y+7004000D02*
X-5204610Y+7004000D01*
X-5204610Y+5134610D01*
X-4992431Y+4922431D01*
X-4562431Y+4922431D01*
X-4250000Y+4610000D01*
X-3876778Y+4610000D01*
X-3552668Y+4285890D01*
X-1143000Y+4285890D01*
X-1143000Y+4317500D01*
X-1079500Y+4317500D01*
X-1079500Y+4508000D01*
X-2970000Y+7020000D02*
X-2970000Y+6737200D01*
X-2973900Y+6733300D01*
X-7341500Y+6032000D02*
X-7341500Y+5714500D01*
X-7532000Y+5524000D01*
X-9881500Y+5524000D01*
X-10072000Y+5714500D01*
X-10072000Y+7048000D01*
X-10282000Y+7258000D01*
X-10500000Y+7258000D01*
X-7341500Y+6032000D02*
X-7341500Y+6667000D01*
X-7129340Y+6879160D01*
X-6455740Y+6879160D01*
X-6455740Y+7641160D02*
X-9183000Y+7641160D01*
X-9373500Y+7450660D01*
X-9373500Y+6032000D01*
X-6198500Y+7111500D02*
X-6198500Y+7873500D01*
X-10500000Y+7873500D01*
X-10500000Y+7512000D01*
X-6833500Y+6032000D02*
X-6833500Y+6286000D01*
X-6389000Y+6286000D01*
X-6198500Y+6476500D01*
X-6198500Y+7111500D01*
X-6389000Y+7111500D02*
X-6198500Y+7111500D01*
X-6455740Y+7133160D02*
X-6455740Y+7111500D01*
X-6389000Y+7111500D01*
X-8219900Y+6733300D02*
X-8219900Y+6413000D01*
X-8103500Y+6296600D01*
X-8103500Y+6032000D01*
X-8357500Y+6032000D02*
X-8357500Y+5714500D01*
X-7976500Y+5714500D01*
X-7786000Y+5905000D01*
X-7786000Y+6733300D01*
X-7965900Y+6733300D01*
X-8727900Y+6733300D02*
X-8727900Y+6132100D01*
X-9110000Y+5750000D01*
X-9599500Y+5750000D01*
X-9881500Y+6032000D01*
X-10500000Y+6750000D02*
X-10262500Y+6750000D01*
X-10262500Y+5333500D01*
X-10189000Y+5260000D01*
X-7141000Y+5260000D01*
X-6833500Y+4952500D01*
X-6833500Y+4508000D01*
X-7849500Y+4508000D02*
X-7849500Y+5080000D01*
X-10330000Y+5080000D01*
X-10500000Y+5250000D01*
X-10500000Y+6500000D01*
X-10500000Y+7004000D02*
X-10704610Y+7004000D01*
X-10704610Y+5134610D01*
X-10492431Y+4922431D01*
X-10062431Y+4922431D01*
X-9750000Y+4610000D01*
X-9376778Y+4610000D01*
X-9052668Y+4285890D01*
X-6643000Y+4285890D01*
X-6643000Y+4317500D01*
X-6579500Y+4317500D01*
X-6579500Y+4508000D01*
X-8470000Y+7020000D02*
X-8470000Y+6737200D01*
X-8473900Y+6733300D01*
D11*
X-1638301Y+2582833D02*
X-1638301Y+2311399D01*
X-1587501Y+2311399D01*
X-1587501Y+1752601D01*
X-1638301Y+1752601D01*
X-1638301Y+1630333D01*
X-1805435Y+1463199D01*
X-1556833Y+1463199D01*
X-1130301Y+1036667D01*
X-1130301Y+787399D01*
X-825501Y+787399D01*
X-825501Y+330480D01*
X-657480Y+330480D01*
X-657480Y+2230154D01*
X-804833Y+2082801D01*
X-825501Y+2082801D01*
X-825501Y+1752601D01*
X-1587499Y+1752601D01*
X-1587499Y+2311399D01*
X-1536698Y+2311399D01*
X-1536698Y+2370168D01*
X-1417667Y+2489199D01*
X-973167Y+2489199D01*
X-901699Y+2560667D01*
X-901699Y+2625161D01*
X-1235139Y+2625161D01*
X-1235139Y+2675961D01*
X-1545173Y+2675961D01*
X-1638301Y+2582833D01*
X-5142520Y+330480D02*
X-4889499Y+330480D01*
X-4889499Y+719232D01*
X-5076598Y+719232D01*
X-5142520Y+785154D01*
X-5142520Y+330480D01*
X-4381501Y+330480D02*
X-3884624Y+330480D01*
X-3960945Y+406801D01*
X-4334167Y+406801D01*
X-4381501Y+454135D01*
X-4381501Y+330480D01*
X-3024701Y+2311399D02*
X-2905665Y+2311399D01*
X-2923099Y+2328833D01*
X-2923099Y+2453901D01*
X-3024701Y+2453901D01*
X-3024701Y+2311399D01*
X-4720601Y+3461199D02*
X-4697833Y+3461199D01*
X-4368801Y+3132167D01*
X-4368801Y+2311399D01*
X-4127501Y+2311399D01*
X-4127501Y+2065367D01*
X-4127499Y+2065365D01*
X-4127499Y+2311399D01*
X-4076699Y+2311399D01*
X-4076699Y+3534827D01*
X-3941225Y+3670301D01*
X-4720601Y+3670301D01*
X-4720601Y+3461199D01*
X-3670301Y+3366493D02*
X-3670301Y+2311399D01*
X-3619501Y+2311399D01*
X-3619501Y+2027865D01*
X-3431099Y+2216267D01*
X-3431099Y+2453901D01*
X-3481899Y+2453901D01*
X-3481899Y+3012699D01*
X-3173199Y+3012699D01*
X-3173199Y+3104168D01*
X-3054168Y+3223199D01*
X-2885832Y+3223199D01*
X-2766801Y+3104168D01*
X-2766801Y+3012699D01*
X-2211901Y+3012699D01*
X-2211901Y+2936499D01*
X-2201833Y+2936499D01*
X-2082801Y+2817467D01*
X-2082801Y+2311399D01*
X-2044699Y+2311399D01*
X-2044699Y+2751167D01*
X-1713507Y+3082359D01*
X-1235139Y+3082359D01*
X-1235139Y+3437961D01*
X-3598833Y+3437961D01*
X-3670301Y+3366493D01*
X-3345435Y+1727199D02*
X-3060699Y+1727199D01*
X-3060699Y+1752601D01*
X-3111499Y+1752601D01*
X-3111499Y+1961135D01*
X-3345435Y+1727199D01*
X-2142317Y+1761317D02*
X-2176435Y+1727199D01*
X-2116167Y+1727199D01*
X-2090765Y+1752601D01*
X-2095499Y+1752601D01*
X-2095499Y+1808135D01*
X-2142317Y+1761317D01*
X-4165833Y+813199D02*
X-3792611Y+813199D01*
X-3468501Y+489089D01*
X-2603499Y+489089D01*
X-2603499Y+787399D01*
X-2552699Y+787399D01*
X-2552699Y+876801D01*
X-4229435Y+876801D01*
X-4165833Y+813199D01*
X-2146301Y+787399D02*
X-2095501Y+787399D01*
X-2095501Y+489089D01*
X-2095499Y+489089D01*
X-2095499Y+787399D01*
X-1587501Y+787399D01*
X-1587501Y+489089D01*
X-1587499Y+489089D01*
X-1587499Y+787399D01*
X-1536699Y+787399D01*
X-1536699Y+868333D01*
X-1725167Y+1056801D01*
X-2146301Y+1056801D01*
X-2146301Y+787399D01*
X-7138301Y+2582833D02*
X-7138301Y+2311399D01*
X-7087501Y+2311399D01*
X-7087501Y+1752601D01*
X-7138301Y+1752601D01*
X-7138301Y+1630333D01*
X-7305435Y+1463199D01*
X-7056833Y+1463199D01*
X-6630301Y+1036667D01*
X-6630301Y+787399D01*
X-6325501Y+787399D01*
X-6325501Y+330480D01*
X-6157480Y+330480D01*
X-6157480Y+2230154D01*
X-6304833Y+2082801D01*
X-6325501Y+2082801D01*
X-6325501Y+1752601D01*
X-7087499Y+1752601D01*
X-7087499Y+2311399D01*
X-7036698Y+2311399D01*
X-7036698Y+2370168D01*
X-6917667Y+2489199D01*
X-6473167Y+2489199D01*
X-6401699Y+2560667D01*
X-6401699Y+2625161D01*
X-6735139Y+2625161D01*
X-6735139Y+2675961D01*
X-7045173Y+2675961D01*
X-7138301Y+2582833D01*
X-10642520Y+330480D02*
X-10389499Y+330480D01*
X-10389499Y+719232D01*
X-10576598Y+719232D01*
X-10642520Y+785154D01*
X-10642520Y+330480D01*
X-9881501Y+330480D02*
X-9384624Y+330480D01*
X-9460945Y+406801D01*
X-9834167Y+406801D01*
X-9881501Y+454135D01*
X-9881501Y+330480D01*
X-8524701Y+2311399D02*
X-8405665Y+2311399D01*
X-8423099Y+2328833D01*
X-8423099Y+2453901D01*
X-8524701Y+2453901D01*
X-8524701Y+2311399D01*
X-10220601Y+3461199D02*
X-10197833Y+3461199D01*
X-9868801Y+3132167D01*
X-9868801Y+2311399D01*
X-9627501Y+2311399D01*
X-9627501Y+2065367D01*
X-9627499Y+2065365D01*
X-9627499Y+2311399D01*
X-9576699Y+2311399D01*
X-9576699Y+3534827D01*
X-9441225Y+3670301D01*
X-10220601Y+3670301D01*
X-10220601Y+3461199D01*
X-9170301Y+3366493D02*
X-9170301Y+2311399D01*
X-9119501Y+2311399D01*
X-9119501Y+2027865D01*
X-8931099Y+2216267D01*
X-8931099Y+2453901D01*
X-8981899Y+2453901D01*
X-8981899Y+3012699D01*
X-8673199Y+3012699D01*
X-8673199Y+3104168D01*
X-8554168Y+3223199D01*
X-8385832Y+3223199D01*
X-8266801Y+3104168D01*
X-8266801Y+3012699D01*
X-7711901Y+3012699D01*
X-7711901Y+2936499D01*
X-7701833Y+2936499D01*
X-7582801Y+2817467D01*
X-7582801Y+2311399D01*
X-7544699Y+2311399D01*
X-7544699Y+2751167D01*
X-7213507Y+3082359D01*
X-6735139Y+3082359D01*
X-6735139Y+3437961D01*
X-9098833Y+3437961D01*
X-9170301Y+3366493D01*
X-8845435Y+1727199D02*
X-8560699Y+1727199D01*
X-8560699Y+1752601D01*
X-8611499Y+1752601D01*
X-8611499Y+1961135D01*
X-8845435Y+1727199D01*
X-7642317Y+1761317D02*
X-7676435Y+1727199D01*
X-7616167Y+1727199D01*
X-7590765Y+1752601D01*
X-7595499Y+1752601D01*
X-7595499Y+1808135D01*
X-7642317Y+1761317D01*
X-9665833Y+813199D02*
X-9292611Y+813199D01*
X-8968501Y+489089D01*
X-8103499Y+489089D01*
X-8103499Y+787399D01*
X-8052699Y+787399D01*
X-8052699Y+876801D01*
X-9729435Y+876801D01*
X-9665833Y+813199D01*
X-7646301Y+787399D02*
X-7595501Y+787399D01*
X-7595501Y+489089D01*
X-7595499Y+489089D01*
X-7595499Y+787399D01*
X-7087501Y+787399D01*
X-7087501Y+489089D01*
X-7087499Y+489089D01*
X-7087499Y+787399D01*
X-7036699Y+787399D01*
X-7036699Y+868333D01*
X-7225167Y+1056801D01*
X-7646301Y+1056801D01*
X-7646301Y+787399D01*
X-1638301Y+6582833D02*
X-1638301Y+6311399D01*
X-1587501Y+6311399D01*
X-1587501Y+5752601D01*
X-1638301Y+5752601D01*
X-1638301Y+5630333D01*
X-1805435Y+5463199D01*
X-1556833Y+5463199D01*
X-1130301Y+5036667D01*
X-1130301Y+4787399D01*
X-825501Y+4787399D01*
X-825501Y+4330480D01*
X-657480Y+4330480D01*
X-657480Y+6230154D01*
X-804833Y+6082801D01*
X-825501Y+6082801D01*
X-825501Y+5752601D01*
X-1587499Y+5752601D01*
X-1587499Y+6311399D01*
X-1536698Y+6311399D01*
X-1536698Y+6370168D01*
X-1417667Y+6489199D01*
X-973167Y+6489199D01*
X-901699Y+6560667D01*
X-901699Y+6625161D01*
X-1235139Y+6625161D01*
X-1235139Y+6675961D01*
X-1545173Y+6675961D01*
X-1638301Y+6582833D01*
X-5142520Y+4330480D02*
X-4889499Y+4330480D01*
X-4889499Y+4719232D01*
X-5076598Y+4719232D01*
X-5142520Y+4785154D01*
X-5142520Y+4330480D01*
X-4381501Y+4330480D02*
X-3884624Y+4330480D01*
X-3960945Y+4406801D01*
X-4334167Y+4406801D01*
X-4381501Y+4454135D01*
X-4381501Y+4330480D01*
X-3024701Y+6311399D02*
X-2905665Y+6311399D01*
X-2923099Y+6328833D01*
X-2923099Y+6453901D01*
X-3024701Y+6453901D01*
X-3024701Y+6311399D01*
X-4720601Y+7461199D02*
X-4697833Y+7461199D01*
X-4368801Y+7132167D01*
X-4368801Y+6311399D01*
X-4127501Y+6311399D01*
X-4127501Y+6065367D01*
X-4127499Y+6065365D01*
X-4127499Y+6311399D01*
X-4076699Y+6311399D01*
X-4076699Y+7534827D01*
X-3941225Y+7670301D01*
X-4720601Y+7670301D01*
X-4720601Y+7461199D01*
X-3670301Y+7366493D02*
X-3670301Y+6311399D01*
X-3619501Y+6311399D01*
X-3619501Y+6027865D01*
X-3431099Y+6216267D01*
X-3431099Y+6453901D01*
X-3481899Y+6453901D01*
X-3481899Y+7012699D01*
X-3173199Y+7012699D01*
X-3173199Y+7104168D01*
X-3054168Y+7223199D01*
X-2885832Y+7223199D01*
X-2766801Y+7104168D01*
X-2766801Y+7012699D01*
X-2211901Y+7012699D01*
X-2211901Y+6936499D01*
X-2201833Y+6936499D01*
X-2082801Y+6817467D01*
X-2082801Y+6311399D01*
X-2044699Y+6311399D01*
X-2044699Y+6751167D01*
X-1713507Y+7082359D01*
X-1235139Y+7082359D01*
X-1235139Y+7437961D01*
X-3598833Y+7437961D01*
X-3670301Y+7366493D01*
X-3345435Y+5727199D02*
X-3060699Y+5727199D01*
X-3060699Y+5752601D01*
X-3111499Y+5752601D01*
X-3111499Y+5961135D01*
X-3345435Y+5727199D01*
X-2142317Y+5761317D02*
X-2176435Y+5727199D01*
X-2116167Y+5727199D01*
X-2090765Y+5752601D01*
X-2095499Y+5752601D01*
X-2095499Y+5808135D01*
X-2142317Y+5761317D01*
X-4165833Y+4813199D02*
X-3792611Y+4813199D01*
X-3468501Y+4489089D01*
X-2603499Y+4489089D01*
X-2603499Y+4787399D01*
X-2552699Y+4787399D01*
X-2552699Y+4876801D01*
X-4229435Y+4876801D01*
X-4165833Y+4813199D01*
X-2146301Y+4787399D02*
X-2095501Y+4787399D01*
X-2095501Y+4489089D01*
X-2095499Y+4489089D01*
X-2095499Y+4787399D01*
X-1587501Y+4787399D01*
X-1587501Y+4489089D01*
X-1587499Y+4489089D01*
X-1587499Y+4787399D01*
X-1536699Y+4787399D01*
X-1536699Y+4868333D01*
X-1725167Y+5056801D01*
X-2146301Y+5056801D01*
X-2146301Y+4787399D01*
X-7138301Y+6582833D02*
X-7138301Y+6311399D01*
X-7087501Y+6311399D01*
X-7087501Y+5752601D01*
X-7138301Y+5752601D01*
X-7138301Y+5630333D01*
X-7305435Y+5463199D01*
X-7056833Y+5463199D01*
X-6630301Y+5036667D01*
X-6630301Y+4787399D01*
X-6325501Y+4787399D01*
X-6325501Y+4330480D01*
X-6157480Y+4330480D01*
X-6157480Y+6230154D01*
X-6304833Y+6082801D01*
X-6325501Y+6082801D01*
X-6325501Y+5752601D01*
X-7087499Y+5752601D01*
X-7087499Y+6311399D01*
X-7036698Y+6311399D01*
X-7036698Y+6370168D01*
X-6917667Y+6489199D01*
X-6473167Y+6489199D01*
X-6401699Y+6560667D01*
X-6401699Y+6625161D01*
X-6735139Y+6625161D01*
X-6735139Y+6675961D01*
X-7045173Y+6675961D01*
X-7138301Y+6582833D01*
X-10642520Y+4330480D02*
X-10389499Y+4330480D01*
X-10389499Y+4719232D01*
X-10576598Y+4719232D01*
X-10642520Y+4785154D01*
X-10642520Y+4330480D01*
X-9881501Y+4330480D02*
X-9384624Y+4330480D01*
X-9460945Y+4406801D01*
X-9834167Y+4406801D01*
X-9881501Y+4454135D01*
X-9881501Y+4330480D01*
X-8524701Y+6311399D02*
X-8405665Y+6311399D01*
X-8423099Y+6328833D01*
X-8423099Y+6453901D01*
X-8524701Y+6453901D01*
X-8524701Y+6311399D01*
X-10220601Y+7461199D02*
X-10197833Y+7461199D01*
X-9868801Y+7132167D01*
X-9868801Y+6311399D01*
X-9627501Y+6311399D01*
X-9627501Y+6065367D01*
X-9627499Y+6065365D01*
X-9627499Y+6311399D01*
X-9576699Y+6311399D01*
X-9576699Y+7534827D01*
X-9441225Y+7670301D01*
X-10220601Y+7670301D01*
X-10220601Y+7461199D01*
X-9170301Y+7366493D02*
X-9170301Y+6311399D01*
X-9119501Y+6311399D01*
X-9119501Y+6027865D01*
X-8931099Y+6216267D01*
X-8931099Y+6453901D01*
X-8981899Y+6453901D01*
X-8981899Y+7012699D01*
X-8673199Y+7012699D01*
X-8673199Y+7104168D01*
X-8554168Y+7223199D01*
X-8385832Y+7223199D01*
X-8266801Y+7104168D01*
X-8266801Y+7012699D01*
X-7711901Y+7012699D01*
X-7711901Y+6936499D01*
X-7701833Y+6936499D01*
X-7582801Y+6817467D01*
X-7582801Y+6311399D01*
X-7544699Y+6311399D01*
X-7544699Y+6751167D01*
X-7213507Y+7082359D01*
X-6735139Y+7082359D01*
X-6735139Y+7437961D01*
X-9098833Y+7437961D01*
X-9170301Y+7366493D01*
X-8845435Y+5727199D02*
X-8560699Y+5727199D01*
X-8560699Y+5752601D01*
X-8611499Y+5752601D01*
X-8611499Y+5961135D01*
X-8845435Y+5727199D01*
X-7642317Y+5761317D02*
X-7676435Y+5727199D01*
X-7616167Y+5727199D01*
X-7590765Y+5752601D01*
X-7595499Y+5752601D01*
X-7595499Y+5808135D01*
X-7642317Y+5761317D01*
X-9665833Y+4813199D02*
X-9292611Y+4813199D01*
X-8968501Y+4489089D01*
X-8103499Y+4489089D01*
X-8103499Y+4787399D01*
X-8052699Y+4787399D01*
X-8052699Y+4876801D01*
X-9729435Y+4876801D01*
X-9665833Y+4813199D01*
X-7646301Y+4787399D02*
X-7595501Y+4787399D01*
X-7595501Y+4489089D01*
X-7595499Y+4489089D01*
X-7595499Y+4787399D01*
X-7087501Y+4787399D01*
X-7087501Y+4489089D01*
X-7087499Y+4489089D01*
X-7087499Y+4787399D01*
X-7036699Y+4787399D01*
X-7036699Y+4868333D01*
X-7225167Y+5056801D01*
X-7646301Y+5056801D01*
X-7646301Y+4787399D01*
D12*
X-2465900Y+2733300D03*
X-2719900Y+2733300D03*
X-2973900Y+2733300D03*
X-3227900Y+2733300D03*
D13*
X-955740Y+2879160D03*
X-955740Y+3133160D03*
X-955740Y+3387160D03*
X-955740Y+3641160D03*
X-5000000Y+2500000D03*
X-5000000Y+2750000D03*
X-5000000Y+3004000D03*
X-5000000Y+3258000D03*
X-5000000Y+3512000D03*
D12*
X-1079500Y+508000D03*
X-1333500Y+508000D03*
X-1841500Y+508000D03*
X-2349500Y+508000D03*
X-4635500Y+508000D03*
X-4381500Y+2032000D03*
X-3873500Y+2032000D03*
X-2857500Y+2032000D03*
X-2603500Y+2032000D03*
X-1841500Y+2032000D03*
X-1333500Y+2032000D03*
X-1079500Y+2032000D03*
X-7965900Y+2733300D03*
X-8219900Y+2733300D03*
X-8473900Y+2733300D03*
X-8727900Y+2733300D03*
D13*
X-6455740Y+2879160D03*
X-6455740Y+3133160D03*
X-6455740Y+3387160D03*
X-6455740Y+3641160D03*
X-10500000Y+2500000D03*
X-10500000Y+2750000D03*
X-10500000Y+3004000D03*
X-10500000Y+3258000D03*
X-10500000Y+3512000D03*
D12*
X-6579500Y+508000D03*
X-6833500Y+508000D03*
X-7341500Y+508000D03*
X-7849500Y+508000D03*
X-10135500Y+508000D03*
X-9881500Y+2032000D03*
X-9373500Y+2032000D03*
X-8357500Y+2032000D03*
X-8103500Y+2032000D03*
X-7341500Y+2032000D03*
X-6833500Y+2032000D03*
X-6579500Y+2032000D03*
X-2465900Y+6733300D03*
X-2719900Y+6733300D03*
X-2973900Y+6733300D03*
X-3227900Y+6733300D03*
D13*
X-955740Y+6879160D03*
X-955740Y+7133160D03*
X-955740Y+7387160D03*
X-955740Y+7641160D03*
X-5000000Y+6500000D03*
X-5000000Y+6750000D03*
X-5000000Y+7004000D03*
X-5000000Y+7258000D03*
X-5000000Y+7512000D03*
D12*
X-1079500Y+4508000D03*
X-1333500Y+4508000D03*
X-1841500Y+4508000D03*
X-2349500Y+4508000D03*
X-4635500Y+4508000D03*
X-4381500Y+6032000D03*
X-3873500Y+6032000D03*
X-2857500Y+6032000D03*
X-2603500Y+6032000D03*
X-1841500Y+6032000D03*
X-1333500Y+6032000D03*
X-1079500Y+6032000D03*
X-7965900Y+6733300D03*
X-8219900Y+6733300D03*
X-8473900Y+6733300D03*
X-8727900Y+6733300D03*
D13*
X-6455740Y+6879160D03*
X-6455740Y+7133160D03*
X-6455740Y+7387160D03*
X-6455740Y+7641160D03*
X-10500000Y+6500000D03*
X-10500000Y+6750000D03*
X-10500000Y+7004000D03*
X-10500000Y+7258000D03*
X-10500000Y+7512000D03*
D12*
X-6579500Y+4508000D03*
X-6833500Y+4508000D03*
X-7341500Y+4508000D03*
X-7849500Y+4508000D03*
X-10135500Y+4508000D03*
X-9881500Y+6032000D03*
X-9373500Y+6032000D03*
X-8357500Y+6032000D03*
X-8103500Y+6032000D03*
X-7341500Y+6032000D03*
X-6833500Y+6032000D03*
X-6579500Y+6032000D03*
D14*
X-5300000Y+173000D02*
X-500000Y+173000D01*
X-500000Y+3990500D01*
X-5300000Y+3990500D01*
X-5300000Y+173000D01*
X-10800000Y+173000D02*
X-6000000Y+173000D01*
X-6000000Y+3990500D01*
X-10800000Y+3990500D01*
X-10800000Y+173000D01*
X-5300000Y+4173000D02*
X-500000Y+4173000D01*
X-500000Y+7990500D01*
X-5300000Y+7990500D01*
X-5300000Y+4173000D01*
X-10800000Y+4173000D02*
X-6000000Y+4173000D01*
X-6000000Y+7990500D01*
X-10800000Y+7990500D01*
X-10800000Y+4173000D01*
M02*
