G04 PROTEUS GERBER X2 FILE*
%TF.GenerationSoftware,Labcenter,Proteus,8.15-SP1-Build34318*%
%TF.CreationDate,2023-09-27T19:19:53+00:00*%
%TF.FileFunction,Plated,0,1,PTH*%
%TF.FilePolarity,Positive*%
%TF.Part,Single*%
%TF.SameCoordinates,{3c810428-778b-40b1-ace6-7a7f232bcbd0}*%
%FSLAX45Y45*%
%MOMM*%
G01*
%TA.AperFunction,ComponentDrill*%
%ADD21C,1.000000*%
%TD.AperFunction*%
D21*
X-2465900Y+2733300D03*
X-2719900Y+2733300D03*
X-2973900Y+2733300D03*
X-3227900Y+2733300D03*
X-955740Y+2879160D03*
X-955740Y+3133160D03*
X-955740Y+3387160D03*
X-955740Y+3641160D03*
X-5000000Y+2500000D03*
X-5000000Y+2750000D03*
X-5000000Y+3004000D03*
X-5000000Y+3258000D03*
X-5000000Y+3512000D03*
X-1079500Y+508000D03*
X-1333500Y+508000D03*
X-1841500Y+508000D03*
X-2349500Y+508000D03*
X-4635500Y+508000D03*
X-4381500Y+2032000D03*
X-3873500Y+2032000D03*
X-2857500Y+2032000D03*
X-2603500Y+2032000D03*
X-1841500Y+2032000D03*
X-1333500Y+2032000D03*
X-1079500Y+2032000D03*
X-7965900Y+2733300D03*
X-8219900Y+2733300D03*
X-8473900Y+2733300D03*
X-8727900Y+2733300D03*
X-6455740Y+2879160D03*
X-6455740Y+3133160D03*
X-6455740Y+3387160D03*
X-6455740Y+3641160D03*
X-10500000Y+2500000D03*
X-10500000Y+2750000D03*
X-10500000Y+3004000D03*
X-10500000Y+3258000D03*
X-10500000Y+3512000D03*
X-6579500Y+508000D03*
X-6833500Y+508000D03*
X-7341500Y+508000D03*
X-7849500Y+508000D03*
X-10135500Y+508000D03*
X-9881500Y+2032000D03*
X-9373500Y+2032000D03*
X-8357500Y+2032000D03*
X-8103500Y+2032000D03*
X-7341500Y+2032000D03*
X-6833500Y+2032000D03*
X-6579500Y+2032000D03*
X-2465900Y+6733300D03*
X-2719900Y+6733300D03*
X-2973900Y+6733300D03*
X-3227900Y+6733300D03*
X-955740Y+6879160D03*
X-955740Y+7133160D03*
X-955740Y+7387160D03*
X-955740Y+7641160D03*
X-5000000Y+6500000D03*
X-5000000Y+6750000D03*
X-5000000Y+7004000D03*
X-5000000Y+7258000D03*
X-5000000Y+7512000D03*
X-1079500Y+4508000D03*
X-1333500Y+4508000D03*
X-1841500Y+4508000D03*
X-2349500Y+4508000D03*
X-4635500Y+4508000D03*
X-4381500Y+6032000D03*
X-3873500Y+6032000D03*
X-2857500Y+6032000D03*
X-2603500Y+6032000D03*
X-1841500Y+6032000D03*
X-1333500Y+6032000D03*
X-1079500Y+6032000D03*
X-7965900Y+6733300D03*
X-8219900Y+6733300D03*
X-8473900Y+6733300D03*
X-8727900Y+6733300D03*
X-6455740Y+6879160D03*
X-6455740Y+7133160D03*
X-6455740Y+7387160D03*
X-6455740Y+7641160D03*
X-10500000Y+6500000D03*
X-10500000Y+6750000D03*
X-10500000Y+7004000D03*
X-10500000Y+7258000D03*
X-10500000Y+7512000D03*
X-6579500Y+4508000D03*
X-6833500Y+4508000D03*
X-7341500Y+4508000D03*
X-7849500Y+4508000D03*
X-10135500Y+4508000D03*
X-9881500Y+6032000D03*
X-9373500Y+6032000D03*
X-8357500Y+6032000D03*
X-8103500Y+6032000D03*
X-7341500Y+6032000D03*
X-6833500Y+6032000D03*
X-6579500Y+6032000D03*
M02*
