G04 PROTEUS GERBER X2 FILE*
%TF.GenerationSoftware,Labcenter,Proteus,8.15-SP1-Build34318*%
%TF.CreationDate,2024-01-08T11:51:49+00:00*%
%TF.FileFunction,Soldermask,Bot*%
%TF.FilePolarity,Negative*%
%TF.Part,Single*%
%TF.SameCoordinates,{48404f31-340f-4c03-a89b-c5ec1aaa3b79}*%
%FSLAX45Y45*%
%MOMM*%
G01*
%AMPPAD009*
4,1,8,
-1.397000,0.763800,
-1.397000,-0.763800,
-1.017800,-1.143000,
1.017800,-1.143000,
1.397000,-0.763800,
1.397000,0.763800,
1.017800,1.143000,
-1.017800,1.143000,
-1.397000,0.763800,
0*%
%TA.AperFunction,Material*%
%ADD19PPAD009*%
%AMPPAD010*
4,1,8,
0.763800,1.397000,
-0.763800,1.397000,
-1.143000,1.017800,
-1.143000,-1.017800,
-0.763800,-1.397000,
0.763800,-1.397000,
1.143000,-1.017800,
1.143000,1.017800,
0.763800,1.397000,
0*%
%TA.AperFunction,Material*%
%ADD70PPAD010*%
%TA.AperFunction,Material*%
%ADD71C,2.032000*%
%AMPPAD012*
4,1,36,
-0.635000,-0.762000,
0.635000,-0.762000,
0.660970,-0.759470,
0.684980,-0.752200,
0.706580,-0.740650,
0.725290,-0.725290,
0.740650,-0.706570,
0.752200,-0.684980,
0.759470,-0.660970,
0.762000,-0.635000,
0.762000,0.635000,
0.759470,0.660970,
0.752200,0.684980,
0.740650,0.706570,
0.725290,0.725290,
0.706580,0.740650,
0.684980,0.752200,
0.660970,0.759470,
0.635000,0.762000,
-0.635000,0.762000,
-0.660970,0.759470,
-0.684980,0.752200,
-0.706580,0.740650,
-0.725290,0.725290,
-0.740650,0.706570,
-0.752200,0.684980,
-0.759470,0.660970,
-0.762000,0.635000,
-0.762000,-0.635000,
-0.759470,-0.660970,
-0.752200,-0.684980,
-0.740650,-0.706570,
-0.725290,-0.725290,
-0.706580,-0.740650,
-0.684980,-0.752200,
-0.660970,-0.759470,
-0.635000,-0.762000,
0*%
%TA.AperFunction,Material*%
%ADD20PPAD012*%
%ADD21C,1.524000*%
%AMPPAD014*
4,1,36,
0.889000,-0.762000,
0.889000,0.762000,
0.886470,0.787970,
0.879200,0.811980,
0.867650,0.833580,
0.852290,0.852290,
0.833570,0.867650,
0.811980,0.879200,
0.787970,0.886470,
0.762000,0.889000,
-0.762000,0.889000,
-0.787970,0.886470,
-0.811980,0.879200,
-0.833570,0.867650,
-0.852290,0.852290,
-0.867650,0.833580,
-0.879200,0.811980,
-0.886470,0.787970,
-0.889000,0.762000,
-0.889000,-0.762000,
-0.886470,-0.787970,
-0.879200,-0.811980,
-0.867650,-0.833580,
-0.852290,-0.852290,
-0.833570,-0.867650,
-0.811980,-0.879200,
-0.787970,-0.886470,
-0.762000,-0.889000,
0.762000,-0.889000,
0.787970,-0.886470,
0.811980,-0.879200,
0.833570,-0.867650,
0.852290,-0.852290,
0.867650,-0.833580,
0.879200,-0.811980,
0.886470,-0.787970,
0.889000,-0.762000,
0*%
%TA.AperFunction,Material*%
%ADD22PPAD014*%
%TA.AperFunction,Profile*%
%ADD17C,0.101600*%
%TD.AperFunction*%
D19*
X-650000Y+8490000D03*
X-650000Y+8236000D03*
X-650000Y+7982000D03*
X-650000Y+7728000D03*
X-2540000Y+8450000D03*
X-2540000Y+8196000D03*
X-2540000Y+7942000D03*
X-2540000Y+7688000D03*
D70*
X-1760000Y+4820000D03*
X-2014000Y+4820000D03*
X-2268000Y+4820000D03*
X-2522000Y+4820000D03*
X-2776000Y+4820000D03*
X-3030000Y+4820000D03*
X-4556000Y+6344000D03*
X-4300000Y+6344000D03*
X-3792000Y+6344000D03*
X-3538000Y+6344000D03*
X-2776000Y+6344000D03*
X-2522000Y+6344000D03*
X-1760000Y+6344000D03*
X-1252000Y+6344000D03*
X-998000Y+6344000D03*
D19*
X-500000Y+4634000D03*
X-500000Y+4380000D03*
X-500000Y+4126000D03*
X-500000Y+3872000D03*
D71*
X-2010000Y+4370000D03*
X-994000Y+4370000D03*
X-2260000Y+4090000D03*
X-1244000Y+4090000D03*
X-2470000Y+3840000D03*
X-1454000Y+3840000D03*
D20*
X-4620000Y+4480000D03*
D21*
X-4366000Y+4480000D03*
X-4112000Y+4480000D03*
X-3858000Y+4480000D03*
X-3858000Y+3718000D03*
X-4112000Y+3718000D03*
X-4366000Y+3718000D03*
X-4620000Y+3718000D03*
D22*
X-1470000Y+1590000D03*
X-510000Y+1590000D03*
X-510000Y+3160000D03*
X-1470000Y+3160000D03*
D19*
X-2430000Y+3070000D03*
X-2430000Y+1800000D03*
X-2430000Y+1546000D03*
X-2430000Y+1292000D03*
X-4630000Y+1292000D03*
X-4630000Y+1546000D03*
X-4630000Y+1800000D03*
X-4630000Y+2054000D03*
X-4630000Y+2308000D03*
D70*
X-620000Y+650000D03*
X-874000Y+650000D03*
X-1128000Y+650000D03*
X-3620000Y+650000D03*
X-3366000Y+650000D03*
D17*
X-5140000Y-30000D02*
X+280000Y-30000D01*
X+280000Y+9190000D01*
X-5140000Y+9190000D01*
X-5140000Y-30000D01*
M02*
