G04 PROTEUS GERBER X2 FILE*
%TF.GenerationSoftware,Labcenter,Proteus,8.15-SP1-Build34318*%
%TF.CreationDate,2024-01-08T11:51:49+00:00*%
%TF.FileFunction,AssemblyDrawing,Top*%
%TF.FilePolarity,Positive*%
%TF.Part,Single*%
%TF.SameCoordinates,{48404f31-340f-4c03-a89b-c5ec1aaa3b79}*%
%FSLAX45Y45*%
%MOMM*%
G01*
%TA.AperFunction,Profile*%
%ADD17C,0.101600*%
%TA.AperFunction,Material*%
%ADD18C,0.101600*%
%ADD23C,1.016000*%
%ADD24C,0.235400*%
%ADD25C,0.664580*%
%ADD26C,0.826340*%
%ADD27C,0.231130*%
%ADD28C,0.711200*%
%ADD29C,0.117340*%
%ADD72C,0.508000*%
%ADD73C,0.267200*%
%ADD30C,0.609600*%
%ADD31C,0.423060*%
%ADD32C,0.653980*%
%ADD33C,0.187440*%
%ADD34C,0.113780*%
%TD.AperFunction*%
D17*
X-5140000Y-30000D02*
X+280000Y-30000D01*
X+280000Y+9190000D01*
X-5140000Y+9190000D01*
X-5140000Y-30000D01*
D18*
X-1962400Y+7626400D02*
X-514420Y+7626400D01*
X-514420Y+8820000D01*
X-1962400Y+8820000D01*
X-1962400Y+7626400D01*
D23*
X-650000Y+8490000D02*
X-650000Y+8490000D01*
D24*
X-907868Y+8152578D02*
X-907868Y+8293822D01*
X-1040284Y+8293822D01*
X-1066767Y+8270281D01*
X-1066767Y+8246741D01*
X-1040284Y+8223200D01*
X-1066767Y+8199659D01*
X-1066767Y+8176119D01*
X-1040284Y+8152578D01*
X-907868Y+8152578D01*
X-907868Y+8223200D02*
X-1040284Y+8223200D01*
X-1119734Y+8152578D02*
X-1119734Y+8293822D01*
X-1199183Y+8223200D01*
X-1278633Y+8293822D01*
X-1278633Y+8152578D01*
X-1331600Y+8152578D02*
X-1331600Y+8293822D01*
X-1464016Y+8293822D01*
X-1490499Y+8270281D01*
X-1490499Y+8246741D01*
X-1464016Y+8223200D01*
X-1331600Y+8223200D01*
X-1596432Y+8246741D02*
X-1649399Y+8293822D01*
X-1649399Y+8152578D01*
D18*
X-5355080Y+7084920D02*
X-2134920Y+7084920D01*
X-2134920Y+9250000D01*
X-5355080Y+9250000D01*
X-5355080Y+7084920D01*
D23*
X-2540000Y+8450000D02*
X-2540000Y+8450000D01*
D25*
X-3075753Y+7968084D02*
X-3075753Y+8366835D01*
X-3300049Y+8167460D01*
X-3524346Y+8366835D01*
X-3524346Y+7968084D01*
X-3673878Y+8233918D02*
X-3823409Y+8366835D01*
X-3972940Y+8366835D01*
X-4122471Y+8233918D01*
X-4122471Y+8101001D01*
X-3972940Y+7968084D01*
X-3823409Y+7968084D01*
X-3673878Y+8101001D01*
X-3673878Y+8233918D01*
X-3972940Y+8101001D02*
X-4122471Y+7968084D01*
X-4421534Y+8233918D02*
X-4571065Y+8366835D01*
X-4571065Y+7968084D01*
D18*
X-4686080Y+4693000D02*
X-865920Y+4693000D01*
X-865920Y+6471000D01*
X-4686080Y+6471000D01*
X-4686080Y+4693000D01*
D26*
X-1288576Y+5334096D02*
X-1288576Y+5664635D01*
X-1474504Y+5829904D01*
X-1660432Y+5829904D01*
X-1846360Y+5664635D01*
X-1846360Y+5334096D01*
X-1288576Y+5499365D02*
X-1846360Y+5499365D01*
X-2032288Y+5334096D02*
X-2032288Y+5829904D01*
X-2497108Y+5829904D01*
X-2590072Y+5747269D01*
X-2590072Y+5664635D01*
X-2497108Y+5582000D01*
X-2032288Y+5582000D01*
X-2497108Y+5582000D02*
X-2590072Y+5499365D01*
X-2590072Y+5334096D01*
X-2776000Y+5334096D02*
X-2776000Y+5829904D01*
X-3147856Y+5829904D01*
X-3333784Y+5664635D01*
X-3333784Y+5499365D01*
X-3147856Y+5334096D01*
X-2776000Y+5334096D01*
X-3519712Y+5829904D02*
X-4077496Y+5829904D01*
X-3798604Y+5829904D02*
X-3798604Y+5334096D01*
D18*
X-695580Y+3719920D02*
X-304420Y+3719920D01*
X-304420Y+4766080D01*
X-695580Y+4766080D01*
X-695580Y+3719920D01*
D23*
X-500000Y+4634000D02*
X-500000Y+4634000D01*
D27*
X-569342Y+3839523D02*
X-430658Y+3839523D01*
X-430658Y+3969538D01*
X-453772Y+3995541D01*
X-476886Y+3995541D01*
X-500000Y+3969538D01*
X-500000Y+3839523D01*
X-500000Y+3969538D02*
X-523114Y+3995541D01*
X-569342Y+3995541D01*
X-523114Y+4151560D02*
X-523114Y+4203566D01*
X-569342Y+4203566D01*
X-569342Y+4099554D01*
X-523114Y+4047548D01*
X-476886Y+4047548D01*
X-430658Y+4099554D01*
X-430658Y+4177563D01*
X-453772Y+4203566D01*
X-569342Y+4255573D02*
X-430658Y+4255573D01*
X-430658Y+4385588D01*
X-453772Y+4411591D01*
X-476886Y+4411591D01*
X-500000Y+4385588D01*
X-523114Y+4411591D01*
X-546228Y+4411591D01*
X-569342Y+4385588D01*
X-569342Y+4255573D01*
X-500000Y+4255573D02*
X-500000Y+4385588D01*
D18*
X-2098900Y+4281100D02*
X-905100Y+4281100D01*
X-905100Y+4458900D01*
X-2098900Y+4458900D01*
X-2098900Y+4281100D01*
D28*
X-2010000Y+4370000D02*
X-2010000Y+4370000D01*
D29*
X-1334158Y+4334796D02*
X-1334158Y+4405204D01*
X-1400165Y+4405204D01*
X-1413367Y+4393469D01*
X-1413367Y+4381735D01*
X-1400165Y+4370000D01*
X-1334158Y+4370000D01*
X-1400165Y+4370000D02*
X-1413367Y+4358265D01*
X-1413367Y+4334796D01*
X-1466173Y+4381735D02*
X-1492576Y+4405204D01*
X-1492576Y+4334796D01*
D18*
X-2348900Y+4001100D02*
X-1155100Y+4001100D01*
X-1155100Y+4178900D01*
X-2348900Y+4178900D01*
X-2348900Y+4001100D01*
D28*
X-2260000Y+4090000D02*
X-2260000Y+4090000D01*
D29*
X-1584158Y+4054796D02*
X-1584158Y+4125204D01*
X-1650165Y+4125204D01*
X-1663367Y+4113469D01*
X-1663367Y+4101735D01*
X-1650165Y+4090000D01*
X-1584158Y+4090000D01*
X-1650165Y+4090000D02*
X-1663367Y+4078265D01*
X-1663367Y+4054796D01*
X-1702971Y+4113469D02*
X-1716173Y+4125204D01*
X-1755777Y+4125204D01*
X-1768979Y+4113469D01*
X-1768979Y+4101735D01*
X-1755777Y+4090000D01*
X-1716173Y+4090000D01*
X-1702971Y+4078265D01*
X-1702971Y+4054796D01*
X-1768979Y+4054796D01*
D18*
X-2558900Y+3751100D02*
X-1365100Y+3751100D01*
X-1365100Y+3928900D01*
X-2558900Y+3928900D01*
X-2558900Y+3751100D01*
D28*
X-2470000Y+3840000D02*
X-2470000Y+3840000D01*
D29*
X-1794158Y+3804796D02*
X-1794158Y+3875204D01*
X-1860165Y+3875204D01*
X-1873367Y+3863469D01*
X-1873367Y+3851735D01*
X-1860165Y+3840000D01*
X-1794158Y+3840000D01*
X-1860165Y+3840000D02*
X-1873367Y+3828265D01*
X-1873367Y+3804796D01*
X-1912971Y+3863469D02*
X-1926173Y+3875204D01*
X-1965777Y+3875204D01*
X-1978979Y+3863469D01*
X-1978979Y+3851735D01*
X-1965777Y+3840000D01*
X-1978979Y+3828265D01*
X-1978979Y+3816531D01*
X-1965777Y+3804796D01*
X-1926173Y+3804796D01*
X-1912971Y+3816531D01*
X-1939374Y+3840000D02*
X-1965777Y+3840000D01*
D18*
X-4752080Y+3654500D02*
X-3725920Y+3654500D01*
X-3725920Y+4543500D01*
X-4752080Y+4543500D01*
X-4752080Y+3654500D01*
D72*
X-4620000Y+4480000D02*
X-4620000Y+4480000D01*
D73*
X-3998513Y+4134712D02*
X-3998513Y+4001108D01*
X-4028573Y+3974387D01*
X-4148817Y+3974387D01*
X-4178878Y+4001108D01*
X-4178878Y+4134712D01*
X-4299121Y+4081270D02*
X-4359243Y+4134712D01*
X-4359243Y+3974387D01*
D18*
X-1552080Y+1507920D02*
X-424320Y+1507920D01*
X-424320Y+3245280D01*
X-1552080Y+3245280D01*
X-1552080Y+1507920D01*
D30*
X-1470000Y+1590000D02*
X-1470000Y+1590000D01*
D31*
X-1115120Y+2052121D02*
X-861281Y+2052121D01*
X-988200Y+2194905D01*
X-861281Y+2337690D01*
X-1115120Y+2337690D01*
X-945894Y+2528069D02*
X-861281Y+2623259D01*
X-1115120Y+2623259D01*
D18*
X-4835080Y+1159920D02*
X-2224920Y+1159920D01*
X-2224920Y+3205080D01*
X-4835080Y+3205080D01*
X-4835080Y+1159920D01*
D23*
X-2430000Y+3070000D02*
X-2430000Y+3070000D01*
D32*
X-2647123Y+1893364D02*
X-2647123Y+2285755D01*
X-2941415Y+2285755D01*
X-3088561Y+2154958D01*
X-3088561Y+2024161D01*
X-2941415Y+1893364D01*
X-2647123Y+1893364D01*
X-3235708Y+1893364D02*
X-3235708Y+2285755D01*
X-3677146Y+2285755D01*
X-3235708Y+2089560D02*
X-3530000Y+2089560D01*
X-3971439Y+2154958D02*
X-4118585Y+2285755D01*
X-4118585Y+1893364D01*
D18*
X-1294080Y+454420D02*
X-487920Y+454420D01*
X-487920Y+845580D01*
X-1294080Y+845580D01*
X-1294080Y+454420D01*
D23*
X-620000Y+650000D02*
X-620000Y+650000D01*
D33*
X-940266Y+593768D02*
X-813744Y+593768D01*
X-813744Y+706232D01*
X-940266Y+706232D01*
X-813744Y+650000D02*
X-898092Y+650000D01*
X-982440Y+706232D02*
X-1108962Y+593768D01*
X-982440Y+593768D02*
X-1108962Y+706232D01*
D18*
X-3752080Y+454420D02*
X-3205920Y+454420D01*
X-3205920Y+845580D01*
X-3752080Y+845580D01*
X-3752080Y+454420D01*
D23*
X-3620000Y+650000D02*
X-3620000Y+650000D01*
D34*
X-3410317Y+547595D02*
X-3421696Y+560395D01*
X-3421696Y+611598D01*
X-3410317Y+624398D01*
X-3398939Y+624398D01*
X-3387560Y+611598D01*
X-3387560Y+560395D01*
X-3376182Y+547595D01*
X-3364804Y+547595D01*
X-3353425Y+560395D01*
X-3353425Y+611598D01*
X-3364804Y+624398D01*
X-3421696Y+650000D02*
X-3353425Y+650000D01*
X-3353425Y+714003D01*
X-3364804Y+726803D01*
X-3376182Y+726803D01*
X-3387560Y+714003D01*
X-3387560Y+650000D01*
M02*
