G04 PROTEUS GERBER X2 FILE*
%TF.GenerationSoftware,Labcenter,Proteus,8.15-SP1-Build34318*%
%TF.CreationDate,2023-09-30T11:40:31+00:00*%
%TF.FileFunction,AssemblyDrawing,Top*%
%TF.FilePolarity,Positive*%
%TF.Part,Single*%
%TF.SameCoordinates,{afa5550d-4e0f-4831-ab14-27b5fa56902b}*%
%FSLAX45Y45*%
%MOMM*%
G01*
%TA.AperFunction,Material*%
%ADD18C,0.101600*%
%ADD19C,1.016000*%
%ADD70C,0.231130*%
%TA.AperFunction,Profile*%
%ADD14C,0.101600*%
%TA.AperFunction,Material*%
%ADD71C,0.050000*%
%ADD20C,0.836710*%
%TD.AperFunction*%
D18*
X-511320Y+757080D02*
X-120160Y+757080D01*
X-120160Y+1803240D01*
X-511320Y+1803240D01*
X-511320Y+757080D01*
D19*
X-315740Y+889160D02*
X-315740Y+889160D01*
D70*
X-385082Y+1059563D02*
X-246398Y+1059563D01*
X-315740Y+1137572D01*
X-246398Y+1215581D01*
X-385082Y+1215581D01*
X-292626Y+1267588D02*
X-246398Y+1319594D01*
X-246398Y+1371600D01*
X-292626Y+1423606D01*
X-338854Y+1423606D01*
X-385082Y+1371600D01*
X-385082Y+1319594D01*
X-338854Y+1267588D01*
X-292626Y+1267588D01*
X-338854Y+1371600D02*
X-385082Y+1423606D01*
X-292626Y+1527619D02*
X-246398Y+1579625D01*
X-385082Y+1579625D01*
D18*
X-5695580Y+707920D02*
X-5304420Y+707920D01*
X-5304420Y+2004080D01*
X-5695580Y+2004080D01*
X-5695580Y+707920D01*
D19*
X-5500000Y+1090000D02*
X-5500000Y+1090000D01*
D70*
X-5430658Y+1286406D02*
X-5430658Y+1390418D01*
X-5430658Y+1338412D02*
X-5569342Y+1338412D01*
X-5569342Y+1286406D02*
X-5569342Y+1390418D01*
X-5430658Y+1624446D02*
X-5569342Y+1468428D01*
X-5476886Y+1676453D02*
X-5430658Y+1728459D01*
X-5430658Y+1780465D01*
X-5476886Y+1832471D01*
X-5523114Y+1832471D01*
X-5569342Y+1780465D01*
X-5569342Y+1728459D01*
X-5523114Y+1676453D01*
X-5476886Y+1676453D01*
D14*
X-5980000Y+153000D02*
X+130000Y+153000D01*
X+130000Y+2460500D01*
X-5980000Y+2460500D01*
X-5980000Y+153000D01*
D71*
X-673500Y+356000D02*
X-673500Y+2184000D01*
X-5041500Y+2184000D01*
X-5041500Y+356000D02*
X-673500Y+356000D01*
X-5041500Y+356000D02*
X-5041500Y+948000D01*
X-5231500Y+948000D01*
X-5231500Y+1595000D01*
X-5041500Y+1595000D01*
X-5041500Y+2184000D01*
D19*
X-1079500Y+508000D02*
X-1079500Y+508000D01*
D20*
X-2429110Y+1521013D02*
X-2429110Y+1102657D01*
X-2523240Y+1018986D01*
X-2899760Y+1018986D01*
X-2993890Y+1102657D01*
X-2993890Y+1521013D01*
X-3370410Y+1353671D02*
X-3558670Y+1521013D01*
X-3558670Y+1018986D01*
M02*
