  0
SECTION
  2
HEADER
  9
$ACADVER
  1
AC1009
  9
$INSUNITS
 70
     5
 9
$MEASUREMENT
 70
    1
  0
ENDSEC
  0
SECTION
  2
TABLES
  0
TABLE
  2
LAYER
 70
     8
  0
LAYER
  2
0
 62
     7
 70
0
  6
CONTINUOUS
  0
LAYER
  2
1
 62
     1
 70
0
  6
CONTINUOUS
  0
LAYER
  2
2
 62
     2
 70
0
  6
CONTINUOUS
  0
LAYER
  2
3
 62
     3
 70
0
  6
CONTINUOUS
  0
LAYER
  2
4
 62
     4
 70
0
  6
CONTINUOUS
  0
LAYER
  2
5
 62
     5
 70
0
  6
CONTINUOUS
  0
LAYER
  2
6
 62
     6
 70
0
  6
CONTINUOUS
  0
LAYER
  2
7
 62
     7
 70
0
  6
CONTINUOUS
  0
ENDTAB
  0
TABLE
  2
STYLE
 70
     1
  0
STYLE
 70
     0
  2
STANDARD
  3
TXT
 40
0.00
 41
1.00
 42
1.00
 50
0.00
 71
     0
  0
ENDTAB
  0
ENDSEC
  0
SECTION
  2
BLOCKS
  0
BLOCK
  8
0
  2
EPAD
 70
0
 10
0.0
 20
0.0
  0
POLYLINE
  8
0
 66
1
 70
1
 40
0.5
 41
0.5
  0
VERTEX
  8
0
 10
-0.25
 20
0.0
 42
1.0
  0
VERTEX
  8
0
 10
0.25
 20
0.0
 42
1.0
  0
SEQEND
  8
0
  0
ENDBLK
  8
0
  0
BLOCK
  8
0
  2
RPAD
 70
0
 10
0.0
 20
0.0
  0
TRACE
  8
0
 10
-0.5
 20
-0.5
 11
-0.5
 21
0.5
 12
0.5
 22
-0.5
 13
0.5
 23
0.5
  0
ENDBLK
  8
0
  0
ENDSEC
0
SECTION
2
ENTITIES
0
POLYLINE
8
0
66
1
70
1
40
0
41
0
0
VERTEX
8
0
10
0.176040
20
0.812780
0
VERTEX
8
0
10
0.176040
20
0.965540
0
VERTEX
8
0
10
0.213960
20
1.003460
0
VERTEX
8
0
10
0.417520
20
1.003460
0
VERTEX
8
0
10
0.455440
20
0.965540
0
VERTEX
8
0
10
0.455440
20
0.812780
0
VERTEX
8
0
10
0.417520
20
0.774860
0
VERTEX
8
0
10
0.213960
20
0.774860
0
VERTEX
8
0
10
0.176040
20
0.812780
0
SEQEND
8
0
0
POLYLINE
8
0
66
1
70
1
40
0
41
0
0
VERTEX
8
0
10
0.176040
20
1.066780
0
VERTEX
8
0
10
0.176040
20
1.219540
0
VERTEX
8
0
10
0.213960
20
1.257460
0
VERTEX
8
0
10
0.417520
20
1.257460
0
VERTEX
8
0
10
0.455440
20
1.219540
0
VERTEX
8
0
10
0.455440
20
1.066780
0
VERTEX
8
0
10
0.417520
20
1.028860
0
VERTEX
8
0
10
0.213960
20
1.028860
0
VERTEX
8
0
10
0.176040
20
1.066780
0
SEQEND
8
0
0
POLYLINE
8
0
66
1
70
1
40
0
41
0
0
VERTEX
8
0
10
0.176040
20
1.320780
0
VERTEX
8
0
10
0.176040
20
1.473540
0
VERTEX
8
0
10
0.213960
20
1.511460
0
VERTEX
8
0
10
0.417520
20
1.511460
0
VERTEX
8
0
10
0.455440
20
1.473540
0
VERTEX
8
0
10
0.455440
20
1.320780
0
VERTEX
8
0
10
0.417520
20
1.282860
0
VERTEX
8
0
10
0.213960
20
1.282860
0
VERTEX
8
0
10
0.176040
20
1.320780
0
SEQEND
8
0
0
POLYLINE
8
0
66
1
70
1
40
0
41
0
0
VERTEX
8
0
10
0.176040
20
1.574780
0
VERTEX
8
0
10
0.176040
20
1.727540
0
VERTEX
8
0
10
0.213960
20
1.765460
0
VERTEX
8
0
10
0.417520
20
1.765460
0
VERTEX
8
0
10
0.455440
20
1.727540
0
VERTEX
8
0
10
0.455440
20
1.574780
0
VERTEX
8
0
10
0.417520
20
1.536860
0
VERTEX
8
0
10
0.213960
20
1.536860
0
VERTEX
8
0
10
0.176040
20
1.574780
0
SEQEND
8
0
0
POLYLINE
8
0
66
1
70
1
40
0
41
0
0
VERTEX
8
0
10
5.360300
20
0.763620
0
VERTEX
8
0
10
5.360300
20
0.916380
0
VERTEX
8
0
10
5.398220
20
0.954300
0
VERTEX
8
0
10
5.601780
20
0.954300
0
VERTEX
8
0
10
5.639700
20
0.916380
0
VERTEX
8
0
10
5.639700
20
0.763620
0
VERTEX
8
0
10
5.601780
20
0.725700
0
VERTEX
8
0
10
5.398220
20
0.725700
0
VERTEX
8
0
10
5.360300
20
0.763620
0
SEQEND
8
0
0
POLYLINE
8
0
66
1
70
1
40
0
41
0
0
VERTEX
8
0
10
5.360300
20
1.013620
0
VERTEX
8
0
10
5.360300
20
1.166380
0
VERTEX
8
0
10
5.398220
20
1.204300
0
VERTEX
8
0
10
5.601780
20
1.204300
0
VERTEX
8
0
10
5.639700
20
1.166380
0
VERTEX
8
0
10
5.639700
20
1.013620
0
VERTEX
8
0
10
5.601780
20
0.975700
0
VERTEX
8
0
10
5.398220
20
0.975700
0
VERTEX
8
0
10
5.360300
20
1.013620
0
SEQEND
8
0
0
POLYLINE
8
0
66
1
70
1
40
0
41
0
0
VERTEX
8
0
10
5.360300
20
1.267620
0
VERTEX
8
0
10
5.360300
20
1.420380
0
VERTEX
8
0
10
5.398220
20
1.458300
0
VERTEX
8
0
10
5.601780
20
1.458300
0
VERTEX
8
0
10
5.639700
20
1.420380
0
VERTEX
8
0
10
5.639700
20
1.267620
0
VERTEX
8
0
10
5.601780
20
1.229700
0
VERTEX
8
0
10
5.398220
20
1.229700
0
VERTEX
8
0
10
5.360300
20
1.267620
0
SEQEND
8
0
0
POLYLINE
8
0
66
1
70
1
40
0
41
0
0
VERTEX
8
0
10
5.360300
20
1.521620
0
VERTEX
8
0
10
5.360300
20
1.674380
0
VERTEX
8
0
10
5.398220
20
1.712300
0
VERTEX
8
0
10
5.601780
20
1.712300
0
VERTEX
8
0
10
5.639700
20
1.674380
0
VERTEX
8
0
10
5.639700
20
1.521620
0
VERTEX
8
0
10
5.601780
20
1.483700
0
VERTEX
8
0
10
5.398220
20
1.483700
0
VERTEX
8
0
10
5.360300
20
1.521620
0
SEQEND
8
0
0
POLYLINE
8
0
66
1
70
1
40
0
41
0
0
VERTEX
8
0
10
5.360300
20
1.775620
0
VERTEX
8
0
10
5.360300
20
1.928380
0
VERTEX
8
0
10
5.398220
20
1.966300
0
VERTEX
8
0
10
5.601780
20
1.966300
0
VERTEX
8
0
10
5.639700
20
1.928380
0
VERTEX
8
0
10
5.639700
20
1.775620
0
VERTEX
8
0
10
5.601780
20
1.737700
0
VERTEX
8
0
10
5.398220
20
1.737700
0
VERTEX
8
0
10
5.360300
20
1.775620
0
SEQEND
8
0
0
POLYLINE
8
0
66
1
70
1
40
0
41
0
0
VERTEX
8
0
10
1.003120
20
0.647700
0
VERTEX
8
0
10
1.155880
20
0.647700
0
VERTEX
8
0
10
1.193800
20
0.609780
0
VERTEX
8
0
10
1.193800
20
0.406220
0
VERTEX
8
0
10
1.155880
20
0.368300
0
VERTEX
8
0
10
1.003120
20
0.368300
0
VERTEX
8
0
10
0.965200
20
0.406220
0
VERTEX
8
0
10
0.965200
20
0.609780
0
VERTEX
8
0
10
1.003120
20
0.647700
0
SEQEND
8
0
0
POLYLINE
8
0
66
1
70
1
40
0
41
0
0
VERTEX
8
0
10
1.257120
20
0.647700
0
VERTEX
8
0
10
1.409880
20
0.647700
0
VERTEX
8
0
10
1.447800
20
0.609780
0
VERTEX
8
0
10
1.447800
20
0.406220
0
VERTEX
8
0
10
1.409880
20
0.368300
0
VERTEX
8
0
10
1.257120
20
0.368300
0
VERTEX
8
0
10
1.219200
20
0.406220
0
VERTEX
8
0
10
1.219200
20
0.609780
0
VERTEX
8
0
10
1.257120
20
0.647700
0
SEQEND
8
0
0
POLYLINE
8
0
66
1
70
1
40
0
41
0
0
VERTEX
8
0
10
1.765120
20
0.647700
0
VERTEX
8
0
10
1.917880
20
0.647700
0
VERTEX
8
0
10
1.955800
20
0.609780
0
VERTEX
8
0
10
1.955800
20
0.406220
0
VERTEX
8
0
10
1.917880
20
0.368300
0
VERTEX
8
0
10
1.765120
20
0.368300
0
VERTEX
8
0
10
1.727200
20
0.406220
0
VERTEX
8
0
10
1.727200
20
0.609780
0
VERTEX
8
0
10
1.765120
20
0.647700
0
SEQEND
8
0
0
POLYLINE
8
0
66
1
70
1
40
0
41
0
0
VERTEX
8
0
10
2.273120
20
0.647700
0
VERTEX
8
0
10
2.425880
20
0.647700
0
VERTEX
8
0
10
2.463800
20
0.609780
0
VERTEX
8
0
10
2.463800
20
0.406220
0
VERTEX
8
0
10
2.425880
20
0.368300
0
VERTEX
8
0
10
2.273120
20
0.368300
0
VERTEX
8
0
10
2.235200
20
0.406220
0
VERTEX
8
0
10
2.235200
20
0.609780
0
VERTEX
8
0
10
2.273120
20
0.647700
0
SEQEND
8
0
0
POLYLINE
8
0
66
1
70
1
40
0
41
0
0
VERTEX
8
0
10
4.559120
20
0.647700
0
VERTEX
8
0
10
4.711880
20
0.647700
0
VERTEX
8
0
10
4.749800
20
0.609780
0
VERTEX
8
0
10
4.749800
20
0.406220
0
VERTEX
8
0
10
4.711880
20
0.368300
0
VERTEX
8
0
10
4.559120
20
0.368300
0
VERTEX
8
0
10
4.521200
20
0.406220
0
VERTEX
8
0
10
4.521200
20
0.609780
0
VERTEX
8
0
10
4.559120
20
0.647700
0
SEQEND
8
0
0
POLYLINE
8
0
66
1
70
1
40
0
41
0
0
VERTEX
8
0
10
4.305120
20
2.171700
0
VERTEX
8
0
10
4.457880
20
2.171700
0
VERTEX
8
0
10
4.495800
20
2.133780
0
VERTEX
8
0
10
4.495800
20
1.930220
0
VERTEX
8
0
10
4.457880
20
1.892300
0
VERTEX
8
0
10
4.305120
20
1.892300
0
VERTEX
8
0
10
4.267200
20
1.930220
0
VERTEX
8
0
10
4.267200
20
2.133780
0
VERTEX
8
0
10
4.305120
20
2.171700
0
SEQEND
8
0
0
POLYLINE
8
0
66
1
70
1
40
0
41
0
0
VERTEX
8
0
10
3.797120
20
2.171700
0
VERTEX
8
0
10
3.949880
20
2.171700
0
VERTEX
8
0
10
3.987800
20
2.133780
0
VERTEX
8
0
10
3.987800
20
1.930220
0
VERTEX
8
0
10
3.949880
20
1.892300
0
VERTEX
8
0
10
3.797120
20
1.892300
0
VERTEX
8
0
10
3.759200
20
1.930220
0
VERTEX
8
0
10
3.759200
20
2.133780
0
VERTEX
8
0
10
3.797120
20
2.171700
0
SEQEND
8
0
0
POLYLINE
8
0
66
1
70
1
40
0
41
0
0
VERTEX
8
0
10
2.781120
20
2.171700
0
VERTEX
8
0
10
2.933880
20
2.171700
0
VERTEX
8
0
10
2.971800
20
2.133780
0
VERTEX
8
0
10
2.971800
20
1.930220
0
VERTEX
8
0
10
2.933880
20
1.892300
0
VERTEX
8
0
10
2.781120
20
1.892300
0
VERTEX
8
0
10
2.743200
20
1.930220
0
VERTEX
8
0
10
2.743200
20
2.133780
0
VERTEX
8
0
10
2.781120
20
2.171700
0
SEQEND
8
0
0
POLYLINE
8
0
66
1
70
1
40
0
41
0
0
VERTEX
8
0
10
2.527120
20
2.171700
0
VERTEX
8
0
10
2.679880
20
2.171700
0
VERTEX
8
0
10
2.717800
20
2.133780
0
VERTEX
8
0
10
2.717800
20
1.930220
0
VERTEX
8
0
10
2.679880
20
1.892300
0
VERTEX
8
0
10
2.527120
20
1.892300
0
VERTEX
8
0
10
2.489200
20
1.930220
0
VERTEX
8
0
10
2.489200
20
2.133780
0
VERTEX
8
0
10
2.527120
20
2.171700
0
SEQEND
8
0
0
POLYLINE
8
0
66
1
70
1
40
0
41
0
0
VERTEX
8
0
10
1.765120
20
2.171700
0
VERTEX
8
0
10
1.917880
20
2.171700
0
VERTEX
8
0
10
1.955800
20
2.133780
0
VERTEX
8
0
10
1.955800
20
1.930220
0
VERTEX
8
0
10
1.917880
20
1.892300
0
VERTEX
8
0
10
1.765120
20
1.892300
0
VERTEX
8
0
10
1.727200
20
1.930220
0
VERTEX
8
0
10
1.727200
20
2.133780
0
VERTEX
8
0
10
1.765120
20
2.171700
0
SEQEND
8
0
0
POLYLINE
8
0
66
1
70
1
40
0
41
0
0
VERTEX
8
0
10
1.257120
20
2.171700
0
VERTEX
8
0
10
1.409880
20
2.171700
0
VERTEX
8
0
10
1.447800
20
2.133780
0
VERTEX
8
0
10
1.447800
20
1.930220
0
VERTEX
8
0
10
1.409880
20
1.892300
0
VERTEX
8
0
10
1.257120
20
1.892300
0
VERTEX
8
0
10
1.219200
20
1.930220
0
VERTEX
8
0
10
1.219200
20
2.133780
0
VERTEX
8
0
10
1.257120
20
2.171700
0
SEQEND
8
0
0
POLYLINE
8
0
66
1
70
1
40
0
41
0
0
VERTEX
8
0
10
1.003120
20
2.171700
0
VERTEX
8
0
10
1.155880
20
2.171700
0
VERTEX
8
0
10
1.193800
20
2.133780
0
VERTEX
8
0
10
1.193800
20
1.930220
0
VERTEX
8
0
10
1.155880
20
1.892300
0
VERTEX
8
0
10
1.003120
20
1.892300
0
VERTEX
8
0
10
0.965200
20
1.930220
0
VERTEX
8
0
10
0.965200
20
2.133780
0
VERTEX
8
0
10
1.003120
20
2.171700
0
SEQEND
8
0
0
INSERT
8
0
2
EPAD
10
0.080000
20
2.250000
41
0.355600
42
0.355600
0
INSERT
8
0
2
EPAD
10
5.760000
20
2.240000
41
0.355600
42
0.355600
0
INSERT
8
0
2
EPAD
10
5.770000
20
0.360000
41
0.355600
42
0.355600
0
INSERT
8
0
2
EPAD
10
0.080000
20
0.350000
41
0.355600
42
0.355600
0
POLYLINE
8
0
66
1
40
0.010160
41
0.010160
0
VERTEX
8
0
10
0.125240
20
0.762160
0
VERTEX
8
0
10
0.506240
20
0.762160
0
VERTEX
8
0
10
0.506240
20
1.798160
0
VERTEX
8
0
10
0.125240
20
1.798160
0
VERTEX
8
0
10
0.125240
20
0.762160
0
SEQEND
8
0
0
TEXT
8
0
10
0.107460
20
1.120140
40
0.101600
41
1.050000
50
90.000000
1
MQ1
0
POLYLINE
8
0
66
1
40
0.010160
41
0.010160
0
VERTEX
8
0
10
5.309500
20
0.713000
0
VERTEX
8
0
10
5.690500
20
0.713000
0
VERTEX
8
0
10
5.690500
20
1.999000
0
VERTEX
8
0
10
5.309500
20
1.999000
0
VERTEX
8
0
10
5.309500
20
0.713000
0
SEQEND
8
0
0
TEXT
8
0
10
5.339980
20
0.593620
40
0.101600
41
1.050000
1
I/O
0
POLYLINE
8
0
66
1
40
0.010160
41
0.010160
0
VERTEX
8
0
10
-0.130000
20
0.153000
0
VERTEX
8
0
10
5.980000
20
0.153000
0
VERTEX
8
0
10
5.980000
20
2.460500
0
VERTEX
8
0
10
-0.130000
20
2.460500
0
VERTEX
8
0
10
-0.130000
20
0.153000
0
SEQEND
8
0
0
POLYLINE
8
0
66
1
40
0.010160
41
0.010160
0
VERTEX
8
0
10
-0.130000
20
0.173000
0
VERTEX
8
0
10
5.970000
20
0.173000
0
VERTEX
8
0
10
5.970000
20
2.470340
0
VERTEX
8
0
10
-0.130000
20
2.470340
0
VERTEX
8
0
10
-0.130000
20
0.173000
0
SEQEND
8
0
0
CIRCLE
8
0
10
1.077500
20
0.250000
40
0.010000
0
POLYLINE
8
0
66
1
40
0.012700
41
0.012700
0
VERTEX
8
0
10
0.698500
20
0.381000
0
VERTEX
8
0
10
0.698500
20
2.159000
0
VERTEX
8
0
10
5.016500
20
2.159000
0
VERTEX
8
0
10
5.016500
20
0.381000
0
VERTEX
8
0
10
0.698500
20
0.381000
0
SEQEND
8
0
0
TEXT
8
0
10
2.845820
20
2.178050
40
0.101600
41
1.050000
1
U1
0
CIRCLE
8
0
10
-0.940000
20
1.270000
40
0.800000
0
POLYLINE
8
0
66
1
40
0.010160
41
0.010160
0
VERTEX
8
0
10
-2.040000
20
0.320000
0
VERTEX
8
0
10
-1.740000
20
0.320000
0
VERTEX
8
0
10
-1.740000
20
2.220000
0
VERTEX
8
0
10
-2.040000
20
2.220000
0
VERTEX
8
0
10
-2.040000
20
0.320000
0
SEQEND
8
0
0
POLYLINE
8
0
66
1
40
0.010160
41
0.010160
0
VERTEX
8
0
10
-1.740000
20
0.320000
0
VERTEX
8
0
10
-0.120000
20
0.320000
0
VERTEX
8
0
10
-0.120000
20
2.220000
0
VERTEX
8
0
10
-1.740000
20
2.220000
0
VERTEX
8
0
10
-1.740000
20
0.320000
0
SEQEND
8
0
0
POLYLINE
8
0
66
1
40
0.010160
41
0.010160
0
VERTEX
8
0
10
-2.040000
20
0.320000
0
VERTEX
8
0
10
-0.130000
20
0.320000
0
VERTEX
8
0
10
-0.130000
20
2.220000
0
VERTEX
8
0
10
-2.040000
20
2.220000
0
VERTEX
8
0
10
-2.040000
20
0.320000
0
SEQEND
8
0
0
CIRCLE
8
0
10
-0.940000
20
1.270000
40
0.800000
0
POLYLINE
8
0
66
1
40
0.101600
41
0.101600
0
VERTEX
8
0
10
2.349500
20
0.508000
0
VERTEX
8
0
10
2.349500
20
0.840000
0
VERTEX
8
0
10
5.500000
20
0.840000
0
SEQEND
8
0
0
POLYLINE
8
0
66
1
40
0.101600
41
0.101600
0
VERTEX
8
0
10
5.500000
20
1.090000
0
VERTEX
8
0
10
1.524000
20
1.090000
0
VERTEX
8
0
10
1.333500
20
0.899500
0
VERTEX
8
0
10
1.333500
20
0.508000
0
SEQEND
8
0
0
POLYLINE
8
0
66
1
40
0.101600
41
0.101600
0
VERTEX
8
0
10
1.079500
20
0.508000
0
VERTEX
8
0
10
1.079500
20
1.143000
0
VERTEX
8
0
10
1.280500
20
1.344000
0
VERTEX
8
0
10
5.500000
20
1.344000
0
SEQEND
8
0
0
POLYLINE
8
0
66
1
40
0.101600
41
0.101600
0
VERTEX
8
0
10
0.315740
20
1.651160
0
VERTEX
8
0
10
0.315740
20
1.855740
0
VERTEX
8
0
10
0.746000
20
2.286000
0
VERTEX
8
0
10
1.333500
20
2.286000
0
VERTEX
8
0
10
3.873500
20
2.286000
0
VERTEX
8
0
10
3.873500
20
2.032000
0
SEQEND
8
0
0
POLYLINE
8
0
66
1
40
0.101600
41
0.101600
0
VERTEX
8
0
10
0.315740
20
0.889160
0
VERTEX
8
0
10
0.632649
20
0.889160
0
VERTEX
8
0
10
0.889000
20
1.145511
0
VERTEX
8
0
10
1.253489
20
1.510000
0
SEQEND
8
0
0
POLYLINE
8
0
66
1
40
0.101600
41
0.101600
0
VERTEX
8
0
10
0.632649
20
0.889160
0
VERTEX
8
0
10
0.635160
20
0.889160
0
VERTEX
8
0
10
0.889000
20
1.143000
0
VERTEX
8
0
10
0.889000
20
1.145511
0
SEQEND
8
0
0
POLYLINE
8
0
66
1
40
0.101600
41
0.101600
0
VERTEX
8
0
10
1.840000
20
1.510000
0
VERTEX
8
0
10
1.840000
20
2.030500
0
VERTEX
8
0
10
1.841500
20
2.032000
0
SEQEND
8
0
0
POLYLINE
8
0
66
1
40
0.101600
41
0.101600
0
VERTEX
8
0
10
1.253489
20
1.510000
0
VERTEX
8
0
10
1.840000
20
1.510000
0
VERTEX
8
0
10
5.160000
20
1.510000
0
VERTEX
8
0
10
5.210000
20
1.560000
0
VERTEX
8
0
10
5.462000
20
1.560000
0
VERTEX
8
0
10
5.500000
20
1.598000
0
SEQEND
8
0
0
POLYLINE
8
0
66
1
40
0.101600
41
0.101600
0
VERTEX
8
0
10
0.315740
20
1.143160
0
VERTEX
8
0
10
0.104778
20
1.143160
0
VERTEX
8
0
10
0.030000
20
1.068382
0
VERTEX
8
0
10
0.030000
20
0.730000
0
VERTEX
8
0
10
0.510000
20
0.250000
0
VERTEX
8
0
10
1.583500
20
0.250000
0
VERTEX
8
0
10
1.841500
20
0.508000
0
VERTEX
8
0
10
2.099500
20
0.250000
0
VERTEX
8
0
10
5.299999
20
0.250000
0
VERTEX
8
0
10
5.810000
20
0.760001
0
VERTEX
8
0
10
5.810000
20
1.700000
0
VERTEX
8
0
10
5.662968
20
1.847032
0
VERTEX
8
0
10
5.554227
20
1.847032
0
VERTEX
8
0
10
5.500000
20
1.852000
0
SEQEND
8
0
0
POLYLINE
8
0
66
1
40
0.101600
41
0.101600
0
VERTEX
8
0
10
5.467901
20
2.119009
0
VERTEX
8
0
10
5.493611
20
2.093299
0
VERTEX
8
0
10
5.233301
20
2.093299
0
VERTEX
8
0
10
5.233301
20
1.750499
0
VERTEX
8
0
10
5.131093
20
1.750499
0
VERTEX
8
0
10
5.081093
20
1.700499
0
VERTEX
8
0
10
2.030499
20
1.700499
0
VERTEX
8
0
10
2.030499
20
1.765301
0
VERTEX
8
0
10
2.082799
20
1.765301
0
VERTEX
8
0
10
2.082799
20
2.095501
0
VERTEX
8
0
10
2.362201
20
2.095501
0
VERTEX
8
0
10
2.362201
20
1.765301
0
VERTEX
8
0
10
3.098799
20
1.765301
0
VERTEX
8
0
10
3.098799
20
2.095501
0
VERTEX
8
0
10
3.632201
20
2.095501
0
VERTEX
8
0
10
3.632201
20
1.765301
0
VERTEX
8
0
10
4.114799
20
1.765301
0
VERTEX
8
0
10
4.114799
20
2.298699
0
VERTEX
8
0
10
4.063999
20
2.298699
0
VERTEX
8
0
10
4.063999
20
2.315720
0
VERTEX
8
0
10
5.467901
20
2.315720
0
VERTEX
8
0
10
5.467901
20
2.119009
0
SEQEND
8
0
0
POLYLINE
8
0
66
1
40
0.101600
41
0.101600
0
VERTEX
8
0
10
4.140201
20
2.298699
0
VERTEX
8
0
10
4.622799
20
2.298699
0
VERTEX
8
0
10
4.622799
20
1.765301
0
VERTEX
8
0
10
4.140201
20
1.765301
0
VERTEX
8
0
10
4.140201
20
2.298699
0
SEQEND
8
0
0
POLYLINE
8
0
66
1
40
0.101600
41
0.101600
0
VERTEX
8
0
10
5.835220
20
0.652099
0
VERTEX
8
0
10
5.766699
20
0.652099
0
VERTEX
8
0
10
5.766699
20
1.947901
0
VERTEX
8
0
10
5.835220
20
1.947901
0
VERTEX
8
0
10
5.835220
20
0.652099
0
SEQEND
8
0
0
POLYLINE
8
0
66
1
40
0.101600
41
0.101600
0
VERTEX
8
0
10
2.159001
20
0.774699
0
VERTEX
8
0
10
2.108201
20
0.774699
0
VERTEX
8
0
10
2.108201
20
0.297780
0
VERTEX
8
0
10
2.082799
20
0.297780
0
VERTEX
8
0
10
2.082799
20
0.774699
0
VERTEX
8
0
10
1.600201
20
0.774699
0
VERTEX
8
0
10
1.600201
20
0.297780
0
VERTEX
8
0
10
1.574799
20
0.297780
0
VERTEX
8
0
10
1.574799
20
0.774699
0
VERTEX
8
0
10
1.523999
20
0.774699
0
VERTEX
8
0
10
1.523999
20
0.820593
0
VERTEX
8
0
10
1.602907
20
0.899501
0
VERTEX
8
0
10
2.159001
20
0.899501
0
VERTEX
8
0
10
2.159001
20
0.774699
0
SEQEND
8
0
0
POLYLINE
8
0
66
1
40
0.101600
41
0.101600
0
VERTEX
8
0
10
0.125241
20
1.934647
0
VERTEX
8
0
10
0.125241
20
1.892459
0
VERTEX
8
0
10
0.049041
20
1.892459
0
VERTEX
8
0
10
0.049041
20
0.647861
0
VERTEX
8
0
10
0.582439
20
0.647861
0
VERTEX
8
0
10
0.582439
20
0.698661
0
VERTEX
8
0
10
0.714067
20
0.698661
0
VERTEX
8
0
10
0.889001
20
0.873595
0
VERTEX
8
0
10
0.889001
20
0.774699
0
VERTEX
8
0
10
0.838201
20
0.774699
0
VERTEX
8
0
10
0.838201
20
0.297780
0
VERTEX
8
0
10
0.372099
20
0.297780
0
VERTEX
8
0
10
0.372099
20
0.470991
0
VERTEX
8
0
10
0.200991
20
0.642099
0
VERTEX
8
0
10
0.014780
20
0.642099
0
VERTEX
8
0
10
0.014780
20
1.957901
0
VERTEX
8
0
10
0.148495
20
1.957901
0
VERTEX
8
0
10
0.125241
20
1.934647
0
SEQEND
8
0
0
POLYLINE
8
0
66
1
40
0.101600
41
0.101600
0
VERTEX
8
0
10
1.600201
20
1.765301
0
VERTEX
8
0
10
1.649501
20
1.765301
0
VERTEX
8
0
10
1.649501
20
1.700499
0
VERTEX
8
0
10
1.174582
20
1.700499
0
VERTEX
8
0
10
0.582439
20
1.108356
0
VERTEX
8
0
10
0.582439
20
1.853033
0
VERTEX
8
0
10
0.824907
20
2.095501
0
VERTEX
8
0
10
0.838201
20
2.095501
0
VERTEX
8
0
10
0.838201
20
1.765301
0
VERTEX
8
0
10
1.574799
20
1.765301
0
VERTEX
8
0
10
1.574799
20
2.095501
0
VERTEX
8
0
10
1.600201
20
2.095501
0
VERTEX
8
0
10
1.600201
20
1.765301
0
SEQEND
8
0
0
POLYLINE
8
0
66
1
40
0.101600
41
0.101600
0
VERTEX
8
0
10
0.531639
20
1.143160
0
VERTEX
8
0
10
0.315740
20
1.143160
0
SEQEND
8
0
0
POLYLINE
8
0
66
1
40
0.101600
41
0.101600
0
VERTEX
8
0
10
0.099841
20
1.143160
0
VERTEX
8
0
10
0.315740
20
1.143160
0
SEQEND
8
0
0
POLYLINE
8
0
66
1
40
0.101600
41
0.101600
0
VERTEX
8
0
10
5.715899
20
1.852000
0
VERTEX
8
0
10
5.500000
20
1.852000
0
SEQEND
8
0
0
POLYLINE
8
0
66
1
40
0.101600
41
0.101600
0
VERTEX
8
0
10
5.284101
20
1.852000
0
VERTEX
8
0
10
5.500000
20
1.852000
0
SEQEND
8
0
0
POLYLINE
8
0
66
1
40
0.101600
41
0.101600
0
VERTEX
8
0
10
2.031999
20
0.508000
0
VERTEX
8
0
10
1.841500
20
0.508000
0
SEQEND
8
0
0
POLYLINE
8
0
66
1
40
0.101600
41
0.101600
0
VERTEX
8
0
10
1.841500
20
0.723899
0
VERTEX
8
0
10
1.841500
20
0.508000
0
SEQEND
8
0
0
POLYLINE
8
0
66
1
40
0.101600
41
0.101600
0
VERTEX
8
0
10
1.651001
20
0.508000
0
VERTEX
8
0
10
1.841500
20
0.508000
0
SEQEND
8
0
0
POLYLINE
8
0
66
1
70
1
40
0
41
0
0
VERTEX
8
0
10
0.219220
20
0.787560
0
VERTEX
8
0
10
0.188740
20
0.818040
0
VERTEX
8
0
10
0.188740
20
0.960280
0
VERTEX
8
0
10
0.219220
20
0.990760
0
VERTEX
8
0
10
0.412260
20
0.990760
0
VERTEX
8
0
10
0.442740
20
0.960280
0
VERTEX
8
0
10
0.442740
20
0.818040
0
VERTEX
8
0
10
0.412260
20
0.787560
0
VERTEX
8
0
10
0.219220
20
0.787560
0
SEQEND
8
0
0
CIRCLE
8
0
10
0.315740
20
0.889160
40
0.100000
0
POLYLINE
8
0
66
1
70
1
40
0
41
0
0
VERTEX
8
0
10
0.219220
20
1.041560
0
VERTEX
8
0
10
0.188740
20
1.072040
0
VERTEX
8
0
10
0.188740
20
1.214280
0
VERTEX
8
0
10
0.219220
20
1.244760
0
VERTEX
8
0
10
0.412260
20
1.244760
0
VERTEX
8
0
10
0.442740
20
1.214280
0
VERTEX
8
0
10
0.442740
20
1.072040
0
VERTEX
8
0
10
0.412260
20
1.041560
0
VERTEX
8
0
10
0.219220
20
1.041560
0
SEQEND
8
0
0
CIRCLE
8
0
10
0.315740
20
1.143160
40
0.100000
0
POLYLINE
8
0
66
1
70
1
40
0
41
0
0
VERTEX
8
0
10
0.219220
20
1.295560
0
VERTEX
8
0
10
0.188740
20
1.326040
0
VERTEX
8
0
10
0.188740
20
1.468280
0
VERTEX
8
0
10
0.219220
20
1.498760
0
VERTEX
8
0
10
0.412260
20
1.498760
0
VERTEX
8
0
10
0.442740
20
1.468280
0
VERTEX
8
0
10
0.442740
20
1.326040
0
VERTEX
8
0
10
0.412260
20
1.295560
0
VERTEX
8
0
10
0.219220
20
1.295560
0
SEQEND
8
0
0
CIRCLE
8
0
10
0.315740
20
1.397160
40
0.100000
0
POLYLINE
8
0
66
1
70
1
40
0
41
0
0
VERTEX
8
0
10
0.219220
20
1.549560
0
VERTEX
8
0
10
0.188740
20
1.580040
0
VERTEX
8
0
10
0.188740
20
1.722280
0
VERTEX
8
0
10
0.219220
20
1.752760
0
VERTEX
8
0
10
0.412260
20
1.752760
0
VERTEX
8
0
10
0.442740
20
1.722280
0
VERTEX
8
0
10
0.442740
20
1.580040
0
VERTEX
8
0
10
0.412260
20
1.549560
0
VERTEX
8
0
10
0.219220
20
1.549560
0
SEQEND
8
0
0
CIRCLE
8
0
10
0.315740
20
1.651160
40
0.100000
0
POLYLINE
8
0
66
1
70
1
40
0
41
0
0
VERTEX
8
0
10
5.403480
20
0.738400
0
VERTEX
8
0
10
5.373000
20
0.768880
0
VERTEX
8
0
10
5.373000
20
0.911120
0
VERTEX
8
0
10
5.403480
20
0.941600
0
VERTEX
8
0
10
5.596520
20
0.941600
0
VERTEX
8
0
10
5.627000
20
0.911120
0
VERTEX
8
0
10
5.627000
20
0.768880
0
VERTEX
8
0
10
5.596520
20
0.738400
0
VERTEX
8
0
10
5.403480
20
0.738400
0
SEQEND
8
0
0
CIRCLE
8
0
10
5.500000
20
0.840000
40
0.100000
0
POLYLINE
8
0
66
1
70
1
40
0
41
0
0
VERTEX
8
0
10
5.403480
20
0.988400
0
VERTEX
8
0
10
5.373000
20
1.018880
0
VERTEX
8
0
10
5.373000
20
1.161120
0
VERTEX
8
0
10
5.403480
20
1.191600
0
VERTEX
8
0
10
5.596520
20
1.191600
0
VERTEX
8
0
10
5.627000
20
1.161120
0
VERTEX
8
0
10
5.627000
20
1.018880
0
VERTEX
8
0
10
5.596520
20
0.988400
0
VERTEX
8
0
10
5.403480
20
0.988400
0
SEQEND
8
0
0
CIRCLE
8
0
10
5.500000
20
1.090000
40
0.100000
0
POLYLINE
8
0
66
1
70
1
40
0
41
0
0
VERTEX
8
0
10
5.403480
20
1.242400
0
VERTEX
8
0
10
5.373000
20
1.272880
0
VERTEX
8
0
10
5.373000
20
1.415120
0
VERTEX
8
0
10
5.403480
20
1.445600
0
VERTEX
8
0
10
5.596520
20
1.445600
0
VERTEX
8
0
10
5.627000
20
1.415120
0
VERTEX
8
0
10
5.627000
20
1.272880
0
VERTEX
8
0
10
5.596520
20
1.242400
0
VERTEX
8
0
10
5.403480
20
1.242400
0
SEQEND
8
0
0
CIRCLE
8
0
10
5.500000
20
1.344000
40
0.100000
0
POLYLINE
8
0
66
1
70
1
40
0
41
0
0
VERTEX
8
0
10
5.403480
20
1.496400
0
VERTEX
8
0
10
5.373000
20
1.526880
0
VERTEX
8
0
10
5.373000
20
1.669120
0
VERTEX
8
0
10
5.403480
20
1.699600
0
VERTEX
8
0
10
5.596520
20
1.699600
0
VERTEX
8
0
10
5.627000
20
1.669120
0
VERTEX
8
0
10
5.627000
20
1.526880
0
VERTEX
8
0
10
5.596520
20
1.496400
0
VERTEX
8
0
10
5.403480
20
1.496400
0
SEQEND
8
0
0
CIRCLE
8
0
10
5.500000
20
1.598000
40
0.100000
0
POLYLINE
8
0
66
1
70
1
40
0
41
0
0
VERTEX
8
0
10
5.403480
20
1.750400
0
VERTEX
8
0
10
5.373000
20
1.780880
0
VERTEX
8
0
10
5.373000
20
1.923120
0
VERTEX
8
0
10
5.403480
20
1.953600
0
VERTEX
8
0
10
5.596520
20
1.953600
0
VERTEX
8
0
10
5.627000
20
1.923120
0
VERTEX
8
0
10
5.627000
20
1.780880
0
VERTEX
8
0
10
5.596520
20
1.750400
0
VERTEX
8
0
10
5.403480
20
1.750400
0
SEQEND
8
0
0
CIRCLE
8
0
10
5.500000
20
1.852000
40
0.100000
0
POLYLINE
8
0
66
1
70
1
40
0
41
0
0
VERTEX
8
0
10
0.977900
20
0.604520
0
VERTEX
8
0
10
1.008380
20
0.635000
0
VERTEX
8
0
10
1.150620
20
0.635000
0
VERTEX
8
0
10
1.181100
20
0.604520
0
VERTEX
8
0
10
1.181100
20
0.411480
0
VERTEX
8
0
10
1.150620
20
0.381000
0
VERTEX
8
0
10
1.008380
20
0.381000
0
VERTEX
8
0
10
0.977900
20
0.411480
0
VERTEX
8
0
10
0.977900
20
0.604520
0
SEQEND
8
0
0
CIRCLE
8
0
10
1.079500
20
0.508000
40
0.100000
0
POLYLINE
8
0
66
1
70
1
40
0
41
0
0
VERTEX
8
0
10
1.231900
20
0.604520
0
VERTEX
8
0
10
1.262380
20
0.635000
0
VERTEX
8
0
10
1.404620
20
0.635000
0
VERTEX
8
0
10
1.435100
20
0.604520
0
VERTEX
8
0
10
1.435100
20
0.411480
0
VERTEX
8
0
10
1.404620
20
0.381000
0
VERTEX
8
0
10
1.262380
20
0.381000
0
VERTEX
8
0
10
1.231900
20
0.411480
0
VERTEX
8
0
10
1.231900
20
0.604520
0
SEQEND
8
0
0
CIRCLE
8
0
10
1.333500
20
0.508000
40
0.100000
0
POLYLINE
8
0
66
1
70
1
40
0
41
0
0
VERTEX
8
0
10
1.739900
20
0.604520
0
VERTEX
8
0
10
1.770380
20
0.635000
0
VERTEX
8
0
10
1.912620
20
0.635000
0
VERTEX
8
0
10
1.943100
20
0.604520
0
VERTEX
8
0
10
1.943100
20
0.411480
0
VERTEX
8
0
10
1.912620
20
0.381000
0
VERTEX
8
0
10
1.770380
20
0.381000
0
VERTEX
8
0
10
1.739900
20
0.411480
0
VERTEX
8
0
10
1.739900
20
0.604520
0
SEQEND
8
0
0
CIRCLE
8
0
10
1.841500
20
0.508000
40
0.100000
0
POLYLINE
8
0
66
1
70
1
40
0
41
0
0
VERTEX
8
0
10
2.247900
20
0.604520
0
VERTEX
8
0
10
2.278380
20
0.635000
0
VERTEX
8
0
10
2.420620
20
0.635000
0
VERTEX
8
0
10
2.451100
20
0.604520
0
VERTEX
8
0
10
2.451100
20
0.411480
0
VERTEX
8
0
10
2.420620
20
0.381000
0
VERTEX
8
0
10
2.278380
20
0.381000
0
VERTEX
8
0
10
2.247900
20
0.411480
0
VERTEX
8
0
10
2.247900
20
0.604520
0
SEQEND
8
0
0
CIRCLE
8
0
10
2.349500
20
0.508000
40
0.100000
0
POLYLINE
8
0
66
1
70
1
40
0
41
0
0
VERTEX
8
0
10
4.533900
20
0.604520
0
VERTEX
8
0
10
4.564380
20
0.635000
0
VERTEX
8
0
10
4.706620
20
0.635000
0
VERTEX
8
0
10
4.737100
20
0.604520
0
VERTEX
8
0
10
4.737100
20
0.411480
0
VERTEX
8
0
10
4.706620
20
0.381000
0
VERTEX
8
0
10
4.564380
20
0.381000
0
VERTEX
8
0
10
4.533900
20
0.411480
0
VERTEX
8
0
10
4.533900
20
0.604520
0
SEQEND
8
0
0
CIRCLE
8
0
10
4.635500
20
0.508000
40
0.100000
0
POLYLINE
8
0
66
1
70
1
40
0
41
0
0
VERTEX
8
0
10
4.279900
20
2.128520
0
VERTEX
8
0
10
4.310380
20
2.159000
0
VERTEX
8
0
10
4.452620
20
2.159000
0
VERTEX
8
0
10
4.483100
20
2.128520
0
VERTEX
8
0
10
4.483100
20
1.935480
0
VERTEX
8
0
10
4.452620
20
1.905000
0
VERTEX
8
0
10
4.310380
20
1.905000
0
VERTEX
8
0
10
4.279900
20
1.935480
0
VERTEX
8
0
10
4.279900
20
2.128520
0
SEQEND
8
0
0
CIRCLE
8
0
10
4.381500
20
2.032000
40
0.100000
0
POLYLINE
8
0
66
1
70
1
40
0
41
0
0
VERTEX
8
0
10
3.771900
20
2.128520
0
VERTEX
8
0
10
3.802380
20
2.159000
0
VERTEX
8
0
10
3.944620
20
2.159000
0
VERTEX
8
0
10
3.975100
20
2.128520
0
VERTEX
8
0
10
3.975100
20
1.935480
0
VERTEX
8
0
10
3.944620
20
1.905000
0
VERTEX
8
0
10
3.802380
20
1.905000
0
VERTEX
8
0
10
3.771900
20
1.935480
0
VERTEX
8
0
10
3.771900
20
2.128520
0
SEQEND
8
0
0
CIRCLE
8
0
10
3.873500
20
2.032000
40
0.100000
0
POLYLINE
8
0
66
1
70
1
40
0
41
0
0
VERTEX
8
0
10
2.755900
20
2.128520
0
VERTEX
8
0
10
2.786380
20
2.159000
0
VERTEX
8
0
10
2.928620
20
2.159000
0
VERTEX
8
0
10
2.959100
20
2.128520
0
VERTEX
8
0
10
2.959100
20
1.935480
0
VERTEX
8
0
10
2.928620
20
1.905000
0
VERTEX
8
0
10
2.786380
20
1.905000
0
VERTEX
8
0
10
2.755900
20
1.935480
0
VERTEX
8
0
10
2.755900
20
2.128520
0
SEQEND
8
0
0
CIRCLE
8
0
10
2.857500
20
2.032000
40
0.100000
0
POLYLINE
8
0
66
1
70
1
40
0
41
0
0
VERTEX
8
0
10
2.501900
20
2.128520
0
VERTEX
8
0
10
2.532380
20
2.159000
0
VERTEX
8
0
10
2.674620
20
2.159000
0
VERTEX
8
0
10
2.705100
20
2.128520
0
VERTEX
8
0
10
2.705100
20
1.935480
0
VERTEX
8
0
10
2.674620
20
1.905000
0
VERTEX
8
0
10
2.532380
20
1.905000
0
VERTEX
8
0
10
2.501900
20
1.935480
0
VERTEX
8
0
10
2.501900
20
2.128520
0
SEQEND
8
0
0
CIRCLE
8
0
10
2.603500
20
2.032000
40
0.100000
0
POLYLINE
8
0
66
1
70
1
40
0
41
0
0
VERTEX
8
0
10
1.739900
20
2.128520
0
VERTEX
8
0
10
1.770380
20
2.159000
0
VERTEX
8
0
10
1.912620
20
2.159000
0
VERTEX
8
0
10
1.943100
20
2.128520
0
VERTEX
8
0
10
1.943100
20
1.935480
0
VERTEX
8
0
10
1.912620
20
1.905000
0
VERTEX
8
0
10
1.770380
20
1.905000
0
VERTEX
8
0
10
1.739900
20
1.935480
0
VERTEX
8
0
10
1.739900
20
2.128520
0
SEQEND
8
0
0
CIRCLE
8
0
10
1.841500
20
2.032000
40
0.100000
0
POLYLINE
8
0
66
1
70
1
40
0
41
0
0
VERTEX
8
0
10
1.231900
20
2.128520
0
VERTEX
8
0
10
1.262380
20
2.159000
0
VERTEX
8
0
10
1.404620
20
2.159000
0
VERTEX
8
0
10
1.435100
20
2.128520
0
VERTEX
8
0
10
1.435100
20
1.935480
0
VERTEX
8
0
10
1.404620
20
1.905000
0
VERTEX
8
0
10
1.262380
20
1.905000
0
VERTEX
8
0
10
1.231900
20
1.935480
0
VERTEX
8
0
10
1.231900
20
2.128520
0
SEQEND
8
0
0
CIRCLE
8
0
10
1.333500
20
2.032000
40
0.100000
0
POLYLINE
8
0
66
1
70
1
40
0
41
0
0
VERTEX
8
0
10
0.977900
20
2.128520
0
VERTEX
8
0
10
1.008380
20
2.159000
0
VERTEX
8
0
10
1.150620
20
2.159000
0
VERTEX
8
0
10
1.181100
20
2.128520
0
VERTEX
8
0
10
1.181100
20
1.935480
0
VERTEX
8
0
10
1.150620
20
1.905000
0
VERTEX
8
0
10
1.008380
20
1.905000
0
VERTEX
8
0
10
0.977900
20
1.935480
0
VERTEX
8
0
10
0.977900
20
2.128520
0
SEQEND
8
0
0
CIRCLE
8
0
10
1.079500
20
2.032000
40
0.100000
0
INSERT
8
0
2
EPAD
10
0.080000
20
2.250000
41
0.304800
42
0.304800
0
CIRCLE
8
0
10
0.080000
20
2.250000
40
0.025400
0
INSERT
8
0
2
EPAD
10
5.760000
20
2.240000
41
0.304800
42
0.304800
0
CIRCLE
8
0
10
5.760000
20
2.240000
40
0.025400
0
INSERT
8
0
2
EPAD
10
5.770000
20
0.360000
41
0.304800
42
0.304800
0
CIRCLE
8
0
10
5.770000
20
0.360000
40
0.025400
0
INSERT
8
0
2
EPAD
10
0.080000
20
0.350000
41
0.304800
42
0.304800
0
CIRCLE
8
0
10
0.080000
20
0.350000
40
0.025400
0
POLYLINE
8
0
66
1
40
0.010160
41
0.010160
0
VERTEX
8
0
10
0.125240
20
0.762160
0
VERTEX
8
0
10
0.506240
20
0.762160
0
VERTEX
8
0
10
0.506240
20
1.798160
0
VERTEX
8
0
10
0.125240
20
1.798160
0
VERTEX
8
0
10
0.125240
20
0.762160
0
SEQEND
8
0
0
TEXT
8
0
10
0.107460
20
1.120140
40
0.101600
41
1.050000
50
90.000000
1
MQ1
0
POLYLINE
8
0
66
1
40
0.010160
41
0.010160
0
VERTEX
8
0
10
5.309500
20
0.713000
0
VERTEX
8
0
10
5.690500
20
0.713000
0
VERTEX
8
0
10
5.690500
20
1.999000
0
VERTEX
8
0
10
5.309500
20
1.999000
0
VERTEX
8
0
10
5.309500
20
0.713000
0
SEQEND
8
0
0
TEXT
8
0
10
5.339980
20
0.593620
40
0.101600
41
1.050000
1
I/O
0
POLYLINE
8
0
66
1
40
0.010160
41
0.010160
0
VERTEX
8
0
10
-0.130000
20
0.153000
0
VERTEX
8
0
10
5.980000
20
0.153000
0
VERTEX
8
0
10
5.980000
20
2.460500
0
VERTEX
8
0
10
-0.130000
20
2.460500
0
VERTEX
8
0
10
-0.130000
20
0.153000
0
SEQEND
8
0
0
POLYLINE
8
0
66
1
40
0.010160
41
0.010160
0
VERTEX
8
0
10
-0.130000
20
0.173000
0
VERTEX
8
0
10
5.970000
20
0.173000
0
VERTEX
8
0
10
5.970000
20
2.470340
0
VERTEX
8
0
10
-0.130000
20
2.470340
0
VERTEX
8
0
10
-0.130000
20
0.173000
0
SEQEND
8
0
0
CIRCLE
8
0
10
1.077500
20
0.250000
40
0.010000
0
POLYLINE
8
0
66
1
40
0.012700
41
0.012700
0
VERTEX
8
0
10
0.698500
20
0.381000
0
VERTEX
8
0
10
0.698500
20
2.159000
0
VERTEX
8
0
10
5.016500
20
2.159000
0
VERTEX
8
0
10
5.016500
20
0.381000
0
VERTEX
8
0
10
0.698500
20
0.381000
0
SEQEND
8
0
0
TEXT
8
0
10
2.845820
20
2.178050
40
0.101600
41
1.050000
1
U1
0
CIRCLE
8
0
10
-0.940000
20
1.270000
40
0.800000
0
POLYLINE
8
0
66
1
40
0.010160
41
0.010160
0
VERTEX
8
0
10
-2.040000
20
0.320000
0
VERTEX
8
0
10
-1.740000
20
0.320000
0
VERTEX
8
0
10
-1.740000
20
2.220000
0
VERTEX
8
0
10
-2.040000
20
2.220000
0
VERTEX
8
0
10
-2.040000
20
0.320000
0
SEQEND
8
0
0
POLYLINE
8
0
66
1
40
0.010160
41
0.010160
0
VERTEX
8
0
10
-1.740000
20
0.320000
0
VERTEX
8
0
10
-0.120000
20
0.320000
0
VERTEX
8
0
10
-0.120000
20
2.220000
0
VERTEX
8
0
10
-1.740000
20
2.220000
0
VERTEX
8
0
10
-1.740000
20
0.320000
0
SEQEND
8
0
0
POLYLINE
8
0
66
1
40
0.010160
41
0.010160
0
VERTEX
8
0
10
-2.040000
20
0.320000
0
VERTEX
8
0
10
-0.130000
20
0.320000
0
VERTEX
8
0
10
-0.130000
20
2.220000
0
VERTEX
8
0
10
-2.040000
20
2.220000
0
VERTEX
8
0
10
-2.040000
20
0.320000
0
SEQEND
8
0
0
CIRCLE
8
0
10
-0.940000
20
1.270000
40
0.800000
0
ENDSEC
0
EOF

