G04 PROTEUS GERBER X2 FILE*
%TF.GenerationSoftware,Labcenter,Proteus,8.15-SP1-Build34318*%
%TF.CreationDate,2023-09-30T11:40:31+00:00*%
%TF.FileFunction,Copper,L1,Bot*%
%TF.FilePolarity,Positive*%
%TF.Part,Single*%
%TF.SameCoordinates,{afa5550d-4e0f-4831-ab14-27b5fa56902b}*%
%FSLAX45Y45*%
%MOMM*%
G01*
%TA.AperFunction,Conductor*%
%ADD10C,1.016000*%
%AMDIL001*
4,1,8,
-1.270000,0.711200,-0.965200,1.016000,0.965200,1.016000,1.270000,0.711200,1.270000,-0.711200,
0.965200,-1.016000,-0.965200,-1.016000,-1.270000,-0.711200,-1.270000,0.711200,
0*%
%TA.AperFunction,ComponentPad*%
%ADD11DIL001*%
%AMDIL002*
4,1,8,
-1.016000,0.965200,-0.711200,1.270000,0.711200,1.270000,1.016000,0.965200,1.016000,-0.965200,
0.711200,-1.270000,-0.711200,-1.270000,-1.016000,-0.965200,-1.016000,0.965200,
0*%
%TA.AperFunction,ComponentPad*%
%ADD12DIL002*%
%TA.AperFunction,OtherPad,Unknown*%
%ADD13C,3.048000*%
%TA.AperFunction,Profile*%
%ADD14C,0.101600*%
%TD.AperFunction*%
%TA.AperFunction,Conductor*%
G36*
X-5467901Y+2119009D02*
X-5493611Y+2093299D01*
X-5233301Y+2093299D01*
X-5233301Y+1750499D01*
X-5131093Y+1750499D01*
X-5081093Y+1700499D01*
X-2030499Y+1700499D01*
X-2030499Y+1765301D01*
X-2082799Y+1765301D01*
X-2082799Y+2095501D01*
X-2362201Y+2095501D01*
X-2362201Y+1765301D01*
X-3098799Y+1765301D01*
X-3098799Y+2095501D01*
X-3632201Y+2095501D01*
X-3632201Y+1765301D01*
X-4114799Y+1765301D01*
X-4114799Y+2298699D01*
X-4063999Y+2298699D01*
X-4063999Y+2315720D01*
X-5467901Y+2315720D01*
X-5467901Y+2119009D01*
G37*
%TD.AperFunction*%
%LPC*%
G36*
X-4140201Y+2298699D02*
X-4622799Y+2298699D01*
X-4622799Y+1765301D01*
X-4140201Y+1765301D01*
X-4140201Y+2298699D01*
G37*
%LPD*%
%TA.AperFunction,Conductor*%
G36*
X-5835220Y+652099D02*
X-5766699Y+652099D01*
X-5766699Y+1947901D01*
X-5835220Y+1947901D01*
X-5835220Y+652099D01*
G37*
%TD.AperFunction*%
%TA.AperFunction,Conductor*%
G36*
X-2159001Y+774699D02*
X-2108201Y+774699D01*
X-2108201Y+297780D01*
X-2082799Y+297780D01*
X-2082799Y+774699D01*
X-1600201Y+774699D01*
X-1600201Y+297780D01*
X-1574799Y+297780D01*
X-1574799Y+774699D01*
X-1523999Y+774699D01*
X-1523999Y+820593D01*
X-1602907Y+899501D01*
X-2159001Y+899501D01*
X-2159001Y+774699D01*
G37*
%TD.AperFunction*%
%TA.AperFunction,Conductor*%
G36*
X-125241Y+1934647D02*
X-125241Y+1892459D01*
X-49041Y+1892459D01*
X-49041Y+647861D01*
X-582439Y+647861D01*
X-582439Y+698661D01*
X-714067Y+698661D01*
X-889001Y+873595D01*
X-889001Y+774699D01*
X-838201Y+774699D01*
X-838201Y+297780D01*
X-372099Y+297780D01*
X-372099Y+470991D01*
X-200991Y+642099D01*
X-14780Y+642099D01*
X-14780Y+1957901D01*
X-148495Y+1957901D01*
X-125241Y+1934647D01*
G37*
%TD.AperFunction*%
%TA.AperFunction,Conductor*%
G36*
X-1600201Y+1765301D02*
X-1649501Y+1765301D01*
X-1649501Y+1700499D01*
X-1174582Y+1700499D01*
X-582439Y+1108356D01*
X-582439Y+1853033D01*
X-824907Y+2095501D01*
X-838201Y+2095501D01*
X-838201Y+1765301D01*
X-1574799Y+1765301D01*
X-1574799Y+2095501D01*
X-1600201Y+2095501D01*
X-1600201Y+1765301D01*
G37*
%TD.AperFunction*%
D10*
X-2349500Y+508000D02*
X-2349500Y+840000D01*
X-5500000Y+840000D01*
X-5500000Y+1090000D02*
X-1524000Y+1090000D01*
X-1333500Y+899500D01*
X-1333500Y+508000D01*
X-1079500Y+508000D02*
X-1079500Y+1143000D01*
X-1280500Y+1344000D01*
X-5500000Y+1344000D01*
X-315740Y+1651160D02*
X-315740Y+1855740D01*
X-746000Y+2286000D01*
X-1333500Y+2286000D01*
X-3873500Y+2286000D01*
X-3873500Y+2032000D01*
X-315740Y+889160D02*
X-632649Y+889160D01*
X-889000Y+1145511D01*
X-1253489Y+1510000D01*
X-632649Y+889160D02*
X-635160Y+889160D01*
X-889000Y+1143000D01*
X-889000Y+1145511D01*
X-1840000Y+1510000D02*
X-1840000Y+2030500D01*
X-1841500Y+2032000D01*
X-1253489Y+1510000D02*
X-1840000Y+1510000D01*
X-5160000Y+1510000D01*
X-5210000Y+1560000D01*
X-5462000Y+1560000D01*
X-5500000Y+1598000D01*
X-315740Y+1143160D02*
X-104778Y+1143160D01*
X-30000Y+1068382D01*
X-30000Y+730000D01*
X-510000Y+250000D01*
X-1583500Y+250000D01*
X-1841500Y+508000D01*
X-2099500Y+250000D01*
X-5299999Y+250000D01*
X-5810000Y+760001D01*
X-5810000Y+1700000D01*
X-5662968Y+1847032D01*
X-5554227Y+1847032D01*
X-5500000Y+1852000D01*
X-5467901Y+2119009D02*
X-5493611Y+2093299D01*
X-5233301Y+2093299D01*
X-5233301Y+1750499D01*
X-5131093Y+1750499D01*
X-5081093Y+1700499D01*
X-2030499Y+1700499D01*
X-2030499Y+1765301D01*
X-2082799Y+1765301D01*
X-2082799Y+2095501D01*
X-2362201Y+2095501D01*
X-2362201Y+1765301D01*
X-3098799Y+1765301D01*
X-3098799Y+2095501D01*
X-3632201Y+2095501D01*
X-3632201Y+1765301D01*
X-4114799Y+1765301D01*
X-4114799Y+2298699D01*
X-4063999Y+2298699D01*
X-4063999Y+2315720D01*
X-5467901Y+2315720D01*
X-5467901Y+2119009D01*
X-4140201Y+2298699D02*
X-4622799Y+2298699D01*
X-4622799Y+1765301D01*
X-4140201Y+1765301D01*
X-4140201Y+2298699D01*
X-5835220Y+652099D02*
X-5766699Y+652099D01*
X-5766699Y+1947901D01*
X-5835220Y+1947901D01*
X-5835220Y+652099D01*
X-2159001Y+774699D02*
X-2108201Y+774699D01*
X-2108201Y+297780D01*
X-2082799Y+297780D01*
X-2082799Y+774699D01*
X-1600201Y+774699D01*
X-1600201Y+297780D01*
X-1574799Y+297780D01*
X-1574799Y+774699D01*
X-1523999Y+774699D01*
X-1523999Y+820593D01*
X-1602907Y+899501D01*
X-2159001Y+899501D01*
X-2159001Y+774699D01*
X-125241Y+1934647D02*
X-125241Y+1892459D01*
X-49041Y+1892459D01*
X-49041Y+647861D01*
X-582439Y+647861D01*
X-582439Y+698661D01*
X-714067Y+698661D01*
X-889001Y+873595D01*
X-889001Y+774699D01*
X-838201Y+774699D01*
X-838201Y+297780D01*
X-372099Y+297780D01*
X-372099Y+470991D01*
X-200991Y+642099D01*
X-14780Y+642099D01*
X-14780Y+1957901D01*
X-148495Y+1957901D01*
X-125241Y+1934647D01*
X-1600201Y+1765301D02*
X-1649501Y+1765301D01*
X-1649501Y+1700499D01*
X-1174582Y+1700499D01*
X-582439Y+1108356D01*
X-582439Y+1853033D01*
X-824907Y+2095501D01*
X-838201Y+2095501D01*
X-838201Y+1765301D01*
X-1574799Y+1765301D01*
X-1574799Y+2095501D01*
X-1600201Y+2095501D01*
X-1600201Y+1765301D01*
X-531639Y+1143160D02*
X-315740Y+1143160D01*
X-99841Y+1143160D02*
X-315740Y+1143160D01*
X-5715899Y+1852000D02*
X-5500000Y+1852000D01*
X-5284101Y+1852000D02*
X-5500000Y+1852000D01*
X-2031999Y+508000D02*
X-1841500Y+508000D01*
X-1841500Y+723899D02*
X-1841500Y+508000D01*
X-1651001Y+508000D02*
X-1841500Y+508000D01*
D11*
X-315740Y+889160D03*
X-315740Y+1143160D03*
X-315740Y+1397160D03*
X-315740Y+1651160D03*
X-5500000Y+840000D03*
X-5500000Y+1090000D03*
X-5500000Y+1344000D03*
X-5500000Y+1598000D03*
X-5500000Y+1852000D03*
D12*
X-1079500Y+508000D03*
X-1333500Y+508000D03*
X-1841500Y+508000D03*
X-2349500Y+508000D03*
X-4635500Y+508000D03*
X-4381500Y+2032000D03*
X-3873500Y+2032000D03*
X-2857500Y+2032000D03*
X-2603500Y+2032000D03*
X-1841500Y+2032000D03*
X-1333500Y+2032000D03*
X-1079500Y+2032000D03*
D13*
X-80000Y+2250000D03*
X-5760000Y+2240000D03*
X-5770000Y+360000D03*
X-80000Y+350000D03*
D14*
X-5980000Y+153000D02*
X+130000Y+153000D01*
X+130000Y+2460500D01*
X-5980000Y+2460500D01*
X-5980000Y+153000D01*
M02*
