G04 PROTEUS GERBER X2 FILE*
%TF.GenerationSoftware,Labcenter,Proteus,8.15-SP1-Build34318*%
%TF.CreationDate,2023-12-31T19:58:16+00:00*%
%TF.FileFunction,Copper,L1,Bot*%
%TF.FilePolarity,Positive*%
%TF.Part,Single*%
%TF.SameCoordinates,{e2e6dbda-19b2-4580-b6bd-56b35323d263}*%
%FSLAX45Y45*%
%MOMM*%
G01*
%TA.AperFunction,Conductor*%
%ADD10C,1.524000*%
%ADD11C,1.016000*%
%ADD12C,0.254000*%
%AMDIL003*
4,1,8,
-1.016000,0.965200,-0.711200,1.270000,0.711200,1.270000,1.016000,0.965200,1.016000,-0.965200,
0.711200,-1.270000,-0.711200,-1.270000,-1.016000,-0.965200,-1.016000,0.965200,
0*%
%TA.AperFunction,ComponentPad*%
%ADD13DIL003*%
%TA.AperFunction,ComponentPad*%
%ADD14C,3.810000*%
%AMDIL005*
4,1,8,
-1.270000,0.711200,-0.965200,1.016000,0.965200,1.016000,1.270000,0.711200,1.270000,-0.711200,
0.965200,-1.016000,-0.965200,-1.016000,-1.270000,-0.711200,-1.270000,0.711200,
0*%
%TA.AperFunction,ComponentPad*%
%ADD15DIL005*%
%TA.AperFunction,ComponentPad*%
%ADD16C,2.032000*%
%TA.AperFunction,ComponentPad*%
%ADD17R,1.270000X1.270000*%
%ADD18C,1.270000*%
%TA.AperFunction,ComponentPad*%
%ADD19R,2.032000X2.032000*%
%ADD70C,1.778000*%
%TA.AperFunction,Profile*%
%ADD71C,0.101600*%
%TD.AperFunction*%
%TA.AperFunction,Conductor*%
G36*
X-8450000Y-243320D02*
X-700000Y-243320D01*
X-700000Y+9843320D01*
X-8450000Y+9843320D01*
X-8450000Y-243320D01*
G37*
%TD.AperFunction*%
%LPC*%
G36*
X-7780703Y+9366703D02*
X-8090499Y+9056907D01*
X-8090499Y+4009593D01*
X-7888205Y+3807299D01*
X-7925899Y+3807299D01*
X-7925899Y+3324701D01*
X-7494101Y+3324701D01*
X-7494101Y+3644002D01*
X-7417899Y+3644002D01*
X-7417899Y+3324701D01*
X-6770607Y+3324701D01*
X-6518407Y+3072501D01*
X-5853093Y+3072501D01*
X-5741501Y+3184093D01*
X-5741501Y+3324701D01*
X-5716101Y+3324701D01*
X-5716101Y+3807299D01*
X-5995501Y+3807299D01*
X-5995501Y+4548407D01*
X-6361093Y+4913999D01*
X-7059093Y+4913999D01*
X-7201501Y+5056407D01*
X-7201501Y+5220450D01*
X-7176252Y+5195201D01*
X-6923748Y+5195201D01*
X-6745201Y+5373748D01*
X-6745201Y+5626252D01*
X-6923748Y+5804799D01*
X-7176252Y+5804799D01*
X-7201501Y+5779550D01*
X-7201501Y+6820450D01*
X-7176252Y+6795201D01*
X-6923748Y+6795201D01*
X-6809448Y+6909501D01*
X-5762093Y+6909501D01*
X-5471593Y+7200001D01*
X-4422907Y+7200001D01*
X-4343999Y+7121093D01*
X-4343999Y+4103907D01*
X-4422907Y+4024999D01*
X-5248907Y+4024999D01*
X-5360499Y+3913407D01*
X-5360499Y+3807299D01*
X-5385899Y+3807299D01*
X-5385899Y+3324701D01*
X-4954101Y+3324701D01*
X-4954101Y+3644001D01*
X-4877899Y+3644001D01*
X-4877899Y+3324701D01*
X-4192101Y+3324701D01*
X-4192101Y+3603695D01*
X-3166905Y+2578499D01*
X-5502907Y+2578499D01*
X-5614499Y+2466907D01*
X-5614499Y+2283299D01*
X-6147899Y+2283299D01*
X-6147899Y+2232499D01*
X-6469407Y+2232499D01*
X-6883999Y+1817907D01*
X-6883999Y+990499D01*
X-6884101Y+990499D01*
X-6884101Y+1269899D01*
X-7315899Y+1269899D01*
X-7315899Y+1244499D01*
X-7459093Y+1244499D01*
X-7696801Y+1482207D01*
X-7696801Y+1500168D01*
X-7815832Y+1619199D01*
X-7984168Y+1619199D01*
X-8103199Y+1500168D01*
X-8103199Y+1331832D01*
X-7984168Y+1212801D01*
X-7966207Y+1212801D01*
X-7616907Y+863501D01*
X-7315899Y+863501D01*
X-7315899Y+584101D01*
X-6884101Y+584101D01*
X-6884101Y+609501D01*
X-6614593Y+609501D01*
X-6503001Y+721093D01*
X-6503001Y+813501D01*
X-6065899Y+813501D01*
X-6065899Y+534101D01*
X-5634101Y+534101D01*
X-5634101Y+559501D01*
X-5408093Y+559501D01*
X-5296501Y+671093D01*
X-5296501Y+1626907D01*
X-5470295Y+1800701D01*
X-4954101Y+1800701D01*
X-4954101Y+2197501D01*
X-4877899Y+2197501D01*
X-4877899Y+1800701D01*
X-4852499Y+1800701D01*
X-4852499Y+1596593D01*
X-4740907Y+1485001D01*
X-2581407Y+1485001D01*
X-2389499Y+1293093D01*
X-2389499Y+1124299D01*
X-3684899Y+1124299D01*
X-3684899Y+1118305D01*
X-3757093Y+1190499D01*
X-4408701Y+1190499D01*
X-4408701Y+1215899D01*
X-4891299Y+1215899D01*
X-4891299Y+530101D01*
X-4840498Y+530101D01*
X-4840498Y+263093D01*
X-4728906Y+151501D01*
X-3136093Y+151501D01*
X-2770501Y+517093D01*
X-2770501Y+641701D01*
X-1475101Y+641701D01*
X-1475101Y+1124299D01*
X-1500501Y+1124299D01*
X-1500501Y+2403407D01*
X-1915593Y+2818499D01*
X-2868093Y+2818499D01*
X-3009095Y+2959501D01*
X-2871093Y+2959501D01*
X-2858393Y+2972201D01*
X-2772201Y+2972201D01*
X-2772201Y+2974755D01*
X-2769647Y+2972201D01*
X-2622353Y+2972201D01*
X-2577980Y+3016574D01*
X-2520907Y+2959501D01*
X-2363093Y+2959501D01*
X-2306020Y+3016574D01*
X-2261647Y+2972201D01*
X-2114353Y+2972201D01*
X-2010201Y+3076353D01*
X-2010201Y+3223647D01*
X-2114353Y+3327799D01*
X-2251501Y+3327799D01*
X-2251501Y+3879593D01*
X-2106093Y+4025001D01*
X-1280593Y+4025001D01*
X-915001Y+4390593D01*
X-915001Y+7532907D01*
X-1280593Y+7898499D01*
X-2312001Y+7898499D01*
X-2312001Y+9056907D01*
X-2677593Y+9422499D01*
X-7724907Y+9422499D01*
X-7780703Y+9366703D01*
G37*
G36*
X-6534168Y+146801D02*
X-6365832Y+146801D01*
X-6246801Y+265832D01*
X-6246801Y+434168D01*
X-6365832Y+553199D01*
X-6534168Y+553199D01*
X-6653199Y+434168D01*
X-6653199Y+265832D01*
X-6534168Y+146801D01*
G37*
G36*
X-7984168Y+196801D02*
X-7815832Y+196801D01*
X-7696801Y+315832D01*
X-7696801Y+484168D01*
X-7815832Y+603199D01*
X-7984168Y+603199D01*
X-8103199Y+484168D01*
X-8103199Y+315832D01*
X-7984168Y+196801D01*
G37*
%LPD*%
%TA.AperFunction,Conductor*%
G36*
X-7709501Y+8899093D02*
X-7709501Y+8358405D01*
X-7470907Y+8596999D01*
X-6171093Y+8596999D01*
X-6059501Y+8485407D01*
X-6059501Y+8341299D01*
X-5526101Y+8341299D01*
X-5526101Y+7858701D01*
X-5551501Y+7858701D01*
X-5551501Y+7660907D01*
X-5471593Y+7580999D01*
X-4534499Y+7580999D01*
X-4534499Y+8294907D01*
X-4168907Y+8660499D01*
X-3021093Y+8660499D01*
X-2909501Y+8548907D01*
X-2909501Y+8391299D01*
X-2884101Y+8391299D01*
X-2884101Y+7908701D01*
X-3671501Y+7908701D01*
X-3671501Y+7812907D01*
X-3503093Y+7644499D01*
X-2692999Y+7644499D01*
X-2692999Y+8899093D01*
X-2835407Y+9041501D01*
X-7567093Y+9041501D01*
X-7709501Y+8899093D01*
G37*
%TD.AperFunction*%
%TA.AperFunction,Conductor*%
G36*
X-7201501Y+7756093D02*
X-7201501Y+7379550D01*
X-7176252Y+7404799D01*
X-6923748Y+7404799D01*
X-6809448Y+7290499D01*
X-5919907Y+7290499D01*
X-5819906Y+7390500D01*
X-5932499Y+7503093D01*
X-5932499Y+7858701D01*
X-6719899Y+7858701D01*
X-6719899Y+7909501D01*
X-7048093Y+7909501D01*
X-7201501Y+7756093D01*
G37*
%TD.AperFunction*%
%TA.AperFunction,Conductor*%
G36*
X-4408701Y+784101D02*
X-4408701Y+532499D01*
X-3293907Y+532499D01*
X-3184705Y+641701D01*
X-3684899Y+641701D01*
X-3684899Y+692501D01*
X-3797907Y+692501D01*
X-3914907Y+809501D01*
X-4408701Y+809501D01*
X-4408701Y+784101D01*
G37*
%TD.AperFunction*%
D10*
X-6450000Y+1366000D02*
X-6450000Y+1004000D01*
X-5850000Y+1004000D01*
X-7900000Y+1416000D02*
X-7538000Y+1054000D01*
X-7100000Y+1054000D01*
X-2502500Y+7962000D02*
X-2502500Y+7708000D01*
X-2502500Y+7454000D02*
X-2502500Y+7708000D01*
X-2312000Y+7708000D02*
X-1359500Y+7708000D01*
X-1105500Y+7454000D01*
X-1105500Y+4469500D01*
X-1359500Y+4215500D01*
X-2185000Y+4215500D01*
X-2442000Y+3958500D01*
X-2442000Y+3150000D01*
X-2502500Y+7962000D02*
X-2502500Y+8978000D01*
X-2756500Y+9232000D01*
X-7646000Y+9232000D01*
X-7900000Y+8978000D01*
X-7900000Y+4088500D01*
X-7646000Y+3834500D01*
X-7202000Y+3834500D01*
X-7202000Y+3566000D01*
X-2312000Y+7708000D02*
X-2502500Y+7708000D01*
X-2502500Y+7454000D02*
X-3582000Y+7454000D01*
X-3862000Y+7734000D01*
X-3862000Y+8150000D01*
X-4979000Y+278500D02*
X-4788500Y+88000D01*
X-1677000Y+88000D01*
X-1423000Y+342000D01*
X-1423000Y+2882000D01*
X-1691000Y+3150000D01*
X-2188000Y+3150000D01*
X-5996000Y+8100000D02*
X-5996000Y+8470000D01*
X-5742000Y+8724000D01*
X-3010500Y+8724000D01*
X-2756500Y+8470000D01*
X-2756500Y+7962000D01*
X-3010500Y+7708000D01*
X-3354000Y+7708000D01*
X-3354000Y+8150000D01*
X-5487000Y+3390000D02*
X-5487000Y+4913000D01*
X-5996000Y+5422000D01*
X-6185500Y+5422000D02*
X-5996000Y+5422000D01*
X-5487000Y+3390000D02*
X-5423500Y+3326500D01*
X-5423500Y+3263000D01*
X-4662000Y+3263000D01*
X-4662000Y+3566000D01*
X-4915500Y+1612000D02*
X-4915500Y+2042000D01*
X-5170000Y+2042000D01*
X-4915500Y+1612000D02*
X-4725000Y+1421500D01*
X-3215000Y+1421500D01*
X-3215000Y+883000D01*
X-6450000Y+350000D02*
X-7138000Y+350000D01*
X-7188000Y+400000D01*
X-7900000Y+400000D01*
X-6185500Y+5422000D02*
X-6376000Y+5422000D01*
X-6454000Y+5500000D01*
X-7050000Y+5500000D01*
X-4979000Y+1421500D02*
X-4979000Y+278500D01*
X-6450000Y+350000D02*
X-6188000Y+88000D01*
X-5169500Y+88000D01*
X-4979000Y+278500D01*
X-7900000Y+400000D02*
X-8154000Y+654000D01*
X-8154000Y+2056500D01*
X-7900000Y+2310500D01*
X-6566500Y+2310500D01*
X-5487000Y+3390000D01*
X-4979000Y+1421500D02*
X-4915500Y+1421500D01*
X-4915500Y+1612000D01*
X-7100000Y+800000D02*
X-6693500Y+800000D01*
X-6693500Y+1739000D01*
X-6390500Y+2042000D01*
X-5932000Y+2042000D01*
X-3150000Y+5500000D02*
X-1994500Y+5500000D01*
X-1700000Y+5794500D01*
X-1700000Y+6800000D01*
X-3201000Y+2388000D02*
X-5424000Y+2388000D01*
X-5424000Y+2042000D01*
X-3201000Y+2388000D02*
X-2950000Y+2388000D01*
X-5678000Y+2042000D02*
X-5678000Y+1739000D01*
X-5487000Y+1548000D01*
X-5487000Y+750000D01*
X-5850000Y+750000D01*
X-1945000Y+883000D02*
X-1945000Y+1739000D01*
X-2248000Y+2042000D01*
X-4408000Y+2042000D01*
X-6250000Y+8100000D02*
X-6250000Y+8406500D01*
X-7392000Y+8406500D01*
X-7646000Y+8152500D01*
X-7646000Y+4723500D01*
X-7392000Y+4469500D01*
X-6947500Y+4469500D01*
X-6693500Y+4215500D01*
X-6693500Y+3517000D01*
X-6439500Y+3263000D01*
X-5932000Y+3263000D01*
X-5932000Y+3566000D01*
X-6186000Y+3566000D02*
X-6186000Y+4469500D01*
X-6440000Y+4723500D01*
X-7138000Y+4723500D01*
X-7392000Y+4977500D01*
X-7392000Y+7835000D01*
X-7127000Y+8100000D01*
X-6504000Y+8100000D01*
X-2961000Y+883000D02*
X-2961000Y+596000D01*
X-3215000Y+342000D01*
X-4650000Y+342000D01*
X-4650000Y+746000D01*
X-4650000Y+1000000D02*
X-3836000Y+1000000D01*
X-3719000Y+883000D01*
X-3469000Y+883000D01*
X-1700000Y+7400000D02*
X-1359500Y+7400000D01*
X-1359500Y+4977500D01*
X-1613500Y+4723500D01*
X-2693000Y+4723500D01*
X-2950000Y+4466500D01*
X-2950000Y+3150000D01*
X-4662000Y+2042000D02*
X-4662000Y+1675500D01*
X-2502500Y+1675500D01*
X-2199000Y+1372000D01*
X-2199000Y+883000D01*
X-4344000Y+3834500D02*
X-4153500Y+3834500D01*
X-2947000Y+2628000D01*
X-1994500Y+2628000D01*
X-1691000Y+2324500D01*
X-1691000Y+883000D01*
X-5550500Y+7390500D02*
X-5841000Y+7100000D01*
X-7050000Y+7100000D01*
X-5550500Y+7390500D02*
X-5742000Y+7582000D01*
X-5742000Y+8100000D01*
X-4344000Y+7390500D02*
X-5550500Y+7390500D01*
X-4344000Y+7390500D02*
X-4344000Y+8216000D01*
X-4090000Y+8470000D01*
X-3100000Y+8470000D01*
X-3100000Y+8150000D01*
X-4344000Y+7390500D02*
X-4153500Y+7200000D01*
X-4153500Y+4025000D01*
X-4344000Y+3834500D01*
X-5170000Y+3834500D01*
X-5170000Y+3566000D01*
X-1700000Y+7054000D02*
X-2375500Y+7054000D01*
X-2421500Y+7100000D01*
X-3200000Y+7100000D01*
D11*
X-8450000Y-243320D02*
X-700000Y-243320D01*
X-700000Y+9843320D01*
X-8450000Y+9843320D01*
X-8450000Y-243320D01*
X-7780703Y+9366703D02*
X-8090499Y+9056907D01*
X-8090499Y+4009593D01*
X-7888205Y+3807299D01*
X-7925899Y+3807299D01*
X-7925899Y+3324701D01*
X-7494101Y+3324701D01*
X-7494101Y+3644002D01*
X-7417899Y+3644002D01*
X-7417899Y+3324701D01*
X-6770607Y+3324701D01*
X-6518407Y+3072501D01*
X-5853093Y+3072501D01*
X-5741501Y+3184093D01*
X-5741501Y+3324701D01*
X-5716101Y+3324701D01*
X-5716101Y+3807299D01*
X-5995501Y+3807299D01*
X-5995501Y+4548407D01*
X-6361093Y+4913999D01*
X-7059093Y+4913999D01*
X-7201501Y+5056407D01*
X-7201501Y+5220450D01*
X-7176252Y+5195201D01*
X-6923748Y+5195201D01*
X-6745201Y+5373748D01*
X-6745201Y+5626252D01*
X-6923748Y+5804799D01*
X-7176252Y+5804799D01*
X-7201501Y+5779550D01*
X-7201501Y+6820450D01*
X-7176252Y+6795201D01*
X-6923748Y+6795201D01*
X-6809448Y+6909501D01*
X-5762093Y+6909501D01*
X-5471593Y+7200001D01*
X-4422907Y+7200001D01*
X-4343999Y+7121093D01*
X-4343999Y+4103907D01*
X-4422907Y+4024999D01*
X-5248907Y+4024999D01*
X-5360499Y+3913407D01*
X-5360499Y+3807299D01*
X-5385899Y+3807299D01*
X-5385899Y+3324701D01*
X-4954101Y+3324701D01*
X-4954101Y+3644001D01*
X-4877899Y+3644001D01*
X-4877899Y+3324701D01*
X-4192101Y+3324701D01*
X-4192101Y+3603695D01*
X-3166905Y+2578499D01*
X-5502907Y+2578499D01*
X-5614499Y+2466907D01*
X-5614499Y+2283299D01*
X-6147899Y+2283299D01*
X-6147899Y+2232499D01*
X-6469407Y+2232499D01*
X-6883999Y+1817907D01*
X-6883999Y+990499D01*
X-6884101Y+990499D01*
X-6884101Y+1269899D01*
X-7315899Y+1269899D01*
X-7315899Y+1244499D01*
X-7459093Y+1244499D01*
X-7696801Y+1482207D01*
X-7696801Y+1500168D01*
X-7815832Y+1619199D01*
X-7984168Y+1619199D01*
X-8103199Y+1500168D01*
X-8103199Y+1331832D01*
X-7984168Y+1212801D01*
X-7966207Y+1212801D01*
X-7616907Y+863501D01*
X-7315899Y+863501D01*
X-7315899Y+584101D01*
X-6884101Y+584101D01*
X-6884101Y+609501D01*
X-6614593Y+609501D01*
X-6503001Y+721093D01*
X-6503001Y+813501D01*
X-6065899Y+813501D01*
X-6065899Y+534101D01*
X-5634101Y+534101D01*
X-5634101Y+559501D01*
X-5408093Y+559501D01*
X-5296501Y+671093D01*
X-5296501Y+1626907D01*
X-5470295Y+1800701D01*
X-4954101Y+1800701D01*
X-4954101Y+2197501D01*
X-4877899Y+2197501D01*
X-4877899Y+1800701D01*
X-4852499Y+1800701D01*
X-4852499Y+1596593D01*
X-4740907Y+1485001D01*
X-2581407Y+1485001D01*
X-2389499Y+1293093D01*
X-2389499Y+1124299D01*
X-3684899Y+1124299D01*
X-3684899Y+1118305D01*
X-3757093Y+1190499D01*
X-4408701Y+1190499D01*
X-4408701Y+1215899D01*
X-4891299Y+1215899D01*
X-4891299Y+530101D01*
X-4840498Y+530101D01*
X-4840498Y+263093D01*
X-4728906Y+151501D01*
X-3136093Y+151501D01*
X-2770501Y+517093D01*
X-2770501Y+641701D01*
X-1475101Y+641701D01*
X-1475101Y+1124299D01*
X-1500501Y+1124299D01*
X-1500501Y+2403407D01*
X-1915593Y+2818499D01*
X-2868093Y+2818499D01*
X-3009095Y+2959501D01*
X-2871093Y+2959501D01*
X-2858393Y+2972201D01*
X-2772201Y+2972201D01*
X-2772201Y+2974755D01*
X-2769647Y+2972201D01*
X-2622353Y+2972201D01*
X-2577980Y+3016574D01*
X-2520907Y+2959501D01*
X-2363093Y+2959501D01*
X-2306020Y+3016574D01*
X-2261647Y+2972201D01*
X-2114353Y+2972201D01*
X-2010201Y+3076353D01*
X-2010201Y+3223647D01*
X-2114353Y+3327799D01*
X-2251501Y+3327799D01*
X-2251501Y+3879593D01*
X-2106093Y+4025001D01*
X-1280593Y+4025001D01*
X-915001Y+4390593D01*
X-915001Y+7532907D01*
X-1280593Y+7898499D01*
X-2312001Y+7898499D01*
X-2312001Y+9056907D01*
X-2677593Y+9422499D01*
X-7724907Y+9422499D01*
X-7780703Y+9366703D01*
X-6534168Y+146801D02*
X-6365832Y+146801D01*
X-6246801Y+265832D01*
X-6246801Y+434168D01*
X-6365832Y+553199D01*
X-6534168Y+553199D01*
X-6653199Y+434168D01*
X-6653199Y+265832D01*
X-6534168Y+146801D01*
X-7984168Y+196801D02*
X-7815832Y+196801D01*
X-7696801Y+315832D01*
X-7696801Y+484168D01*
X-7815832Y+603199D01*
X-7984168Y+603199D01*
X-8103199Y+484168D01*
X-8103199Y+315832D01*
X-7984168Y+196801D01*
X-7709501Y+8899093D02*
X-7709501Y+8358405D01*
X-7470907Y+8596999D01*
X-6171093Y+8596999D01*
X-6059501Y+8485407D01*
X-6059501Y+8341299D01*
X-5526101Y+8341299D01*
X-5526101Y+7858701D01*
X-5551501Y+7858701D01*
X-5551501Y+7660907D01*
X-5471593Y+7580999D01*
X-4534499Y+7580999D01*
X-4534499Y+8294907D01*
X-4168907Y+8660499D01*
X-3021093Y+8660499D01*
X-2909501Y+8548907D01*
X-2909501Y+8391299D01*
X-2884101Y+8391299D01*
X-2884101Y+7908701D01*
X-3671501Y+7908701D01*
X-3671501Y+7812907D01*
X-3503093Y+7644499D01*
X-2692999Y+7644499D01*
X-2692999Y+8899093D01*
X-2835407Y+9041501D01*
X-7567093Y+9041501D01*
X-7709501Y+8899093D01*
X-7201501Y+7756093D02*
X-7201501Y+7379550D01*
X-7176252Y+7404799D01*
X-6923748Y+7404799D01*
X-6809448Y+7290499D01*
X-5919907Y+7290499D01*
X-5819906Y+7390500D01*
X-5932499Y+7503093D01*
X-5932499Y+7858701D01*
X-6719899Y+7858701D01*
X-6719899Y+7909501D01*
X-7048093Y+7909501D01*
X-7201501Y+7756093D01*
X-4408701Y+784101D02*
X-4408701Y+532499D01*
X-3293907Y+532499D01*
X-3184705Y+641701D01*
X-3684899Y+641701D01*
X-3684899Y+692501D01*
X-3797907Y+692501D01*
X-3914907Y+809501D01*
X-4408701Y+809501D01*
X-4408701Y+784101D01*
D12*
X-5170000Y+1851501D02*
X-5170000Y+2042000D01*
X-5004901Y+2042000D02*
X-5170000Y+2042000D01*
X-4662000Y+3375501D02*
X-4662000Y+3566000D01*
X-4827099Y+3566000D02*
X-4662000Y+3566000D01*
X-7050000Y+5753999D02*
X-7050000Y+5500000D01*
X-7050000Y+5246001D02*
X-7050000Y+5500000D01*
X-6796001Y+5500000D02*
X-7050000Y+5500000D01*
X-5996000Y+7909501D02*
X-5996000Y+8100000D01*
X-5996000Y+8290499D02*
X-5996000Y+8100000D01*
X-3354000Y+7959501D02*
X-3354000Y+8150000D01*
X-3215000Y+692501D02*
X-3215000Y+883000D01*
X-3215000Y+1073499D02*
X-3215000Y+883000D01*
X-2061001Y+3150000D02*
X-2188000Y+3150000D01*
X-2188000Y+3276999D02*
X-2188000Y+3150000D01*
X-2188000Y+3023001D02*
X-2188000Y+3150000D01*
X-6450000Y+197601D02*
X-6450000Y+350000D01*
X-6450000Y+502399D02*
X-6450000Y+350000D01*
X-6602399Y+350000D02*
X-6450000Y+350000D01*
X-6297601Y+350000D02*
X-6450000Y+350000D01*
X-7900000Y+247601D02*
X-7900000Y+400000D01*
X-7900000Y+552399D02*
X-7900000Y+400000D01*
X-8052399Y+400000D02*
X-7900000Y+400000D01*
X-7747601Y+400000D02*
X-7900000Y+400000D01*
D13*
X-4408000Y+2042000D03*
X-4662000Y+2042000D03*
X-5170000Y+2042000D03*
X-5424000Y+2042000D03*
X-5678000Y+2042000D03*
X-5932000Y+2042000D03*
X-7710000Y+3566000D03*
X-7202000Y+3566000D03*
X-6948000Y+3566000D03*
X-6186000Y+3566000D03*
X-5932000Y+3566000D03*
X-5170000Y+3566000D03*
X-4662000Y+3566000D03*
X-4408000Y+3566000D03*
D14*
X-3200000Y+7100000D03*
X-3150000Y+5500000D03*
X-7050000Y+5500000D03*
X-7050000Y+7100000D03*
D15*
X-1700000Y+7054000D03*
X-1700000Y+6800000D03*
D13*
X-5742000Y+8100000D03*
X-5996000Y+8100000D03*
X-6250000Y+8100000D03*
X-6504000Y+8100000D03*
X-3100000Y+8150000D03*
X-3354000Y+8150000D03*
X-3608000Y+8150000D03*
X-3862000Y+8150000D03*
X-1691000Y+883000D03*
X-1945000Y+883000D03*
X-2199000Y+883000D03*
X-2453000Y+883000D03*
X-2707000Y+883000D03*
X-2961000Y+883000D03*
X-3215000Y+883000D03*
X-3469000Y+883000D03*
D15*
X-4650000Y+746000D03*
X-4650000Y+1000000D03*
D16*
X-1700000Y+7400000D03*
D17*
X-2950000Y+3150000D03*
D18*
X-2696000Y+3150000D03*
X-2442000Y+3150000D03*
X-2188000Y+3150000D03*
X-2188000Y+2388000D03*
X-2442000Y+2388000D03*
X-2696000Y+2388000D03*
X-2950000Y+2388000D03*
D19*
X-5850000Y+750000D03*
X-5850000Y+1004000D03*
X-7100000Y+800000D03*
X-7100000Y+1054000D03*
D70*
X-6450000Y+350000D03*
X-6450000Y+1366000D03*
X-7900000Y+400000D03*
X-7900000Y+1416000D03*
D71*
X-8556680Y-350000D02*
X-593320Y-350000D01*
X-593320Y+9950000D01*
X-8556680Y+9950000D01*
X-8556680Y-350000D01*
M02*
