solid ASCII
  facet normal 1.440289e-16 -1.000000e+00 0.000000e+00
    outer loop
      vertex   3.900000e+01 -2.900000e+01 1.000000e+00
      vertex   -3.500000e+01 -2.900000e+01 1.000000e+00
      vertex   3.900000e+01 -2.900000e+01 1.000000e-01
    endloop
  endfacet
  facet normal 1.440289e-16 -1.000000e+00 0.000000e+00
    outer loop
      vertex   3.900000e+01 -2.900000e+01 1.000000e-01
      vertex   -3.500000e+01 -2.900000e+01 1.000000e+00
      vertex   -3.500000e+01 -2.900000e+01 1.000000e-01
    endloop
  endfacet
  facet normal 1.000000e+00 0.000000e+00 0.000000e+00
    outer loop
      vertex   3.900000e+01 2.900000e+01 1.000000e+00
      vertex   3.900000e+01 -2.900000e+01 1.000000e+00
      vertex   3.900000e+01 2.900000e+01 1.000000e-01
    endloop
  endfacet
  facet normal 1.000000e+00 0.000000e+00 0.000000e+00
    outer loop
      vertex   3.900000e+01 2.900000e+01 1.000000e-01
      vertex   3.900000e+01 -2.900000e+01 1.000000e+00
      vertex   3.900000e+01 -2.900000e+01 1.000000e-01
    endloop
  endfacet
  facet normal -2.880579e-16 1.000000e+00 0.000000e+00
    outer loop
      vertex   -3.500000e+01 2.900000e+01 1.000000e+00
      vertex   3.900000e+01 2.900000e+01 1.000000e+00
      vertex   -3.500000e+01 2.900000e+01 1.000000e-01
    endloop
  endfacet
  facet normal -2.880579e-16 1.000000e+00 0.000000e+00
    outer loop
      vertex   -3.500000e+01 2.900000e+01 1.000000e-01
      vertex   3.900000e+01 2.900000e+01 1.000000e+00
      vertex   3.900000e+01 2.900000e+01 1.000000e-01
    endloop
  endfacet
  facet normal -9.987955e-01 4.906767e-02 0.000000e+00
    outer loop
      vertex   -3.900000e+01 2.500000e+01 1.000000e-01
      vertex   -3.900000e+01 2.500000e+01 1.000000e+00
      vertex   -3.898074e+01 2.539207e+01 1.000000e-01
    endloop
  endfacet
  facet normal -9.987955e-01 4.906767e-02 0.000000e+00
    outer loop
      vertex   -3.898074e+01 2.539207e+01 1.000000e-01
      vertex   -3.900000e+01 2.500000e+01 1.000000e+00
      vertex   -3.898074e+01 2.539207e+01 1.000000e+00
    endloop
  endfacet
  facet normal -9.891765e-01 1.467305e-01 0.000000e+00
    outer loop
      vertex   -3.898074e+01 2.539207e+01 1.000000e-01
      vertex   -3.898074e+01 2.539207e+01 1.000000e+00
      vertex   -3.892314e+01 2.578036e+01 1.000000e-01
    endloop
  endfacet
  facet normal -9.891765e-01 1.467305e-01 0.000000e+00
    outer loop
      vertex   -3.892314e+01 2.578036e+01 1.000000e-01
      vertex   -3.898074e+01 2.539207e+01 1.000000e+00
      vertex   -3.892314e+01 2.578036e+01 1.000000e+00
    endloop
  endfacet
  facet normal -9.700313e-01 2.429802e-01 0.000000e+00
    outer loop
      vertex   -3.892314e+01 2.578036e+01 1.000000e-01
      vertex   -3.892314e+01 2.578036e+01 1.000000e+00
      vertex   -3.882776e+01 2.616114e+01 1.000000e-01
    endloop
  endfacet
  facet normal -9.700313e-01 2.429802e-01 0.000000e+00
    outer loop
      vertex   -3.882776e+01 2.616114e+01 1.000000e-01
      vertex   -3.892314e+01 2.578036e+01 1.000000e+00
      vertex   -3.882776e+01 2.616114e+01 1.000000e+00
    endloop
  endfacet
  facet normal -9.415441e-01 3.368899e-01 0.000000e+00
    outer loop
      vertex   -3.882776e+01 2.616114e+01 1.000000e-01
      vertex   -3.882776e+01 2.616114e+01 1.000000e+00
      vertex   -3.869552e+01 2.653073e+01 1.000000e-01
    endloop
  endfacet
  facet normal -9.415441e-01 3.368899e-01 0.000000e+00
    outer loop
      vertex   -3.869552e+01 2.653073e+01 1.000000e-01
      vertex   -3.882776e+01 2.616114e+01 1.000000e+00
      vertex   -3.869552e+01 2.653073e+01 1.000000e+00
    endloop
  endfacet
  facet normal -9.039893e-01 4.275551e-01 0.000000e+00
    outer loop
      vertex   -3.869552e+01 2.653073e+01 1.000000e-01
      vertex   -3.869552e+01 2.653073e+01 1.000000e+00
      vertex   -3.852769e+01 2.688559e+01 1.000000e-01
    endloop
  endfacet
  facet normal -9.039893e-01 4.275551e-01 0.000000e+00
    outer loop
      vertex   -3.852769e+01 2.688559e+01 1.000000e-01
      vertex   -3.869552e+01 2.653073e+01 1.000000e+00
      vertex   -3.852769e+01 2.688559e+01 1.000000e+00
    endloop
  endfacet
  facet normal -8.577286e-01 5.141027e-01 0.000000e+00
    outer loop
      vertex   -3.852769e+01 2.688559e+01 1.000000e-01
      vertex   -3.852769e+01 2.688559e+01 1.000000e+00
      vertex   -3.832588e+01 2.722228e+01 1.000000e-01
    endloop
  endfacet
  facet normal -8.577286e-01 5.141027e-01 0.000000e+00
    outer loop
      vertex   -3.832588e+01 2.722228e+01 1.000000e-01
      vertex   -3.852769e+01 2.688559e+01 1.000000e+00
      vertex   -3.832588e+01 2.722228e+01 1.000000e+00
    endloop
  endfacet
  facet normal -8.032075e-01 5.956993e-01 0.000000e+00
    outer loop
      vertex   -3.832588e+01 2.722228e+01 1.000000e-01
      vertex   -3.832588e+01 2.722228e+01 1.000000e+00
      vertex   -3.809204e+01 2.753757e+01 1.000000e-01
    endloop
  endfacet
  facet normal -8.032075e-01 5.956993e-01 0.000000e+00
    outer loop
      vertex   -3.809204e+01 2.753757e+01 1.000000e-01
      vertex   -3.832588e+01 2.722228e+01 1.000000e+00
      vertex   -3.809204e+01 2.753757e+01 1.000000e+00
    endloop
  endfacet
  facet normal -7.409511e-01 6.715590e-01 0.000000e+00
    outer loop
      vertex   -3.809204e+01 2.753757e+01 1.000000e-01
      vertex   -3.809204e+01 2.753757e+01 1.000000e+00
      vertex   -3.782843e+01 2.782843e+01 1.000000e-01
    endloop
  endfacet
  facet normal -7.409511e-01 6.715590e-01 0.000000e+00
    outer loop
      vertex   -3.782843e+01 2.782843e+01 1.000000e-01
      vertex   -3.809204e+01 2.753757e+01 1.000000e+00
      vertex   -3.782843e+01 2.782843e+01 1.000000e+00
    endloop
  endfacet
  facet normal -6.715590e-01 7.409511e-01 0.000000e+00
    outer loop
      vertex   -3.782843e+01 2.782843e+01 1.000000e-01
      vertex   -3.782843e+01 2.782843e+01 1.000000e+00
      vertex   -3.753757e+01 2.809204e+01 1.000000e-01
    endloop
  endfacet
  facet normal -6.715590e-01 7.409511e-01 0.000000e+00
    outer loop
      vertex   -3.753757e+01 2.809204e+01 1.000000e-01
      vertex   -3.782843e+01 2.782843e+01 1.000000e+00
      vertex   -3.753757e+01 2.809204e+01 1.000000e+00
    endloop
  endfacet
  facet normal -5.956993e-01 8.032075e-01 0.000000e+00
    outer loop
      vertex   -3.753757e+01 2.809204e+01 1.000000e-01
      vertex   -3.753757e+01 2.809204e+01 1.000000e+00
      vertex   -3.722228e+01 2.832588e+01 1.000000e-01
    endloop
  endfacet
  facet normal -5.956993e-01 8.032075e-01 0.000000e+00
    outer loop
      vertex   -3.722228e+01 2.832588e+01 1.000000e-01
      vertex   -3.753757e+01 2.809204e+01 1.000000e+00
      vertex   -3.722228e+01 2.832588e+01 1.000000e+00
    endloop
  endfacet
  facet normal -5.141027e-01 8.577286e-01 0.000000e+00
    outer loop
      vertex   -3.722228e+01 2.832588e+01 1.000000e-01
      vertex   -3.722228e+01 2.832588e+01 1.000000e+00
      vertex   -3.688559e+01 2.852769e+01 1.000000e-01
    endloop
  endfacet
  facet normal -5.141027e-01 8.577286e-01 0.000000e+00
    outer loop
      vertex   -3.688559e+01 2.852769e+01 1.000000e-01
      vertex   -3.722228e+01 2.832588e+01 1.000000e+00
      vertex   -3.688559e+01 2.852769e+01 1.000000e+00
    endloop
  endfacet
  facet normal -4.275551e-01 9.039893e-01 0.000000e+00
    outer loop
      vertex   -3.688559e+01 2.852769e+01 1.000000e-01
      vertex   -3.688559e+01 2.852769e+01 1.000000e+00
      vertex   -3.653073e+01 2.869552e+01 1.000000e-01
    endloop
  endfacet
  facet normal -4.275551e-01 9.039893e-01 0.000000e+00
    outer loop
      vertex   -3.653073e+01 2.869552e+01 1.000000e-01
      vertex   -3.688559e+01 2.852769e+01 1.000000e+00
      vertex   -3.653073e+01 2.869552e+01 1.000000e+00
    endloop
  endfacet
  facet normal -3.368899e-01 9.415441e-01 0.000000e+00
    outer loop
      vertex   -3.653073e+01 2.869552e+01 1.000000e-01
      vertex   -3.653073e+01 2.869552e+01 1.000000e+00
      vertex   -3.616114e+01 2.882776e+01 1.000000e-01
    endloop
  endfacet
  facet normal -3.368899e-01 9.415441e-01 0.000000e+00
    outer loop
      vertex   -3.616114e+01 2.882776e+01 1.000000e-01
      vertex   -3.653073e+01 2.869552e+01 1.000000e+00
      vertex   -3.616114e+01 2.882776e+01 1.000000e+00
    endloop
  endfacet
  facet normal -2.429802e-01 9.700313e-01 0.000000e+00
    outer loop
      vertex   -3.616114e+01 2.882776e+01 1.000000e-01
      vertex   -3.616114e+01 2.882776e+01 1.000000e+00
      vertex   -3.578036e+01 2.892314e+01 1.000000e-01
    endloop
  endfacet
  facet normal -2.429802e-01 9.700313e-01 0.000000e+00
    outer loop
      vertex   -3.578036e+01 2.892314e+01 1.000000e-01
      vertex   -3.616114e+01 2.882776e+01 1.000000e+00
      vertex   -3.578036e+01 2.892314e+01 1.000000e+00
    endloop
  endfacet
  facet normal -1.467305e-01 9.891765e-01 0.000000e+00
    outer loop
      vertex   -3.578036e+01 2.892314e+01 1.000000e-01
      vertex   -3.578036e+01 2.892314e+01 1.000000e+00
      vertex   -3.539207e+01 2.898074e+01 1.000000e-01
    endloop
  endfacet
  facet normal -1.467305e-01 9.891765e-01 0.000000e+00
    outer loop
      vertex   -3.539207e+01 2.898074e+01 1.000000e-01
      vertex   -3.578036e+01 2.892314e+01 1.000000e+00
      vertex   -3.539207e+01 2.898074e+01 1.000000e+00
    endloop
  endfacet
  facet normal -4.906767e-02 9.987955e-01 0.000000e+00
    outer loop
      vertex   -3.539207e+01 2.898074e+01 1.000000e-01
      vertex   -3.539207e+01 2.898074e+01 1.000000e+00
      vertex   -3.500000e+01 2.900000e+01 1.000000e-01
    endloop
  endfacet
  facet normal -4.906767e-02 9.987955e-01 0.000000e+00
    outer loop
      vertex   -3.500000e+01 2.900000e+01 1.000000e-01
      vertex   -3.539207e+01 2.898074e+01 1.000000e+00
      vertex   -3.500000e+01 2.900000e+01 1.000000e+00
    endloop
  endfacet
  facet normal -1.000000e+00 -1.421085e-16 -0.000000e+00
    outer loop
      vertex   -3.900000e+01 -2.500000e+01 1.000000e+00
      vertex   -3.900000e+01 2.500000e+01 1.000000e+00
      vertex   -3.900000e+01 -2.500000e+01 1.000000e-01
    endloop
  endfacet
  facet normal -1.000000e+00 -1.421085e-16 0.000000e+00
    outer loop
      vertex   -3.900000e+01 -2.500000e+01 1.000000e-01
      vertex   -3.900000e+01 2.500000e+01 1.000000e+00
      vertex   -3.900000e+01 2.500000e+01 1.000000e-01
    endloop
  endfacet
  facet normal -4.906767e-02 -9.987955e-01 0.000000e+00
    outer loop
      vertex   -3.500000e+01 -2.900000e+01 1.000000e-01
      vertex   -3.500000e+01 -2.900000e+01 1.000000e+00
      vertex   -3.539207e+01 -2.898074e+01 1.000000e-01
    endloop
  endfacet
  facet normal -4.906767e-02 -9.987955e-01 0.000000e+00
    outer loop
      vertex   -3.539207e+01 -2.898074e+01 1.000000e-01
      vertex   -3.500000e+01 -2.900000e+01 1.000000e+00
      vertex   -3.539207e+01 -2.898074e+01 1.000000e+00
    endloop
  endfacet
  facet normal -1.467305e-01 -9.891765e-01 0.000000e+00
    outer loop
      vertex   -3.539207e+01 -2.898074e+01 1.000000e-01
      vertex   -3.539207e+01 -2.898074e+01 1.000000e+00
      vertex   -3.578036e+01 -2.892314e+01 1.000000e-01
    endloop
  endfacet
  facet normal -1.467305e-01 -9.891765e-01 0.000000e+00
    outer loop
      vertex   -3.578036e+01 -2.892314e+01 1.000000e-01
      vertex   -3.539207e+01 -2.898074e+01 1.000000e+00
      vertex   -3.578036e+01 -2.892314e+01 1.000000e+00
    endloop
  endfacet
  facet normal -2.429802e-01 -9.700313e-01 0.000000e+00
    outer loop
      vertex   -3.578036e+01 -2.892314e+01 1.000000e-01
      vertex   -3.578036e+01 -2.892314e+01 1.000000e+00
      vertex   -3.616114e+01 -2.882776e+01 1.000000e-01
    endloop
  endfacet
  facet normal -2.429802e-01 -9.700313e-01 0.000000e+00
    outer loop
      vertex   -3.616114e+01 -2.882776e+01 1.000000e-01
      vertex   -3.578036e+01 -2.892314e+01 1.000000e+00
      vertex   -3.616114e+01 -2.882776e+01 1.000000e+00
    endloop
  endfacet
  facet normal -3.368899e-01 -9.415441e-01 0.000000e+00
    outer loop
      vertex   -3.616114e+01 -2.882776e+01 1.000000e-01
      vertex   -3.616114e+01 -2.882776e+01 1.000000e+00
      vertex   -3.653073e+01 -2.869552e+01 1.000000e-01
    endloop
  endfacet
  facet normal -3.368899e-01 -9.415441e-01 0.000000e+00
    outer loop
      vertex   -3.653073e+01 -2.869552e+01 1.000000e-01
      vertex   -3.616114e+01 -2.882776e+01 1.000000e+00
      vertex   -3.653073e+01 -2.869552e+01 1.000000e+00
    endloop
  endfacet
  facet normal -4.275551e-01 -9.039893e-01 0.000000e+00
    outer loop
      vertex   -3.653073e+01 -2.869552e+01 1.000000e-01
      vertex   -3.653073e+01 -2.869552e+01 1.000000e+00
      vertex   -3.688559e+01 -2.852769e+01 1.000000e-01
    endloop
  endfacet
  facet normal -4.275551e-01 -9.039893e-01 0.000000e+00
    outer loop
      vertex   -3.688559e+01 -2.852769e+01 1.000000e-01
      vertex   -3.653073e+01 -2.869552e+01 1.000000e+00
      vertex   -3.688559e+01 -2.852769e+01 1.000000e+00
    endloop
  endfacet
  facet normal -5.141027e-01 -8.577286e-01 0.000000e+00
    outer loop
      vertex   -3.688559e+01 -2.852769e+01 1.000000e-01
      vertex   -3.688559e+01 -2.852769e+01 1.000000e+00
      vertex   -3.722228e+01 -2.832588e+01 1.000000e-01
    endloop
  endfacet
  facet normal -5.141027e-01 -8.577286e-01 0.000000e+00
    outer loop
      vertex   -3.722228e+01 -2.832588e+01 1.000000e-01
      vertex   -3.688559e+01 -2.852769e+01 1.000000e+00
      vertex   -3.722228e+01 -2.832588e+01 1.000000e+00
    endloop
  endfacet
  facet normal -5.956993e-01 -8.032075e-01 0.000000e+00
    outer loop
      vertex   -3.722228e+01 -2.832588e+01 1.000000e-01
      vertex   -3.722228e+01 -2.832588e+01 1.000000e+00
      vertex   -3.753757e+01 -2.809204e+01 1.000000e-01
    endloop
  endfacet
  facet normal -5.956993e-01 -8.032075e-01 0.000000e+00
    outer loop
      vertex   -3.753757e+01 -2.809204e+01 1.000000e-01
      vertex   -3.722228e+01 -2.832588e+01 1.000000e+00
      vertex   -3.753757e+01 -2.809204e+01 1.000000e+00
    endloop
  endfacet
  facet normal -6.715590e-01 -7.409511e-01 0.000000e+00
    outer loop
      vertex   -3.753757e+01 -2.809204e+01 1.000000e-01
      vertex   -3.753757e+01 -2.809204e+01 1.000000e+00
      vertex   -3.782843e+01 -2.782843e+01 1.000000e-01
    endloop
  endfacet
  facet normal -6.715590e-01 -7.409511e-01 0.000000e+00
    outer loop
      vertex   -3.782843e+01 -2.782843e+01 1.000000e-01
      vertex   -3.753757e+01 -2.809204e+01 1.000000e+00
      vertex   -3.782843e+01 -2.782843e+01 1.000000e+00
    endloop
  endfacet
  facet normal -7.409511e-01 -6.715590e-01 0.000000e+00
    outer loop
      vertex   -3.782843e+01 -2.782843e+01 1.000000e-01
      vertex   -3.782843e+01 -2.782843e+01 1.000000e+00
      vertex   -3.809204e+01 -2.753757e+01 1.000000e-01
    endloop
  endfacet
  facet normal -7.409511e-01 -6.715590e-01 0.000000e+00
    outer loop
      vertex   -3.809204e+01 -2.753757e+01 1.000000e-01
      vertex   -3.782843e+01 -2.782843e+01 1.000000e+00
      vertex   -3.809204e+01 -2.753757e+01 1.000000e+00
    endloop
  endfacet
  facet normal -8.032075e-01 -5.956993e-01 0.000000e+00
    outer loop
      vertex   -3.809204e+01 -2.753757e+01 1.000000e-01
      vertex   -3.809204e+01 -2.753757e+01 1.000000e+00
      vertex   -3.832588e+01 -2.722228e+01 1.000000e-01
    endloop
  endfacet
  facet normal -8.032075e-01 -5.956993e-01 0.000000e+00
    outer loop
      vertex   -3.832588e+01 -2.722228e+01 1.000000e-01
      vertex   -3.809204e+01 -2.753757e+01 1.000000e+00
      vertex   -3.832588e+01 -2.722228e+01 1.000000e+00
    endloop
  endfacet
  facet normal -8.577286e-01 -5.141027e-01 0.000000e+00
    outer loop
      vertex   -3.832588e+01 -2.722228e+01 1.000000e-01
      vertex   -3.832588e+01 -2.722228e+01 1.000000e+00
      vertex   -3.852769e+01 -2.688559e+01 1.000000e-01
    endloop
  endfacet
  facet normal -8.577286e-01 -5.141027e-01 0.000000e+00
    outer loop
      vertex   -3.852769e+01 -2.688559e+01 1.000000e-01
      vertex   -3.832588e+01 -2.722228e+01 1.000000e+00
      vertex   -3.852769e+01 -2.688559e+01 1.000000e+00
    endloop
  endfacet
  facet normal -9.039893e-01 -4.275551e-01 0.000000e+00
    outer loop
      vertex   -3.852769e+01 -2.688559e+01 1.000000e-01
      vertex   -3.852769e+01 -2.688559e+01 1.000000e+00
      vertex   -3.869552e+01 -2.653073e+01 1.000000e-01
    endloop
  endfacet
  facet normal -9.039893e-01 -4.275551e-01 0.000000e+00
    outer loop
      vertex   -3.869552e+01 -2.653073e+01 1.000000e-01
      vertex   -3.852769e+01 -2.688559e+01 1.000000e+00
      vertex   -3.869552e+01 -2.653073e+01 1.000000e+00
    endloop
  endfacet
  facet normal -9.415441e-01 -3.368899e-01 0.000000e+00
    outer loop
      vertex   -3.869552e+01 -2.653073e+01 1.000000e-01
      vertex   -3.869552e+01 -2.653073e+01 1.000000e+00
      vertex   -3.882776e+01 -2.616114e+01 1.000000e-01
    endloop
  endfacet
  facet normal -9.415441e-01 -3.368899e-01 0.000000e+00
    outer loop
      vertex   -3.882776e+01 -2.616114e+01 1.000000e-01
      vertex   -3.869552e+01 -2.653073e+01 1.000000e+00
      vertex   -3.882776e+01 -2.616114e+01 1.000000e+00
    endloop
  endfacet
  facet normal -9.700313e-01 -2.429802e-01 0.000000e+00
    outer loop
      vertex   -3.882776e+01 -2.616114e+01 1.000000e-01
      vertex   -3.882776e+01 -2.616114e+01 1.000000e+00
      vertex   -3.892314e+01 -2.578036e+01 1.000000e-01
    endloop
  endfacet
  facet normal -9.700313e-01 -2.429802e-01 0.000000e+00
    outer loop
      vertex   -3.892314e+01 -2.578036e+01 1.000000e-01
      vertex   -3.882776e+01 -2.616114e+01 1.000000e+00
      vertex   -3.892314e+01 -2.578036e+01 1.000000e+00
    endloop
  endfacet
  facet normal -9.891765e-01 -1.467305e-01 0.000000e+00
    outer loop
      vertex   -3.892314e+01 -2.578036e+01 1.000000e-01
      vertex   -3.892314e+01 -2.578036e+01 1.000000e+00
      vertex   -3.898074e+01 -2.539207e+01 1.000000e-01
    endloop
  endfacet
  facet normal -9.891765e-01 -1.467305e-01 0.000000e+00
    outer loop
      vertex   -3.898074e+01 -2.539207e+01 1.000000e-01
      vertex   -3.892314e+01 -2.578036e+01 1.000000e+00
      vertex   -3.898074e+01 -2.539207e+01 1.000000e+00
    endloop
  endfacet
  facet normal -9.987955e-01 -4.906767e-02 0.000000e+00
    outer loop
      vertex   -3.898074e+01 -2.539207e+01 1.000000e-01
      vertex   -3.898074e+01 -2.539207e+01 1.000000e+00
      vertex   -3.900000e+01 -2.500000e+01 1.000000e-01
    endloop
  endfacet
  facet normal -9.987955e-01 -4.906767e-02 0.000000e+00
    outer loop
      vertex   -3.900000e+01 -2.500000e+01 1.000000e-01
      vertex   -3.898074e+01 -2.539207e+01 1.000000e+00
      vertex   -3.900000e+01 -2.500000e+01 1.000000e+00
    endloop
  endfacet
  facet normal 0.000000e+00 0.000000e+00 -1.000000e+00
    outer loop
      vertex   -3.539207e+01 -2.898074e+01 1.000000e-01
      vertex   -3.578036e+01 -2.892314e+01 1.000000e-01
      vertex   -3.500000e+01 -2.900000e+01 1.000000e-01
    endloop
  endfacet
  facet normal 0.000000e+00 0.000000e+00 -1.000000e+00
    outer loop
      vertex   -3.500000e+01 -2.900000e+01 1.000000e-01
      vertex   -3.578036e+01 -2.892314e+01 1.000000e-01
      vertex   -3.616114e+01 -2.882776e+01 1.000000e-01
    endloop
  endfacet
  facet normal 0.000000e+00 0.000000e+00 -1.000000e+00
    outer loop
      vertex   -3.500000e+01 -2.900000e+01 1.000000e-01
      vertex   -3.616114e+01 -2.882776e+01 1.000000e-01
      vertex   -3.653073e+01 -2.869552e+01 1.000000e-01
    endloop
  endfacet
  facet normal 0.000000e+00 0.000000e+00 -1.000000e+00
    outer loop
      vertex   -3.653073e+01 -2.869552e+01 1.000000e-01
      vertex   -3.688559e+01 -2.852769e+01 1.000000e-01
      vertex   -3.500000e+01 -2.900000e+01 1.000000e-01
    endloop
  endfacet
  facet normal 0.000000e+00 0.000000e+00 -1.000000e+00
    outer loop
      vertex   -3.500000e+01 -2.900000e+01 1.000000e-01
      vertex   -3.688559e+01 -2.852769e+01 1.000000e-01
      vertex   -3.722228e+01 -2.832588e+01 1.000000e-01
    endloop
  endfacet
  facet normal 0.000000e+00 0.000000e+00 -1.000000e+00
    outer loop
      vertex   -3.500000e+01 -2.900000e+01 1.000000e-01
      vertex   -3.722228e+01 -2.832588e+01 1.000000e-01
      vertex   -3.753757e+01 -2.809204e+01 1.000000e-01
    endloop
  endfacet
  facet normal 0.000000e+00 0.000000e+00 -1.000000e+00
    outer loop
      vertex   -3.753757e+01 -2.809204e+01 1.000000e-01
      vertex   -3.782843e+01 -2.782843e+01 1.000000e-01
      vertex   -3.500000e+01 -2.900000e+01 1.000000e-01
    endloop
  endfacet
  facet normal 0.000000e+00 0.000000e+00 -1.000000e+00
    outer loop
      vertex   -3.500000e+01 -2.900000e+01 1.000000e-01
      vertex   -3.782843e+01 -2.782843e+01 1.000000e-01
      vertex   -3.809204e+01 -2.753757e+01 1.000000e-01
    endloop
  endfacet
  facet normal 0.000000e+00 0.000000e+00 -1.000000e+00
    outer loop
      vertex   -3.500000e+01 -2.900000e+01 1.000000e-01
      vertex   -3.809204e+01 -2.753757e+01 1.000000e-01
      vertex   -3.832588e+01 -2.722228e+01 1.000000e-01
    endloop
  endfacet
  facet normal 0.000000e+00 0.000000e+00 -1.000000e+00
    outer loop
      vertex   -3.832588e+01 -2.722228e+01 1.000000e-01
      vertex   -3.852769e+01 -2.688559e+01 1.000000e-01
      vertex   -3.500000e+01 -2.900000e+01 1.000000e-01
    endloop
  endfacet
  facet normal 0.000000e+00 0.000000e+00 -1.000000e+00
    outer loop
      vertex   -3.500000e+01 -2.900000e+01 1.000000e-01
      vertex   -3.852769e+01 -2.688559e+01 1.000000e-01
      vertex   -3.869552e+01 -2.653073e+01 1.000000e-01
    endloop
  endfacet
  facet normal 0.000000e+00 0.000000e+00 -1.000000e+00
    outer loop
      vertex   -3.500000e+01 -2.900000e+01 1.000000e-01
      vertex   -3.869552e+01 -2.653073e+01 1.000000e-01
      vertex   -3.882776e+01 -2.616114e+01 1.000000e-01
    endloop
  endfacet
  facet normal 0.000000e+00 0.000000e+00 -1.000000e+00
    outer loop
      vertex   -3.882776e+01 -2.616114e+01 1.000000e-01
      vertex   -3.892314e+01 -2.578036e+01 1.000000e-01
      vertex   -3.500000e+01 -2.900000e+01 1.000000e-01
    endloop
  endfacet
  facet normal 0.000000e+00 0.000000e+00 -1.000000e+00
    outer loop
      vertex   -3.500000e+01 -2.900000e+01 1.000000e-01
      vertex   -3.892314e+01 -2.578036e+01 1.000000e-01
      vertex   -3.898074e+01 -2.539207e+01 1.000000e-01
    endloop
  endfacet
  facet normal 0.000000e+00 0.000000e+00 -1.000000e+00
    outer loop
      vertex   -3.500000e+01 -2.900000e+01 1.000000e-01
      vertex   -3.898074e+01 -2.539207e+01 1.000000e-01
      vertex   -3.900000e+01 -2.500000e+01 1.000000e-01
    endloop
  endfacet
  facet normal 0.000000e+00 0.000000e+00 -1.000000e+00
    outer loop
      vertex   -3.900000e+01 2.500000e+01 1.000000e-01
      vertex   3.900000e+01 2.900000e+01 1.000000e-01
      vertex   -3.900000e+01 -2.500000e+01 1.000000e-01
    endloop
  endfacet
  facet normal 0.000000e+00 0.000000e+00 -1.000000e+00
    outer loop
      vertex   -3.900000e+01 -2.500000e+01 1.000000e-01
      vertex   3.900000e+01 2.900000e+01 1.000000e-01
      vertex   3.900000e+01 -2.900000e+01 1.000000e-01
    endloop
  endfacet
  facet normal 0.000000e+00 0.000000e+00 -1.000000e+00
    outer loop
      vertex   -3.900000e+01 -2.500000e+01 1.000000e-01
      vertex   3.900000e+01 -2.900000e+01 1.000000e-01
      vertex   -3.500000e+01 -2.900000e+01 1.000000e-01
    endloop
  endfacet
  facet normal 0.000000e+00 0.000000e+00 -1.000000e+00
    outer loop
      vertex   3.900000e+01 2.900000e+01 1.000000e-01
      vertex   -3.900000e+01 2.500000e+01 1.000000e-01
      vertex   -3.539207e+01 2.898074e+01 1.000000e-01
    endloop
  endfacet
  facet normal 0.000000e+00 0.000000e+00 -1.000000e+00
    outer loop
      vertex   -3.539207e+01 2.898074e+01 1.000000e-01
      vertex   -3.900000e+01 2.500000e+01 1.000000e-01
      vertex   -3.898074e+01 2.539207e+01 1.000000e-01
    endloop
  endfacet
  facet normal 0.000000e+00 0.000000e+00 -1.000000e+00
    outer loop
      vertex   -3.539207e+01 2.898074e+01 1.000000e-01
      vertex   -3.898074e+01 2.539207e+01 1.000000e-01
      vertex   -3.892314e+01 2.578036e+01 1.000000e-01
    endloop
  endfacet
  facet normal 0.000000e+00 0.000000e+00 -1.000000e+00
    outer loop
      vertex   -3.892314e+01 2.578036e+01 1.000000e-01
      vertex   -3.882776e+01 2.616114e+01 1.000000e-01
      vertex   -3.539207e+01 2.898074e+01 1.000000e-01
    endloop
  endfacet
  facet normal 0.000000e+00 0.000000e+00 -1.000000e+00
    outer loop
      vertex   -3.539207e+01 2.898074e+01 1.000000e-01
      vertex   -3.882776e+01 2.616114e+01 1.000000e-01
      vertex   -3.869552e+01 2.653073e+01 1.000000e-01
    endloop
  endfacet
  facet normal 0.000000e+00 0.000000e+00 -1.000000e+00
    outer loop
      vertex   -3.539207e+01 2.898074e+01 1.000000e-01
      vertex   -3.869552e+01 2.653073e+01 1.000000e-01
      vertex   -3.852769e+01 2.688559e+01 1.000000e-01
    endloop
  endfacet
  facet normal 0.000000e+00 0.000000e+00 -1.000000e+00
    outer loop
      vertex   -3.852769e+01 2.688559e+01 1.000000e-01
      vertex   -3.832588e+01 2.722228e+01 1.000000e-01
      vertex   -3.539207e+01 2.898074e+01 1.000000e-01
    endloop
  endfacet
  facet normal 0.000000e+00 0.000000e+00 -1.000000e+00
    outer loop
      vertex   -3.539207e+01 2.898074e+01 1.000000e-01
      vertex   -3.832588e+01 2.722228e+01 1.000000e-01
      vertex   -3.809204e+01 2.753757e+01 1.000000e-01
    endloop
  endfacet
  facet normal 0.000000e+00 0.000000e+00 -1.000000e+00
    outer loop
      vertex   -3.539207e+01 2.898074e+01 1.000000e-01
      vertex   -3.809204e+01 2.753757e+01 1.000000e-01
      vertex   -3.782843e+01 2.782843e+01 1.000000e-01
    endloop
  endfacet
  facet normal 0.000000e+00 0.000000e+00 -1.000000e+00
    outer loop
      vertex   -3.782843e+01 2.782843e+01 1.000000e-01
      vertex   -3.753757e+01 2.809204e+01 1.000000e-01
      vertex   -3.539207e+01 2.898074e+01 1.000000e-01
    endloop
  endfacet
  facet normal 0.000000e+00 0.000000e+00 -1.000000e+00
    outer loop
      vertex   -3.539207e+01 2.898074e+01 1.000000e-01
      vertex   -3.753757e+01 2.809204e+01 1.000000e-01
      vertex   -3.722228e+01 2.832588e+01 1.000000e-01
    endloop
  endfacet
  facet normal 0.000000e+00 0.000000e+00 -1.000000e+00
    outer loop
      vertex   -3.539207e+01 2.898074e+01 1.000000e-01
      vertex   -3.722228e+01 2.832588e+01 1.000000e-01
      vertex   -3.688559e+01 2.852769e+01 1.000000e-01
    endloop
  endfacet
  facet normal 0.000000e+00 0.000000e+00 -1.000000e+00
    outer loop
      vertex   -3.688559e+01 2.852769e+01 1.000000e-01
      vertex   -3.653073e+01 2.869552e+01 1.000000e-01
      vertex   -3.539207e+01 2.898074e+01 1.000000e-01
    endloop
  endfacet
  facet normal 0.000000e+00 0.000000e+00 -1.000000e+00
    outer loop
      vertex   -3.539207e+01 2.898074e+01 1.000000e-01
      vertex   -3.653073e+01 2.869552e+01 1.000000e-01
      vertex   -3.578036e+01 2.892314e+01 1.000000e-01
    endloop
  endfacet
  facet normal 0.000000e+00 0.000000e+00 -1.000000e+00
    outer loop
      vertex   -3.578036e+01 2.892314e+01 1.000000e-01
      vertex   -3.653073e+01 2.869552e+01 1.000000e-01
      vertex   -3.616114e+01 2.882776e+01 1.000000e-01
    endloop
  endfacet
  facet normal 0.000000e+00 0.000000e+00 -1.000000e+00
    outer loop
      vertex   -3.539207e+01 2.898074e+01 1.000000e-01
      vertex   -3.500000e+01 2.900000e+01 1.000000e-01
      vertex   3.900000e+01 2.900000e+01 1.000000e-01
    endloop
  endfacet
  facet normal -0.000000e+00 -0.000000e+00 1.000000e+00
    outer loop
      vertex   -3.898074e+01 -2.539207e+01 1.000000e+00
      vertex   -3.500000e+01 -2.900000e+01 1.000000e+00
      vertex   -3.900000e+01 -2.500000e+01 1.000000e+00
    endloop
  endfacet
  facet normal 0.000000e+00 0.000000e+00 1.000000e+00
    outer loop
      vertex   -3.900000e+01 -2.500000e+01 1.000000e+00
      vertex   -3.500000e+01 -2.900000e+01 1.000000e+00
      vertex   3.900000e+01 -2.900000e+01 1.000000e+00
    endloop
  endfacet
  facet normal -0.000000e+00 0.000000e+00 1.000000e+00
    outer loop
      vertex   -3.900000e+01 -2.500000e+01 1.000000e+00
      vertex   3.900000e+01 -2.900000e+01 1.000000e+00
      vertex   3.900000e+01 2.900000e+01 1.000000e+00
    endloop
  endfacet
  facet normal 0.000000e+00 0.000000e+00 1.000000e+00
    outer loop
      vertex   -3.898074e+01 -2.539207e+01 1.000000e+00
      vertex   -3.892314e+01 -2.578036e+01 1.000000e+00
      vertex   -3.500000e+01 -2.900000e+01 1.000000e+00
    endloop
  endfacet
  facet normal 0.000000e+00 0.000000e+00 1.000000e+00
    outer loop
      vertex   -3.500000e+01 -2.900000e+01 1.000000e+00
      vertex   -3.892314e+01 -2.578036e+01 1.000000e+00
      vertex   -3.882776e+01 -2.616114e+01 1.000000e+00
    endloop
  endfacet
  facet normal 0.000000e+00 0.000000e+00 1.000000e+00
    outer loop
      vertex   -3.500000e+01 -2.900000e+01 1.000000e+00
      vertex   -3.882776e+01 -2.616114e+01 1.000000e+00
      vertex   -3.869552e+01 -2.653073e+01 1.000000e+00
    endloop
  endfacet
  facet normal 0.000000e+00 0.000000e+00 1.000000e+00
    outer loop
      vertex   -3.869552e+01 -2.653073e+01 1.000000e+00
      vertex   -3.852769e+01 -2.688559e+01 1.000000e+00
      vertex   -3.500000e+01 -2.900000e+01 1.000000e+00
    endloop
  endfacet
  facet normal 0.000000e+00 0.000000e+00 1.000000e+00
    outer loop
      vertex   -3.500000e+01 -2.900000e+01 1.000000e+00
      vertex   -3.852769e+01 -2.688559e+01 1.000000e+00
      vertex   -3.832588e+01 -2.722228e+01 1.000000e+00
    endloop
  endfacet
  facet normal 0.000000e+00 0.000000e+00 1.000000e+00
    outer loop
      vertex   -3.500000e+01 -2.900000e+01 1.000000e+00
      vertex   -3.832588e+01 -2.722228e+01 1.000000e+00
      vertex   -3.809204e+01 -2.753757e+01 1.000000e+00
    endloop
  endfacet
  facet normal 0.000000e+00 0.000000e+00 1.000000e+00
    outer loop
      vertex   -3.809204e+01 -2.753757e+01 1.000000e+00
      vertex   -3.782843e+01 -2.782843e+01 1.000000e+00
      vertex   -3.500000e+01 -2.900000e+01 1.000000e+00
    endloop
  endfacet
  facet normal 0.000000e+00 0.000000e+00 1.000000e+00
    outer loop
      vertex   -3.500000e+01 -2.900000e+01 1.000000e+00
      vertex   -3.782843e+01 -2.782843e+01 1.000000e+00
      vertex   -3.753757e+01 -2.809204e+01 1.000000e+00
    endloop
  endfacet
  facet normal 0.000000e+00 0.000000e+00 1.000000e+00
    outer loop
      vertex   -3.500000e+01 -2.900000e+01 1.000000e+00
      vertex   -3.753757e+01 -2.809204e+01 1.000000e+00
      vertex   -3.722228e+01 -2.832588e+01 1.000000e+00
    endloop
  endfacet
  facet normal 0.000000e+00 0.000000e+00 1.000000e+00
    outer loop
      vertex   -3.722228e+01 -2.832588e+01 1.000000e+00
      vertex   -3.688559e+01 -2.852769e+01 1.000000e+00
      vertex   -3.500000e+01 -2.900000e+01 1.000000e+00
    endloop
  endfacet
  facet normal 0.000000e+00 0.000000e+00 1.000000e+00
    outer loop
      vertex   -3.500000e+01 -2.900000e+01 1.000000e+00
      vertex   -3.688559e+01 -2.852769e+01 1.000000e+00
      vertex   -3.653073e+01 -2.869552e+01 1.000000e+00
    endloop
  endfacet
  facet normal 0.000000e+00 0.000000e+00 1.000000e+00
    outer loop
      vertex   -3.500000e+01 -2.900000e+01 1.000000e+00
      vertex   -3.653073e+01 -2.869552e+01 1.000000e+00
      vertex   -3.616114e+01 -2.882776e+01 1.000000e+00
    endloop
  endfacet
  facet normal 0.000000e+00 0.000000e+00 1.000000e+00
    outer loop
      vertex   -3.616114e+01 -2.882776e+01 1.000000e+00
      vertex   -3.578036e+01 -2.892314e+01 1.000000e+00
      vertex   -3.500000e+01 -2.900000e+01 1.000000e+00
    endloop
  endfacet
  facet normal 0.000000e+00 0.000000e+00 1.000000e+00
    outer loop
      vertex   -3.500000e+01 -2.900000e+01 1.000000e+00
      vertex   -3.578036e+01 -2.892314e+01 1.000000e+00
      vertex   -3.539207e+01 -2.898074e+01 1.000000e+00
    endloop
  endfacet
  facet normal -0.000000e+00 0.000000e+00 1.000000e+00
    outer loop
      vertex   -3.500000e+01 2.900000e+01 1.000000e+00
      vertex   -3.539207e+01 2.898074e+01 1.000000e+00
      vertex   3.900000e+01 2.900000e+01 1.000000e+00
    endloop
  endfacet
  facet normal 0.000000e+00 0.000000e+00 1.000000e+00
    outer loop
      vertex   3.900000e+01 2.900000e+01 1.000000e+00
      vertex   -3.539207e+01 2.898074e+01 1.000000e+00
      vertex   -3.900000e+01 2.500000e+01 1.000000e+00
    endloop
  endfacet
  facet normal 0.000000e+00 0.000000e+00 1.000000e+00
    outer loop
      vertex   3.900000e+01 2.900000e+01 1.000000e+00
      vertex   -3.900000e+01 2.500000e+01 1.000000e+00
      vertex   -3.900000e+01 -2.500000e+01 1.000000e+00
    endloop
  endfacet
  facet normal -0.000000e+00 0.000000e+00 1.000000e+00
    outer loop
      vertex   -3.578036e+01 2.892314e+01 1.000000e+00
      vertex   -3.688559e+01 2.852769e+01 1.000000e+00
      vertex   -3.539207e+01 2.898074e+01 1.000000e+00
    endloop
  endfacet
  facet normal 0.000000e+00 0.000000e+00 1.000000e+00
    outer loop
      vertex   -3.539207e+01 2.898074e+01 1.000000e+00
      vertex   -3.688559e+01 2.852769e+01 1.000000e+00
      vertex   -3.722228e+01 2.832588e+01 1.000000e+00
    endloop
  endfacet
  facet normal 0.000000e+00 0.000000e+00 1.000000e+00
    outer loop
      vertex   -3.539207e+01 2.898074e+01 1.000000e+00
      vertex   -3.722228e+01 2.832588e+01 1.000000e+00
      vertex   -3.753757e+01 2.809204e+01 1.000000e+00
    endloop
  endfacet
  facet normal -0.000000e+00 0.000000e+00 1.000000e+00
    outer loop
      vertex   -3.616114e+01 2.882776e+01 1.000000e+00
      vertex   -3.653073e+01 2.869552e+01 1.000000e+00
      vertex   -3.578036e+01 2.892314e+01 1.000000e+00
    endloop
  endfacet
  facet normal 0.000000e+00 0.000000e+00 1.000000e+00
    outer loop
      vertex   -3.578036e+01 2.892314e+01 1.000000e+00
      vertex   -3.653073e+01 2.869552e+01 1.000000e+00
      vertex   -3.688559e+01 2.852769e+01 1.000000e+00
    endloop
  endfacet
  facet normal -0.000000e+00 0.000000e+00 1.000000e+00
    outer loop
      vertex   -3.753757e+01 2.809204e+01 1.000000e+00
      vertex   -3.782843e+01 2.782843e+01 1.000000e+00
      vertex   -3.539207e+01 2.898074e+01 1.000000e+00
    endloop
  endfacet
  facet normal 0.000000e+00 0.000000e+00 1.000000e+00
    outer loop
      vertex   -3.539207e+01 2.898074e+01 1.000000e+00
      vertex   -3.782843e+01 2.782843e+01 1.000000e+00
      vertex   -3.809204e+01 2.753757e+01 1.000000e+00
    endloop
  endfacet
  facet normal 0.000000e+00 0.000000e+00 1.000000e+00
    outer loop
      vertex   -3.539207e+01 2.898074e+01 1.000000e+00
      vertex   -3.809204e+01 2.753757e+01 1.000000e+00
      vertex   -3.832588e+01 2.722228e+01 1.000000e+00
    endloop
  endfacet
  facet normal -0.000000e+00 0.000000e+00 1.000000e+00
    outer loop
      vertex   -3.832588e+01 2.722228e+01 1.000000e+00
      vertex   -3.852769e+01 2.688559e+01 1.000000e+00
      vertex   -3.539207e+01 2.898074e+01 1.000000e+00
    endloop
  endfacet
  facet normal 0.000000e+00 0.000000e+00 1.000000e+00
    outer loop
      vertex   -3.539207e+01 2.898074e+01 1.000000e+00
      vertex   -3.852769e+01 2.688559e+01 1.000000e+00
      vertex   -3.869552e+01 2.653073e+01 1.000000e+00
    endloop
  endfacet
  facet normal 0.000000e+00 0.000000e+00 1.000000e+00
    outer loop
      vertex   -3.539207e+01 2.898074e+01 1.000000e+00
      vertex   -3.869552e+01 2.653073e+01 1.000000e+00
      vertex   -3.882776e+01 2.616114e+01 1.000000e+00
    endloop
  endfacet
  facet normal -0.000000e+00 0.000000e+00 1.000000e+00
    outer loop
      vertex   -3.882776e+01 2.616114e+01 1.000000e+00
      vertex   -3.892314e+01 2.578036e+01 1.000000e+00
      vertex   -3.539207e+01 2.898074e+01 1.000000e+00
    endloop
  endfacet
  facet normal 0.000000e+00 0.000000e+00 1.000000e+00
    outer loop
      vertex   -3.539207e+01 2.898074e+01 1.000000e+00
      vertex   -3.892314e+01 2.578036e+01 1.000000e+00
      vertex   -3.898074e+01 2.539207e+01 1.000000e+00
    endloop
  endfacet
  facet normal 0.000000e+00 0.000000e+00 1.000000e+00
    outer loop
      vertex   -3.539207e+01 2.898074e+01 1.000000e+00
      vertex   -3.898074e+01 2.539207e+01 1.000000e+00
      vertex   -3.900000e+01 2.500000e+01 1.000000e+00
    endloop
  endfacet
endsolid
