G04 PROTEUS GERBER X2 FILE*
%TF.GenerationSoftware,Labcenter,Proteus,8.15-SP1-Build34318*%
%TF.CreationDate,2023-09-26T11:23:09+00:00*%
%TF.FileFunction,AssemblyDrawing,Top*%
%TF.FilePolarity,Positive*%
%TF.Part,Single*%
%TF.SameCoordinates,{55f2b303-2a82-4880-9e88-0068297effa7}*%
%FSLAX45Y45*%
%MOMM*%
G01*
%TA.AperFunction,Material*%
%ADD17C,0.101600*%
%ADD18C,1.016000*%
%ADD19C,0.163360*%
%ADD70C,0.231130*%
%TA.AperFunction,Profile*%
%ADD14C,0.101600*%
%TA.AperFunction,Material*%
%ADD71C,0.050000*%
%ADD20C,0.836710*%
%TD.AperFunction*%
D17*
X-3379980Y+2537720D02*
X-2333820Y+2537720D01*
X-2333820Y+2928880D01*
X-3379980Y+2928880D01*
X-3379980Y+2537720D01*
D18*
X-2465900Y+2733300D02*
X-2465900Y+2733300D01*
D19*
X-2580765Y+2749637D02*
X-2617522Y+2782310D01*
X-2654280Y+2782310D01*
X-2691037Y+2749637D01*
X-2691037Y+2716963D01*
X-2654280Y+2684290D01*
X-2617522Y+2684290D01*
X-2580765Y+2716963D01*
X-2580765Y+2749637D01*
X-2727795Y+2782310D02*
X-2727795Y+2684290D01*
X-2838067Y+2684290D01*
X-2985097Y+2684290D02*
X-2874825Y+2684290D01*
X-2874825Y+2782310D01*
X-2985097Y+2782310D01*
X-2874825Y+2733300D02*
X-2948340Y+2733300D01*
X-3021855Y+2684290D02*
X-3021855Y+2782310D01*
X-3095370Y+2782310D01*
X-3132127Y+2749637D01*
X-3132127Y+2716963D01*
X-3095370Y+2684290D01*
X-3021855Y+2684290D01*
X-3205642Y+2749637D02*
X-3242400Y+2782310D01*
X-3242400Y+2684290D01*
D17*
X-1151320Y+2747080D02*
X-760160Y+2747080D01*
X-760160Y+3793240D01*
X-1151320Y+3793240D01*
X-1151320Y+2747080D01*
D18*
X-955740Y+2879160D02*
X-955740Y+2879160D01*
D70*
X-1025082Y+3049563D02*
X-886398Y+3049563D01*
X-955740Y+3127572D01*
X-886398Y+3205581D01*
X-1025082Y+3205581D01*
X-932626Y+3257588D02*
X-886398Y+3309594D01*
X-886398Y+3361600D01*
X-932626Y+3413606D01*
X-978854Y+3413606D01*
X-1025082Y+3361600D01*
X-1025082Y+3309594D01*
X-978854Y+3257588D01*
X-932626Y+3257588D01*
X-978854Y+3361600D02*
X-1025082Y+3413606D01*
X-932626Y+3517619D02*
X-886398Y+3569625D01*
X-1025082Y+3569625D01*
D17*
X-5195580Y+2367920D02*
X-4804420Y+2367920D01*
X-4804420Y+3664080D01*
X-5195580Y+3664080D01*
X-5195580Y+2367920D01*
D18*
X-5000000Y+2750000D02*
X-5000000Y+2750000D01*
D70*
X-4930658Y+2946406D02*
X-4930658Y+3050418D01*
X-4930658Y+2998412D02*
X-5069342Y+2998412D01*
X-5069342Y+2946406D02*
X-5069342Y+3050418D01*
X-4930658Y+3284446D02*
X-5069342Y+3128428D01*
X-4976886Y+3336453D02*
X-4930658Y+3388459D01*
X-4930658Y+3440465D01*
X-4976886Y+3492471D01*
X-5023114Y+3492471D01*
X-5069342Y+3440465D01*
X-5069342Y+3388459D01*
X-5023114Y+3336453D01*
X-4976886Y+3336453D01*
D14*
X-5360000Y+133000D02*
X-500000Y+133000D01*
X-500000Y+4040500D01*
X-5360000Y+4040500D01*
X-5360000Y+133000D01*
D71*
X-673500Y+356000D02*
X-673500Y+2184000D01*
X-5041500Y+2184000D01*
X-5041500Y+356000D02*
X-673500Y+356000D01*
X-5041500Y+356000D02*
X-5041500Y+948000D01*
X-5231500Y+948000D01*
X-5231500Y+1595000D01*
X-5041500Y+1595000D01*
X-5041500Y+2184000D01*
D18*
X-1079500Y+508000D02*
X-1079500Y+508000D01*
D20*
X-2429110Y+1521013D02*
X-2429110Y+1102657D01*
X-2523240Y+1018986D01*
X-2899760Y+1018986D01*
X-2993890Y+1102657D01*
X-2993890Y+1521013D01*
X-3370410Y+1353671D02*
X-3558670Y+1521013D01*
X-3558670Y+1018986D01*
M02*
