  0
SECTION
  2
HEADER
  9
$ACADVER
  1
AC1009
  9
$INSUNITS
 70
     1
 9
$MEASUREMENT
 70
    0
  0
ENDSEC
  0
SECTION
  2
TABLES
  0
TABLE
  2
LAYER
 70
     8
  0
LAYER
  2
0
 62
     7
 70
0
  6
CONTINUOUS
  0
LAYER
  2
1
 62
     1
 70
0
  6
CONTINUOUS
  0
LAYER
  2
2
 62
     2
 70
0
  6
CONTINUOUS
  0
LAYER
  2
3
 62
     3
 70
0
  6
CONTINUOUS
  0
LAYER
  2
4
 62
     4
 70
0
  6
CONTINUOUS
  0
LAYER
  2
5
 62
     5
 70
0
  6
CONTINUOUS
  0
LAYER
  2
6
 62
     6
 70
0
  6
CONTINUOUS
  0
LAYER
  2
7
 62
     7
 70
0
  6
CONTINUOUS
  0
ENDTAB
  0
TABLE
  2
STYLE
 70
     1
  0
STYLE
 70
     0
  2
STANDARD
  3
TXT
 40
0.00
 41
1.00
 42
1.00
 50
0.00
 71
     0
  0
ENDTAB
  0
ENDSEC
  0
SECTION
  2
BLOCKS
  0
BLOCK
  8
0
  2
EPAD
 70
0
 10
0.0
 20
0.0
  0
POLYLINE
  8
0
 66
1
 70
1
 40
0.5
 41
0.5
  0
VERTEX
  8
0
 10
-0.25
 20
0.0
 42
1.0
  0
VERTEX
  8
0
 10
0.25
 20
0.0
 42
1.0
  0
SEQEND
  8
0
  0
ENDBLK
  8
0
  0
BLOCK
  8
0
  2
RPAD
 70
0
 10
0.0
 20
0.0
  0
TRACE
  8
0
 10
-0.5
 20
-0.5
 11
-0.5
 21
0.5
 12
0.5
 22
-0.5
 13
0.5
 23
0.5
  0
ENDBLK
  8
0
  0
ENDSEC
0
SECTION
2
ENTITIES
0
POLYLINE
8
0
66
1
70
1
40
0
41
0
0
VERTEX
8
0
10
-0.940756
20
1.131102
0
VERTEX
8
0
10
-1.000898
20
1.131102
0
VERTEX
8
0
10
-1.015827
20
1.116173
0
VERTEX
8
0
10
-1.015827
20
1.036031
0
VERTEX
8
0
10
-1.000898
20
1.021102
0
VERTEX
8
0
10
-0.940756
20
1.021102
0
VERTEX
8
0
10
-0.925827
20
1.036031
0
VERTEX
8
0
10
-0.925827
20
1.116173
0
VERTEX
8
0
10
-0.940756
20
1.131102
0
SEQEND
8
0
0
POLYLINE
8
0
66
1
70
1
40
0
41
0
0
VERTEX
8
0
10
-1.040756
20
1.131102
0
VERTEX
8
0
10
-1.100898
20
1.131102
0
VERTEX
8
0
10
-1.115827
20
1.116173
0
VERTEX
8
0
10
-1.115827
20
1.036031
0
VERTEX
8
0
10
-1.100898
20
1.021102
0
VERTEX
8
0
10
-1.040756
20
1.021102
0
VERTEX
8
0
10
-1.025827
20
1.036031
0
VERTEX
8
0
10
-1.025827
20
1.116173
0
VERTEX
8
0
10
-1.040756
20
1.131102
0
SEQEND
8
0
0
POLYLINE
8
0
66
1
70
1
40
0
41
0
0
VERTEX
8
0
10
-1.140756
20
1.131102
0
VERTEX
8
0
10
-1.200898
20
1.131102
0
VERTEX
8
0
10
-1.215827
20
1.116173
0
VERTEX
8
0
10
-1.215827
20
1.036031
0
VERTEX
8
0
10
-1.200898
20
1.021102
0
VERTEX
8
0
10
-1.140756
20
1.021102
0
VERTEX
8
0
10
-1.125827
20
1.036031
0
VERTEX
8
0
10
-1.125827
20
1.116173
0
VERTEX
8
0
10
-1.140756
20
1.131102
0
SEQEND
8
0
0
POLYLINE
8
0
66
1
70
1
40
0
41
0
0
VERTEX
8
0
10
-1.240756
20
1.131102
0
VERTEX
8
0
10
-1.300898
20
1.131102
0
VERTEX
8
0
10
-1.315827
20
1.116173
0
VERTEX
8
0
10
-1.315827
20
1.036031
0
VERTEX
8
0
10
-1.300898
20
1.021102
0
VERTEX
8
0
10
-1.240756
20
1.021102
0
VERTEX
8
0
10
-1.225827
20
1.036031
0
VERTEX
8
0
10
-1.225827
20
1.116173
0
VERTEX
8
0
10
-1.240756
20
1.131102
0
SEQEND
8
0
0
POLYLINE
8
0
66
1
70
1
40
0
41
0
0
VERTEX
8
0
10
-0.321276
20
1.103457
0
VERTEX
8
0
10
-0.321276
20
1.163598
0
VERTEX
8
0
10
-0.336205
20
1.178528
0
VERTEX
8
0
10
-0.416346
20
1.178528
0
VERTEX
8
0
10
-0.431276
20
1.163598
0
VERTEX
8
0
10
-0.431276
20
1.103457
0
VERTEX
8
0
10
-0.416346
20
1.088528
0
VERTEX
8
0
10
-0.336205
20
1.088528
0
VERTEX
8
0
10
-0.321276
20
1.103457
0
SEQEND
8
0
0
POLYLINE
8
0
66
1
70
1
40
0
41
0
0
VERTEX
8
0
10
-0.321276
20
1.203457
0
VERTEX
8
0
10
-0.321276
20
1.263598
0
VERTEX
8
0
10
-0.336205
20
1.278528
0
VERTEX
8
0
10
-0.416346
20
1.278528
0
VERTEX
8
0
10
-0.431276
20
1.263598
0
VERTEX
8
0
10
-0.431276
20
1.203457
0
VERTEX
8
0
10
-0.416346
20
1.188528
0
VERTEX
8
0
10
-0.336205
20
1.188528
0
VERTEX
8
0
10
-0.321276
20
1.203457
0
SEQEND
8
0
0
POLYLINE
8
0
66
1
70
1
40
0
41
0
0
VERTEX
8
0
10
-0.321276
20
1.303457
0
VERTEX
8
0
10
-0.321276
20
1.363598
0
VERTEX
8
0
10
-0.336205
20
1.378528
0
VERTEX
8
0
10
-0.416346
20
1.378528
0
VERTEX
8
0
10
-0.431276
20
1.363598
0
VERTEX
8
0
10
-0.431276
20
1.303457
0
VERTEX
8
0
10
-0.416346
20
1.288528
0
VERTEX
8
0
10
-0.336205
20
1.288528
0
VERTEX
8
0
10
-0.321276
20
1.303457
0
SEQEND
8
0
0
POLYLINE
8
0
66
1
70
1
40
0
41
0
0
VERTEX
8
0
10
-0.321276
20
1.403457
0
VERTEX
8
0
10
-0.321276
20
1.463598
0
VERTEX
8
0
10
-0.336205
20
1.478528
0
VERTEX
8
0
10
-0.416346
20
1.478528
0
VERTEX
8
0
10
-0.431276
20
1.463598
0
VERTEX
8
0
10
-0.431276
20
1.403457
0
VERTEX
8
0
10
-0.416346
20
1.388528
0
VERTEX
8
0
10
-0.336205
20
1.388528
0
VERTEX
8
0
10
-0.321276
20
1.403457
0
SEQEND
8
0
0
POLYLINE
8
0
66
1
70
1
40
0
41
0
0
VERTEX
8
0
10
-1.913504
20
0.954181
0
VERTEX
8
0
10
-1.913504
20
1.014323
0
VERTEX
8
0
10
-1.928433
20
1.029252
0
VERTEX
8
0
10
-2.008575
20
1.029252
0
VERTEX
8
0
10
-2.023504
20
1.014323
0
VERTEX
8
0
10
-2.023504
20
0.954181
0
VERTEX
8
0
10
-2.008575
20
0.939252
0
VERTEX
8
0
10
-1.928433
20
0.939252
0
VERTEX
8
0
10
-1.913504
20
0.954181
0
SEQEND
8
0
0
POLYLINE
8
0
66
1
70
1
40
0
41
0
0
VERTEX
8
0
10
-1.913504
20
1.052606
0
VERTEX
8
0
10
-1.913504
20
1.112748
0
VERTEX
8
0
10
-1.928433
20
1.127677
0
VERTEX
8
0
10
-2.008575
20
1.127677
0
VERTEX
8
0
10
-2.023504
20
1.112748
0
VERTEX
8
0
10
-2.023504
20
1.052606
0
VERTEX
8
0
10
-2.008575
20
1.037677
0
VERTEX
8
0
10
-1.928433
20
1.037677
0
VERTEX
8
0
10
-1.913504
20
1.052606
0
SEQEND
8
0
0
POLYLINE
8
0
66
1
70
1
40
0
41
0
0
VERTEX
8
0
10
-1.913504
20
1.152606
0
VERTEX
8
0
10
-1.913504
20
1.212748
0
VERTEX
8
0
10
-1.928433
20
1.227677
0
VERTEX
8
0
10
-2.008575
20
1.227677
0
VERTEX
8
0
10
-2.023504
20
1.212748
0
VERTEX
8
0
10
-2.023504
20
1.152606
0
VERTEX
8
0
10
-2.008575
20
1.137677
0
VERTEX
8
0
10
-1.928433
20
1.137677
0
VERTEX
8
0
10
-1.913504
20
1.152606
0
SEQEND
8
0
0
POLYLINE
8
0
66
1
70
1
40
0
41
0
0
VERTEX
8
0
10
-1.913504
20
1.252606
0
VERTEX
8
0
10
-1.913504
20
1.312748
0
VERTEX
8
0
10
-1.928433
20
1.327677
0
VERTEX
8
0
10
-2.008575
20
1.327677
0
VERTEX
8
0
10
-2.023504
20
1.312748
0
VERTEX
8
0
10
-2.023504
20
1.252606
0
VERTEX
8
0
10
-2.008575
20
1.237677
0
VERTEX
8
0
10
-1.928433
20
1.237677
0
VERTEX
8
0
10
-1.913504
20
1.252606
0
SEQEND
8
0
0
POLYLINE
8
0
66
1
70
1
40
0
41
0
0
VERTEX
8
0
10
-1.913504
20
1.352606
0
VERTEX
8
0
10
-1.913504
20
1.412748
0
VERTEX
8
0
10
-1.928433
20
1.427677
0
VERTEX
8
0
10
-2.008575
20
1.427677
0
VERTEX
8
0
10
-2.023504
20
1.412748
0
VERTEX
8
0
10
-2.023504
20
1.352606
0
VERTEX
8
0
10
-2.008575
20
1.337677
0
VERTEX
8
0
10
-1.928433
20
1.337677
0
VERTEX
8
0
10
-1.913504
20
1.352606
0
SEQEND
8
0
0
POLYLINE
8
0
66
1
70
1
40
0
41
0
0
VERTEX
8
0
10
-0.394929
20
0.255000
0
VERTEX
8
0
10
-0.455071
20
0.255000
0
VERTEX
8
0
10
-0.470000
20
0.240071
0
VERTEX
8
0
10
-0.470000
20
0.159929
0
VERTEX
8
0
10
-0.455071
20
0.145000
0
VERTEX
8
0
10
-0.394929
20
0.145000
0
VERTEX
8
0
10
-0.380000
20
0.159929
0
VERTEX
8
0
10
-0.380000
20
0.240071
0
VERTEX
8
0
10
-0.394929
20
0.255000
0
SEQEND
8
0
0
POLYLINE
8
0
66
1
70
1
40
0
41
0
0
VERTEX
8
0
10
-0.494929
20
0.255000
0
VERTEX
8
0
10
-0.555071
20
0.255000
0
VERTEX
8
0
10
-0.570000
20
0.240071
0
VERTEX
8
0
10
-0.570000
20
0.159929
0
VERTEX
8
0
10
-0.555071
20
0.145000
0
VERTEX
8
0
10
-0.494929
20
0.145000
0
VERTEX
8
0
10
-0.480000
20
0.159929
0
VERTEX
8
0
10
-0.480000
20
0.240071
0
VERTEX
8
0
10
-0.494929
20
0.255000
0
SEQEND
8
0
0
POLYLINE
8
0
66
1
70
1
40
0
41
0
0
VERTEX
8
0
10
-0.694929
20
0.255000
0
VERTEX
8
0
10
-0.755071
20
0.255000
0
VERTEX
8
0
10
-0.770000
20
0.240071
0
VERTEX
8
0
10
-0.770000
20
0.159929
0
VERTEX
8
0
10
-0.755071
20
0.145000
0
VERTEX
8
0
10
-0.694929
20
0.145000
0
VERTEX
8
0
10
-0.680000
20
0.159929
0
VERTEX
8
0
10
-0.680000
20
0.240071
0
VERTEX
8
0
10
-0.694929
20
0.255000
0
SEQEND
8
0
0
POLYLINE
8
0
66
1
70
1
40
0
41
0
0
VERTEX
8
0
10
-0.894929
20
0.255000
0
VERTEX
8
0
10
-0.955071
20
0.255000
0
VERTEX
8
0
10
-0.970000
20
0.240071
0
VERTEX
8
0
10
-0.970000
20
0.159929
0
VERTEX
8
0
10
-0.955071
20
0.145000
0
VERTEX
8
0
10
-0.894929
20
0.145000
0
VERTEX
8
0
10
-0.880000
20
0.159929
0
VERTEX
8
0
10
-0.880000
20
0.240071
0
VERTEX
8
0
10
-0.894929
20
0.255000
0
SEQEND
8
0
0
POLYLINE
8
0
66
1
70
1
40
0
41
0
0
VERTEX
8
0
10
-1.794929
20
0.255000
0
VERTEX
8
0
10
-1.855071
20
0.255000
0
VERTEX
8
0
10
-1.870000
20
0.240071
0
VERTEX
8
0
10
-1.870000
20
0.159929
0
VERTEX
8
0
10
-1.855071
20
0.145000
0
VERTEX
8
0
10
-1.794929
20
0.145000
0
VERTEX
8
0
10
-1.780000
20
0.159929
0
VERTEX
8
0
10
-1.780000
20
0.240071
0
VERTEX
8
0
10
-1.794929
20
0.255000
0
SEQEND
8
0
0
POLYLINE
8
0
66
1
70
1
40
0
41
0
0
VERTEX
8
0
10
-1.694929
20
0.855000
0
VERTEX
8
0
10
-1.755071
20
0.855000
0
VERTEX
8
0
10
-1.770000
20
0.840071
0
VERTEX
8
0
10
-1.770000
20
0.759929
0
VERTEX
8
0
10
-1.755071
20
0.745000
0
VERTEX
8
0
10
-1.694929
20
0.745000
0
VERTEX
8
0
10
-1.680000
20
0.759929
0
VERTEX
8
0
10
-1.680000
20
0.840071
0
VERTEX
8
0
10
-1.694929
20
0.855000
0
SEQEND
8
0
0
POLYLINE
8
0
66
1
70
1
40
0
41
0
0
VERTEX
8
0
10
-1.494929
20
0.855000
0
VERTEX
8
0
10
-1.555071
20
0.855000
0
VERTEX
8
0
10
-1.570000
20
0.840071
0
VERTEX
8
0
10
-1.570000
20
0.759929
0
VERTEX
8
0
10
-1.555071
20
0.745000
0
VERTEX
8
0
10
-1.494929
20
0.745000
0
VERTEX
8
0
10
-1.480000
20
0.759929
0
VERTEX
8
0
10
-1.480000
20
0.840071
0
VERTEX
8
0
10
-1.494929
20
0.855000
0
SEQEND
8
0
0
POLYLINE
8
0
66
1
70
1
40
0
41
0
0
VERTEX
8
0
10
-1.094929
20
0.855000
0
VERTEX
8
0
10
-1.155071
20
0.855000
0
VERTEX
8
0
10
-1.170000
20
0.840071
0
VERTEX
8
0
10
-1.170000
20
0.759929
0
VERTEX
8
0
10
-1.155071
20
0.745000
0
VERTEX
8
0
10
-1.094929
20
0.745000
0
VERTEX
8
0
10
-1.080000
20
0.759929
0
VERTEX
8
0
10
-1.080000
20
0.840071
0
VERTEX
8
0
10
-1.094929
20
0.855000
0
SEQEND
8
0
0
POLYLINE
8
0
66
1
70
1
40
0
41
0
0
VERTEX
8
0
10
-0.994929
20
0.855000
0
VERTEX
8
0
10
-1.055071
20
0.855000
0
VERTEX
8
0
10
-1.070000
20
0.840071
0
VERTEX
8
0
10
-1.070000
20
0.759929
0
VERTEX
8
0
10
-1.055071
20
0.745000
0
VERTEX
8
0
10
-0.994929
20
0.745000
0
VERTEX
8
0
10
-0.980000
20
0.759929
0
VERTEX
8
0
10
-0.980000
20
0.840071
0
VERTEX
8
0
10
-0.994929
20
0.855000
0
SEQEND
8
0
0
POLYLINE
8
0
66
1
70
1
40
0
41
0
0
VERTEX
8
0
10
-0.694929
20
0.855000
0
VERTEX
8
0
10
-0.755071
20
0.855000
0
VERTEX
8
0
10
-0.770000
20
0.840071
0
VERTEX
8
0
10
-0.770000
20
0.759929
0
VERTEX
8
0
10
-0.755071
20
0.745000
0
VERTEX
8
0
10
-0.694929
20
0.745000
0
VERTEX
8
0
10
-0.680000
20
0.759929
0
VERTEX
8
0
10
-0.680000
20
0.840071
0
VERTEX
8
0
10
-0.694929
20
0.855000
0
SEQEND
8
0
0
POLYLINE
8
0
66
1
70
1
40
0
41
0
0
VERTEX
8
0
10
-0.494929
20
0.855000
0
VERTEX
8
0
10
-0.555071
20
0.855000
0
VERTEX
8
0
10
-0.570000
20
0.840071
0
VERTEX
8
0
10
-0.570000
20
0.759929
0
VERTEX
8
0
10
-0.555071
20
0.745000
0
VERTEX
8
0
10
-0.494929
20
0.745000
0
VERTEX
8
0
10
-0.480000
20
0.759929
0
VERTEX
8
0
10
-0.480000
20
0.840071
0
VERTEX
8
0
10
-0.494929
20
0.855000
0
SEQEND
8
0
0
POLYLINE
8
0
66
1
70
1
40
0
41
0
0
VERTEX
8
0
10
-0.394929
20
0.855000
0
VERTEX
8
0
10
-0.455071
20
0.855000
0
VERTEX
8
0
10
-0.470000
20
0.840071
0
VERTEX
8
0
10
-0.470000
20
0.759929
0
VERTEX
8
0
10
-0.455071
20
0.745000
0
VERTEX
8
0
10
-0.394929
20
0.745000
0
VERTEX
8
0
10
-0.380000
20
0.759929
0
VERTEX
8
0
10
-0.380000
20
0.840071
0
VERTEX
8
0
10
-0.394929
20
0.855000
0
SEQEND
8
0
0
POLYLINE
8
0
66
1
40
0.004000
41
0.004000
0
VERTEX
8
0
10
-2.086614
20
0.068110
0
VERTEX
8
0
10
-0.196850
20
0.068110
0
VERTEX
8
0
10
-0.196850
20
1.571063
0
VERTEX
8
0
10
-2.086614
20
1.571063
0
VERTEX
8
0
10
-2.086614
20
0.068110
0
SEQEND
8
0
0
POLYLINE
8
0
66
1
40
0.040000
41
0.040000
0
VERTEX
8
0
10
-1.725000
20
0.800000
0
VERTEX
8
0
10
-1.725000
20
0.675000
0
VERTEX
8
0
10
-1.500000
20
0.675000
0
VERTEX
8
0
10
-1.275000
20
0.900000
0
VERTEX
8
0
10
-1.250000
20
0.900000
0
VERTEX
8
0
10
-1.170827
20
0.979173
0
VERTEX
8
0
10
-1.170827
20
1.076102
0
SEQEND
8
0
0
POLYLINE
8
0
66
1
40
0.040000
41
0.040000
0
VERTEX
8
0
10
-0.725000
20
0.800000
0
VERTEX
8
0
10
-0.725000
20
0.675000
0
VERTEX
8
0
10
-0.800000
20
0.600000
0
VERTEX
8
0
10
-1.725000
20
0.600000
0
VERTEX
8
0
10
-1.800000
20
0.675000
0
VERTEX
8
0
10
-1.800000
20
1.200000
0
VERTEX
8
0
10
-1.882677
20
1.282677
0
VERTEX
8
0
10
-1.968504
20
1.282677
0
SEQEND
8
0
0
POLYLINE
8
0
66
1
40
0.040000
41
0.040000
0
VERTEX
8
0
10
-0.725000
20
0.800000
0
VERTEX
8
0
10
-0.725000
20
1.050000
0
VERTEX
8
0
10
-0.641472
20
1.133528
0
VERTEX
8
0
10
-0.376276
20
1.133528
0
SEQEND
8
0
0
POLYLINE
8
0
66
1
40
0.040000
41
0.040000
0
VERTEX
8
0
10
-0.925000
20
0.200000
0
VERTEX
8
0
10
-0.925000
20
0.300000
0
VERTEX
8
0
10
-1.875000
20
0.300000
0
VERTEX
8
0
10
-1.968504
20
0.393504
0
VERTEX
8
0
10
-1.968504
20
0.984252
0
SEQEND
8
0
0
POLYLINE
8
0
66
1
40
0.040000
41
0.040000
0
VERTEX
8
0
10
-0.376276
20
1.433528
0
VERTEX
8
0
10
-1.450000
20
1.433528
0
VERTEX
8
0
10
-1.525000
20
1.358528
0
VERTEX
8
0
10
-1.525000
20
0.800000
0
SEQEND
8
0
0
POLYLINE
8
0
66
1
40
0.040000
41
0.040000
0
VERTEX
8
0
10
-0.275000
20
1.225000
0
VERTEX
8
0
10
-0.275000
20
1.525000
0
VERTEX
8
0
10
-1.968504
20
1.525000
0
VERTEX
8
0
10
-1.968504
20
1.382677
0
SEQEND
8
0
0
POLYLINE
8
0
66
1
40
0.040000
41
0.040000
0
VERTEX
8
0
10
-0.525000
20
0.800000
0
VERTEX
8
0
10
-0.525000
20
0.900000
0
VERTEX
8
0
10
-0.350000
20
0.900000
0
VERTEX
8
0
10
-0.275000
20
0.975000
0
VERTEX
8
0
10
-0.275000
20
1.225000
0
SEQEND
8
0
0
POLYLINE
8
0
66
1
40
0.040000
41
0.040000
0
VERTEX
8
0
10
-0.350000
20
1.225000
0
VERTEX
8
0
10
-0.275000
20
1.225000
0
SEQEND
8
0
0
POLYLINE
8
0
66
1
40
0.040000
41
0.040000
0
VERTEX
8
0
10
-0.376276
20
1.233528
0
VERTEX
8
0
10
-1.270827
20
1.233528
0
VERTEX
8
0
10
-1.270827
20
1.076102
0
SEQEND
8
0
0
POLYLINE
8
0
66
1
40
0.040000
41
0.040000
0
VERTEX
8
0
10
-0.376276
20
1.233528
0
VERTEX
8
0
10
-0.376276
20
1.225000
0
VERTEX
8
0
10
-0.350000
20
1.225000
0
SEQEND
8
0
0
POLYLINE
8
0
66
1
40
0.040000
41
0.040000
0
VERTEX
8
0
10
-1.968504
20
1.082677
0
VERTEX
8
0
10
-1.875000
20
1.082677
0
VERTEX
8
0
10
-1.875000
20
0.525000
0
VERTEX
8
0
10
-1.800000
20
0.450000
0
VERTEX
8
0
10
-0.600000
20
0.450000
0
VERTEX
8
0
10
-0.525000
20
0.375000
0
VERTEX
8
0
10
-0.525000
20
0.200000
0
SEQEND
8
0
0
POLYLINE
8
0
66
1
40
0.040000
41
0.040000
0
VERTEX
8
0
10
-1.070827
20
1.076102
0
VERTEX
8
0
10
-1.070827
20
0.950000
0
VERTEX
8
0
10
-1.025000
20
0.904173
0
VERTEX
8
0
10
-1.025000
20
0.800000
0
SEQEND
8
0
0
POLYLINE
8
0
66
1
40
0.040000
41
0.040000
0
VERTEX
8
0
10
-1.125000
20
0.800000
0
VERTEX
8
0
10
-1.125000
20
0.675000
0
VERTEX
8
0
10
-0.975000
20
0.675000
0
VERTEX
8
0
10
-0.900000
20
0.750000
0
VERTEX
8
0
10
-0.900000
20
1.076102
0
VERTEX
8
0
10
-0.970827
20
1.076102
0
SEQEND
8
0
0
POLYLINE
8
0
66
1
40
0.040000
41
0.040000
0
VERTEX
8
0
10
-1.968504
20
1.182677
0
VERTEX
8
0
10
-2.049059
20
1.182677
0
VERTEX
8
0
10
-2.049059
20
0.200000
0
VERTEX
8
0
10
-1.961614
20
0.112555
0
VERTEX
8
0
10
-0.450000
20
0.112555
0
VERTEX
8
0
10
-0.450000
20
0.125000
0
VERTEX
8
0
10
-0.425000
20
0.125000
0
VERTEX
8
0
10
-0.425000
20
0.200000
0
SEQEND
8
0
0
POLYLINE
8
0
66
1
40
0.040000
41
0.040000
0
VERTEX
8
0
10
-2.049614
20
1.234677
0
VERTEX
8
0
10
-2.048504
20
1.234677
0
VERTEX
8
0
10
-2.048504
20
1.452677
0
VERTEX
8
0
10
-1.888504
20
1.452677
0
VERTEX
8
0
10
-1.888504
20
1.334677
0
VERTEX
8
0
10
-1.861139
20
1.334677
0
VERTEX
8
0
10
-1.748000
20
1.221538
0
VERTEX
8
0
10
-1.748000
20
0.880000
0
VERTEX
8
0
10
-1.655000
20
0.880000
0
VERTEX
8
0
10
-1.655000
20
0.727000
0
VERTEX
8
0
10
-1.595000
20
0.727000
0
VERTEX
8
0
10
-1.595000
20
0.880000
0
VERTEX
8
0
10
-1.577000
20
0.880000
0
VERTEX
8
0
10
-1.577000
20
1.380066
0
VERTEX
8
0
10
-1.471538
20
1.485527
0
VERTEX
8
0
10
-0.456275
20
1.485527
0
VERTEX
8
0
10
-0.456275
20
1.503527
0
VERTEX
8
0
10
-0.296276
20
1.503527
0
VERTEX
8
0
10
-0.296276
20
1.063528
0
VERTEX
8
0
10
-0.456275
20
1.063528
0
VERTEX
8
0
10
-0.456275
20
1.081528
0
VERTEX
8
0
10
-0.619934
20
1.081528
0
VERTEX
8
0
10
-0.673000
20
1.028462
0
VERTEX
8
0
10
-0.673000
20
0.880000
0
VERTEX
8
0
10
-0.655000
20
0.880000
0
VERTEX
8
0
10
-0.655000
20
0.720000
0
VERTEX
8
0
10
-0.673000
20
0.720000
0
VERTEX
8
0
10
-0.673000
20
0.653462
0
VERTEX
8
0
10
-0.778462
20
0.548000
0
VERTEX
8
0
10
-1.746538
20
0.548000
0
VERTEX
8
0
10
-1.823000
20
0.624463
0
VERTEX
8
0
10
-1.823000
20
0.546538
0
VERTEX
8
0
10
-1.778462
20
0.502000
0
VERTEX
8
0
10
-0.578462
20
0.502000
0
VERTEX
8
0
10
-0.473000
20
0.396538
0
VERTEX
8
0
10
-0.473000
20
0.280000
0
VERTEX
8
0
10
-0.355000
20
0.280000
0
VERTEX
8
0
10
-0.355000
20
0.120000
0
VERTEX
8
0
10
-0.373000
20
0.120000
0
VERTEX
8
0
10
-0.373000
20
0.105110
0
VERTEX
8
0
10
-0.233850
20
0.105110
0
VERTEX
8
0
10
-0.233850
20
1.534063
0
VERTEX
8
0
10
-2.049614
20
1.534063
0
VERTEX
8
0
10
-2.049614
20
1.234677
0
SEQEND
8
0
0
POLYLINE
8
0
66
1
40
0.040000
41
0.040000
0
VERTEX
8
0
10
-0.595000
20
0.720000
0
VERTEX
8
0
10
-0.355000
20
0.720000
0
VERTEX
8
0
10
-0.355000
20
0.880000
0
VERTEX
8
0
10
-0.595000
20
0.880000
0
VERTEX
8
0
10
-0.595000
20
0.720000
0
SEQEND
8
0
0
POLYLINE
8
0
66
1
40
0.040000
41
0.040000
0
VERTEX
8
0
10
-1.473000
20
1.336989
0
VERTEX
8
0
10
-1.473000
20
0.880000
0
VERTEX
8
0
10
-1.455000
20
0.880000
0
VERTEX
8
0
10
-1.455000
20
0.793537
0
VERTEX
8
0
10
-1.296538
20
0.952000
0
VERTEX
8
0
10
-1.271538
20
0.952000
0
VERTEX
8
0
10
-1.227435
20
0.996103
0
VERTEX
8
0
10
-1.340826
20
0.996103
0
VERTEX
8
0
10
-1.340826
20
1.156102
0
VERTEX
8
0
10
-0.900827
20
1.156102
0
VERTEX
8
0
10
-0.900827
20
1.128102
0
VERTEX
8
0
10
-0.878462
20
1.128102
0
VERTEX
8
0
10
-0.848000
20
1.097641
0
VERTEX
8
0
10
-0.848000
20
0.728462
0
VERTEX
8
0
10
-0.924463
20
0.652000
0
VERTEX
8
0
10
-0.821538
20
0.652000
0
VERTEX
8
0
10
-0.777000
20
0.696538
0
VERTEX
8
0
10
-0.777000
20
0.720000
0
VERTEX
8
0
10
-0.795000
20
0.720000
0
VERTEX
8
0
10
-0.795000
20
0.880000
0
VERTEX
8
0
10
-0.777000
20
0.880000
0
VERTEX
8
0
10
-0.777000
20
1.071538
0
VERTEX
8
0
10
-0.663011
20
1.185527
0
VERTEX
8
0
10
-0.456275
20
1.185527
0
VERTEX
8
0
10
-0.456275
20
1.381528
0
VERTEX
8
0
10
-1.428462
20
1.381528
0
VERTEX
8
0
10
-1.473000
20
1.336989
0
SEQEND
8
0
0
POLYLINE
8
0
66
1
40
0.010000
41
0.010000
0
VERTEX
8
0
10
-1.270827
20
1.016103
0
VERTEX
8
0
10
-1.270827
20
1.076102
0
SEQEND
8
0
0
POLYLINE
8
0
66
1
40
0.010000
41
0.010000
0
VERTEX
8
0
10
-1.320826
20
1.076102
0
VERTEX
8
0
10
-1.270827
20
1.076102
0
SEQEND
8
0
0
POLYLINE
8
0
66
1
40
0.010000
41
0.010000
0
VERTEX
8
0
10
-1.270827
20
1.136102
0
VERTEX
8
0
10
-1.270827
20
1.076102
0
SEQEND
8
0
0
POLYLINE
8
0
66
1
40
0.010000
41
0.010000
0
VERTEX
8
0
10
-0.436275
20
1.233528
0
VERTEX
8
0
10
-0.376276
20
1.233528
0
SEQEND
8
0
0
POLYLINE
8
0
66
1
40
0.010000
41
0.010000
0
VERTEX
8
0
10
-0.316276
20
1.233528
0
VERTEX
8
0
10
-0.376276
20
1.233528
0
SEQEND
8
0
0
POLYLINE
8
0
66
1
40
0.010000
41
0.010000
0
VERTEX
8
0
10
-2.028504
20
1.382677
0
VERTEX
8
0
10
-1.968504
20
1.382677
0
SEQEND
8
0
0
POLYLINE
8
0
66
1
40
0.010000
41
0.010000
0
VERTEX
8
0
10
-1.968504
20
1.432677
0
VERTEX
8
0
10
-1.968504
20
1.382677
0
SEQEND
8
0
0
POLYLINE
8
0
66
1
40
0.010000
41
0.010000
0
VERTEX
8
0
10
-1.908504
20
1.382677
0
VERTEX
8
0
10
-1.968504
20
1.382677
0
SEQEND
8
0
0
POLYLINE
8
0
66
1
40
0.010000
41
0.010000
0
VERTEX
8
0
10
-0.525000
20
0.740000
0
VERTEX
8
0
10
-0.525000
20
0.800000
0
SEQEND
8
0
0
POLYLINE
8
0
66
1
40
0.010000
41
0.010000
0
VERTEX
8
0
10
-0.575000
20
0.800000
0
VERTEX
8
0
10
-0.525000
20
0.800000
0
SEQEND
8
0
0
POLYLINE
8
0
66
1
40
0.010000
41
0.010000
0
VERTEX
8
0
10
-0.525000
20
0.860000
0
VERTEX
8
0
10
-0.525000
20
0.800000
0
SEQEND
8
0
0
POLYLINE
8
0
66
1
70
1
40
0
41
0
0
VERTEX
8
0
10
-0.930827
20
1.114102
0
VERTEX
8
0
10
-0.942827
20
1.126102
0
VERTEX
8
0
10
-0.998827
20
1.126102
0
VERTEX
8
0
10
-1.010827
20
1.114102
0
VERTEX
8
0
10
-1.010827
20
1.038102
0
VERTEX
8
0
10
-0.998827
20
1.026102
0
VERTEX
8
0
10
-0.942827
20
1.026102
0
VERTEX
8
0
10
-0.930827
20
1.038102
0
VERTEX
8
0
10
-0.930827
20
1.114102
0
SEQEND
8
0
0
CIRCLE
8
0
10
-0.970827
20
1.076102
40
0.039370
0
POLYLINE
8
0
66
1
70
1
40
0
41
0
0
VERTEX
8
0
10
-1.030827
20
1.114102
0
VERTEX
8
0
10
-1.042827
20
1.126102
0
VERTEX
8
0
10
-1.098827
20
1.126102
0
VERTEX
8
0
10
-1.110827
20
1.114102
0
VERTEX
8
0
10
-1.110827
20
1.038102
0
VERTEX
8
0
10
-1.098827
20
1.026102
0
VERTEX
8
0
10
-1.042827
20
1.026102
0
VERTEX
8
0
10
-1.030827
20
1.038102
0
VERTEX
8
0
10
-1.030827
20
1.114102
0
SEQEND
8
0
0
CIRCLE
8
0
10
-1.070827
20
1.076102
40
0.039370
0
POLYLINE
8
0
66
1
70
1
40
0
41
0
0
VERTEX
8
0
10
-1.130827
20
1.114102
0
VERTEX
8
0
10
-1.142827
20
1.126102
0
VERTEX
8
0
10
-1.198827
20
1.126102
0
VERTEX
8
0
10
-1.210827
20
1.114102
0
VERTEX
8
0
10
-1.210827
20
1.038102
0
VERTEX
8
0
10
-1.198827
20
1.026102
0
VERTEX
8
0
10
-1.142827
20
1.026102
0
VERTEX
8
0
10
-1.130827
20
1.038102
0
VERTEX
8
0
10
-1.130827
20
1.114102
0
SEQEND
8
0
0
CIRCLE
8
0
10
-1.170827
20
1.076102
40
0.039370
0
POLYLINE
8
0
66
1
70
1
40
0
41
0
0
VERTEX
8
0
10
-1.230827
20
1.114102
0
VERTEX
8
0
10
-1.242827
20
1.126102
0
VERTEX
8
0
10
-1.298827
20
1.126102
0
VERTEX
8
0
10
-1.310827
20
1.114102
0
VERTEX
8
0
10
-1.310827
20
1.038102
0
VERTEX
8
0
10
-1.298827
20
1.026102
0
VERTEX
8
0
10
-1.242827
20
1.026102
0
VERTEX
8
0
10
-1.230827
20
1.038102
0
VERTEX
8
0
10
-1.230827
20
1.114102
0
SEQEND
8
0
0
CIRCLE
8
0
10
-1.270827
20
1.076102
40
0.039370
0
POLYLINE
8
0
66
1
70
1
40
0
41
0
0
VERTEX
8
0
10
-0.338276
20
1.093528
0
VERTEX
8
0
10
-0.326276
20
1.105528
0
VERTEX
8
0
10
-0.326276
20
1.161528
0
VERTEX
8
0
10
-0.338276
20
1.173528
0
VERTEX
8
0
10
-0.414276
20
1.173528
0
VERTEX
8
0
10
-0.426276
20
1.161528
0
VERTEX
8
0
10
-0.426276
20
1.105528
0
VERTEX
8
0
10
-0.414276
20
1.093528
0
VERTEX
8
0
10
-0.338276
20
1.093528
0
SEQEND
8
0
0
CIRCLE
8
0
10
-0.376276
20
1.133528
40
0.039370
0
POLYLINE
8
0
66
1
70
1
40
0
41
0
0
VERTEX
8
0
10
-0.338276
20
1.193528
0
VERTEX
8
0
10
-0.326276
20
1.205528
0
VERTEX
8
0
10
-0.326276
20
1.261528
0
VERTEX
8
0
10
-0.338276
20
1.273528
0
VERTEX
8
0
10
-0.414276
20
1.273528
0
VERTEX
8
0
10
-0.426276
20
1.261528
0
VERTEX
8
0
10
-0.426276
20
1.205528
0
VERTEX
8
0
10
-0.414276
20
1.193528
0
VERTEX
8
0
10
-0.338276
20
1.193528
0
SEQEND
8
0
0
CIRCLE
8
0
10
-0.376276
20
1.233528
40
0.039370
0
POLYLINE
8
0
66
1
70
1
40
0
41
0
0
VERTEX
8
0
10
-0.338276
20
1.293528
0
VERTEX
8
0
10
-0.326276
20
1.305528
0
VERTEX
8
0
10
-0.326276
20
1.361528
0
VERTEX
8
0
10
-0.338276
20
1.373528
0
VERTEX
8
0
10
-0.414276
20
1.373528
0
VERTEX
8
0
10
-0.426276
20
1.361528
0
VERTEX
8
0
10
-0.426276
20
1.305528
0
VERTEX
8
0
10
-0.414276
20
1.293528
0
VERTEX
8
0
10
-0.338276
20
1.293528
0
SEQEND
8
0
0
CIRCLE
8
0
10
-0.376276
20
1.333528
40
0.039370
0
POLYLINE
8
0
66
1
70
1
40
0
41
0
0
VERTEX
8
0
10
-0.338276
20
1.393528
0
VERTEX
8
0
10
-0.326276
20
1.405528
0
VERTEX
8
0
10
-0.326276
20
1.461528
0
VERTEX
8
0
10
-0.338276
20
1.473528
0
VERTEX
8
0
10
-0.414276
20
1.473528
0
VERTEX
8
0
10
-0.426276
20
1.461528
0
VERTEX
8
0
10
-0.426276
20
1.405528
0
VERTEX
8
0
10
-0.414276
20
1.393528
0
VERTEX
8
0
10
-0.338276
20
1.393528
0
SEQEND
8
0
0
CIRCLE
8
0
10
-0.376276
20
1.433528
40
0.039370
0
POLYLINE
8
0
66
1
70
1
40
0
41
0
0
VERTEX
8
0
10
-1.930504
20
0.944252
0
VERTEX
8
0
10
-1.918504
20
0.956252
0
VERTEX
8
0
10
-1.918504
20
1.012252
0
VERTEX
8
0
10
-1.930504
20
1.024252
0
VERTEX
8
0
10
-2.006504
20
1.024252
0
VERTEX
8
0
10
-2.018504
20
1.012252
0
VERTEX
8
0
10
-2.018504
20
0.956252
0
VERTEX
8
0
10
-2.006504
20
0.944252
0
VERTEX
8
0
10
-1.930504
20
0.944252
0
SEQEND
8
0
0
CIRCLE
8
0
10
-1.968504
20
0.984252
40
0.039370
0
POLYLINE
8
0
66
1
70
1
40
0
41
0
0
VERTEX
8
0
10
-1.930504
20
1.042677
0
VERTEX
8
0
10
-1.918504
20
1.054677
0
VERTEX
8
0
10
-1.918504
20
1.110677
0
VERTEX
8
0
10
-1.930504
20
1.122677
0
VERTEX
8
0
10
-2.006504
20
1.122677
0
VERTEX
8
0
10
-2.018504
20
1.110677
0
VERTEX
8
0
10
-2.018504
20
1.054677
0
VERTEX
8
0
10
-2.006504
20
1.042677
0
VERTEX
8
0
10
-1.930504
20
1.042677
0
SEQEND
8
0
0
CIRCLE
8
0
10
-1.968504
20
1.082677
40
0.039370
0
POLYLINE
8
0
66
1
70
1
40
0
41
0
0
VERTEX
8
0
10
-1.930504
20
1.142677
0
VERTEX
8
0
10
-1.918504
20
1.154677
0
VERTEX
8
0
10
-1.918504
20
1.210677
0
VERTEX
8
0
10
-1.930504
20
1.222677
0
VERTEX
8
0
10
-2.006504
20
1.222677
0
VERTEX
8
0
10
-2.018504
20
1.210677
0
VERTEX
8
0
10
-2.018504
20
1.154677
0
VERTEX
8
0
10
-2.006504
20
1.142677
0
VERTEX
8
0
10
-1.930504
20
1.142677
0
SEQEND
8
0
0
CIRCLE
8
0
10
-1.968504
20
1.182677
40
0.039370
0
POLYLINE
8
0
66
1
70
1
40
0
41
0
0
VERTEX
8
0
10
-1.930504
20
1.242677
0
VERTEX
8
0
10
-1.918504
20
1.254677
0
VERTEX
8
0
10
-1.918504
20
1.310677
0
VERTEX
8
0
10
-1.930504
20
1.322677
0
VERTEX
8
0
10
-2.006504
20
1.322677
0
VERTEX
8
0
10
-2.018504
20
1.310677
0
VERTEX
8
0
10
-2.018504
20
1.254677
0
VERTEX
8
0
10
-2.006504
20
1.242677
0
VERTEX
8
0
10
-1.930504
20
1.242677
0
SEQEND
8
0
0
CIRCLE
8
0
10
-1.968504
20
1.282677
40
0.039370
0
POLYLINE
8
0
66
1
70
1
40
0
41
0
0
VERTEX
8
0
10
-1.930504
20
1.342677
0
VERTEX
8
0
10
-1.918504
20
1.354677
0
VERTEX
8
0
10
-1.918504
20
1.410677
0
VERTEX
8
0
10
-1.930504
20
1.422677
0
VERTEX
8
0
10
-2.006504
20
1.422677
0
VERTEX
8
0
10
-2.018504
20
1.410677
0
VERTEX
8
0
10
-2.018504
20
1.354677
0
VERTEX
8
0
10
-2.006504
20
1.342677
0
VERTEX
8
0
10
-1.930504
20
1.342677
0
SEQEND
8
0
0
CIRCLE
8
0
10
-1.968504
20
1.382677
40
0.039370
0
POLYLINE
8
0
66
1
70
1
40
0
41
0
0
VERTEX
8
0
10
-0.385000
20
0.238000
0
VERTEX
8
0
10
-0.397000
20
0.250000
0
VERTEX
8
0
10
-0.453000
20
0.250000
0
VERTEX
8
0
10
-0.465000
20
0.238000
0
VERTEX
8
0
10
-0.465000
20
0.162000
0
VERTEX
8
0
10
-0.453000
20
0.150000
0
VERTEX
8
0
10
-0.397000
20
0.150000
0
VERTEX
8
0
10
-0.385000
20
0.162000
0
VERTEX
8
0
10
-0.385000
20
0.238000
0
SEQEND
8
0
0
CIRCLE
8
0
10
-0.425000
20
0.200000
40
0.039370
0
POLYLINE
8
0
66
1
70
1
40
0
41
0
0
VERTEX
8
0
10
-0.485000
20
0.238000
0
VERTEX
8
0
10
-0.497000
20
0.250000
0
VERTEX
8
0
10
-0.553000
20
0.250000
0
VERTEX
8
0
10
-0.565000
20
0.238000
0
VERTEX
8
0
10
-0.565000
20
0.162000
0
VERTEX
8
0
10
-0.553000
20
0.150000
0
VERTEX
8
0
10
-0.497000
20
0.150000
0
VERTEX
8
0
10
-0.485000
20
0.162000
0
VERTEX
8
0
10
-0.485000
20
0.238000
0
SEQEND
8
0
0
CIRCLE
8
0
10
-0.525000
20
0.200000
40
0.039370
0
POLYLINE
8
0
66
1
70
1
40
0
41
0
0
VERTEX
8
0
10
-0.685000
20
0.238000
0
VERTEX
8
0
10
-0.697000
20
0.250000
0
VERTEX
8
0
10
-0.753000
20
0.250000
0
VERTEX
8
0
10
-0.765000
20
0.238000
0
VERTEX
8
0
10
-0.765000
20
0.162000
0
VERTEX
8
0
10
-0.753000
20
0.150000
0
VERTEX
8
0
10
-0.697000
20
0.150000
0
VERTEX
8
0
10
-0.685000
20
0.162000
0
VERTEX
8
0
10
-0.685000
20
0.238000
0
SEQEND
8
0
0
CIRCLE
8
0
10
-0.725000
20
0.200000
40
0.039370
0
POLYLINE
8
0
66
1
70
1
40
0
41
0
0
VERTEX
8
0
10
-0.885000
20
0.238000
0
VERTEX
8
0
10
-0.897000
20
0.250000
0
VERTEX
8
0
10
-0.953000
20
0.250000
0
VERTEX
8
0
10
-0.965000
20
0.238000
0
VERTEX
8
0
10
-0.965000
20
0.162000
0
VERTEX
8
0
10
-0.953000
20
0.150000
0
VERTEX
8
0
10
-0.897000
20
0.150000
0
VERTEX
8
0
10
-0.885000
20
0.162000
0
VERTEX
8
0
10
-0.885000
20
0.238000
0
SEQEND
8
0
0
CIRCLE
8
0
10
-0.925000
20
0.200000
40
0.039370
0
POLYLINE
8
0
66
1
70
1
40
0
41
0
0
VERTEX
8
0
10
-1.785000
20
0.238000
0
VERTEX
8
0
10
-1.797000
20
0.250000
0
VERTEX
8
0
10
-1.853000
20
0.250000
0
VERTEX
8
0
10
-1.865000
20
0.238000
0
VERTEX
8
0
10
-1.865000
20
0.162000
0
VERTEX
8
0
10
-1.853000
20
0.150000
0
VERTEX
8
0
10
-1.797000
20
0.150000
0
VERTEX
8
0
10
-1.785000
20
0.162000
0
VERTEX
8
0
10
-1.785000
20
0.238000
0
SEQEND
8
0
0
CIRCLE
8
0
10
-1.825000
20
0.200000
40
0.039370
0
POLYLINE
8
0
66
1
70
1
40
0
41
0
0
VERTEX
8
0
10
-1.685000
20
0.838000
0
VERTEX
8
0
10
-1.697000
20
0.850000
0
VERTEX
8
0
10
-1.753000
20
0.850000
0
VERTEX
8
0
10
-1.765000
20
0.838000
0
VERTEX
8
0
10
-1.765000
20
0.762000
0
VERTEX
8
0
10
-1.753000
20
0.750000
0
VERTEX
8
0
10
-1.697000
20
0.750000
0
VERTEX
8
0
10
-1.685000
20
0.762000
0
VERTEX
8
0
10
-1.685000
20
0.838000
0
SEQEND
8
0
0
CIRCLE
8
0
10
-1.725000
20
0.800000
40
0.039370
0
POLYLINE
8
0
66
1
70
1
40
0
41
0
0
VERTEX
8
0
10
-1.485000
20
0.838000
0
VERTEX
8
0
10
-1.497000
20
0.850000
0
VERTEX
8
0
10
-1.553000
20
0.850000
0
VERTEX
8
0
10
-1.565000
20
0.838000
0
VERTEX
8
0
10
-1.565000
20
0.762000
0
VERTEX
8
0
10
-1.553000
20
0.750000
0
VERTEX
8
0
10
-1.497000
20
0.750000
0
VERTEX
8
0
10
-1.485000
20
0.762000
0
VERTEX
8
0
10
-1.485000
20
0.838000
0
SEQEND
8
0
0
CIRCLE
8
0
10
-1.525000
20
0.800000
40
0.039370
0
POLYLINE
8
0
66
1
70
1
40
0
41
0
0
VERTEX
8
0
10
-1.085000
20
0.838000
0
VERTEX
8
0
10
-1.097000
20
0.850000
0
VERTEX
8
0
10
-1.153000
20
0.850000
0
VERTEX
8
0
10
-1.165000
20
0.838000
0
VERTEX
8
0
10
-1.165000
20
0.762000
0
VERTEX
8
0
10
-1.153000
20
0.750000
0
VERTEX
8
0
10
-1.097000
20
0.750000
0
VERTEX
8
0
10
-1.085000
20
0.762000
0
VERTEX
8
0
10
-1.085000
20
0.838000
0
SEQEND
8
0
0
CIRCLE
8
0
10
-1.125000
20
0.800000
40
0.039370
0
POLYLINE
8
0
66
1
70
1
40
0
41
0
0
VERTEX
8
0
10
-0.985000
20
0.838000
0
VERTEX
8
0
10
-0.997000
20
0.850000
0
VERTEX
8
0
10
-1.053000
20
0.850000
0
VERTEX
8
0
10
-1.065000
20
0.838000
0
VERTEX
8
0
10
-1.065000
20
0.762000
0
VERTEX
8
0
10
-1.053000
20
0.750000
0
VERTEX
8
0
10
-0.997000
20
0.750000
0
VERTEX
8
0
10
-0.985000
20
0.762000
0
VERTEX
8
0
10
-0.985000
20
0.838000
0
SEQEND
8
0
0
CIRCLE
8
0
10
-1.025000
20
0.800000
40
0.039370
0
POLYLINE
8
0
66
1
70
1
40
0
41
0
0
VERTEX
8
0
10
-0.685000
20
0.838000
0
VERTEX
8
0
10
-0.697000
20
0.850000
0
VERTEX
8
0
10
-0.753000
20
0.850000
0
VERTEX
8
0
10
-0.765000
20
0.838000
0
VERTEX
8
0
10
-0.765000
20
0.762000
0
VERTEX
8
0
10
-0.753000
20
0.750000
0
VERTEX
8
0
10
-0.697000
20
0.750000
0
VERTEX
8
0
10
-0.685000
20
0.762000
0
VERTEX
8
0
10
-0.685000
20
0.838000
0
SEQEND
8
0
0
CIRCLE
8
0
10
-0.725000
20
0.800000
40
0.039370
0
POLYLINE
8
0
66
1
70
1
40
0
41
0
0
VERTEX
8
0
10
-0.485000
20
0.838000
0
VERTEX
8
0
10
-0.497000
20
0.850000
0
VERTEX
8
0
10
-0.553000
20
0.850000
0
VERTEX
8
0
10
-0.565000
20
0.838000
0
VERTEX
8
0
10
-0.565000
20
0.762000
0
VERTEX
8
0
10
-0.553000
20
0.750000
0
VERTEX
8
0
10
-0.497000
20
0.750000
0
VERTEX
8
0
10
-0.485000
20
0.762000
0
VERTEX
8
0
10
-0.485000
20
0.838000
0
SEQEND
8
0
0
CIRCLE
8
0
10
-0.525000
20
0.800000
40
0.039370
0
POLYLINE
8
0
66
1
70
1
40
0
41
0
0
VERTEX
8
0
10
-0.385000
20
0.838000
0
VERTEX
8
0
10
-0.397000
20
0.850000
0
VERTEX
8
0
10
-0.453000
20
0.850000
0
VERTEX
8
0
10
-0.465000
20
0.838000
0
VERTEX
8
0
10
-0.465000
20
0.762000
0
VERTEX
8
0
10
-0.453000
20
0.750000
0
VERTEX
8
0
10
-0.397000
20
0.750000
0
VERTEX
8
0
10
-0.385000
20
0.762000
0
VERTEX
8
0
10
-0.385000
20
0.838000
0
SEQEND
8
0
0
CIRCLE
8
0
10
-0.425000
20
0.800000
40
0.039370
0
POLYLINE
8
0
66
1
40
0.004000
41
0.004000
0
VERTEX
8
0
10
-2.086614
20
0.068110
0
VERTEX
8
0
10
-0.196850
20
0.068110
0
VERTEX
8
0
10
-0.196850
20
1.571063
0
VERTEX
8
0
10
-2.086614
20
1.571063
0
VERTEX
8
0
10
-2.086614
20
0.068110
0
SEQEND
8
0
0
ENDSEC
0
EOF

