G04 PROTEUS GERBER X2 FILE*
%TF.GenerationSoftware,Labcenter,Proteus,8.15-SP1-Build34318*%
%TF.CreationDate,2023-12-30T15:36:42+00:00*%
%TF.FileFunction,Copper,L1,Bot*%
%TF.FilePolarity,Positive*%
%TF.Part,Single*%
%TF.SameCoordinates,{cd41d306-8311-4b46-bbee-fcf873c3b973}*%
%FSLAX45Y45*%
%MOMM*%
G01*
%TA.AperFunction,Conductor*%
%ADD10C,1.778000*%
%ADD11C,1.016000*%
%ADD12C,0.254000*%
%AMDIL003*
4,1,8,
-1.016000,0.965200,-0.711200,1.270000,0.711200,1.270000,1.016000,0.965200,1.016000,-0.965200,
0.711200,-1.270000,-0.711200,-1.270000,-1.016000,-0.965200,-1.016000,0.965200,
0*%
%TA.AperFunction,ComponentPad*%
%ADD13DIL003*%
%TA.AperFunction,Profile*%
%ADD14C,0.101600*%
%TD.AperFunction*%
%TA.AperFunction,Conductor*%
G36*
X-5862320Y+106680D02*
X-106680Y+106680D01*
X-106680Y+9926320D01*
X-5862320Y+9926320D01*
X-5862320Y+106680D01*
G37*
%TD.AperFunction*%
%LPC*%
G36*
X-3767167Y+6203199D02*
X-3792101Y+6203199D01*
X-3792101Y+6241299D01*
X-3804801Y+6241299D01*
X-3804801Y+6370667D01*
X-3923833Y+6489699D01*
X-5354667Y+6489699D01*
X-5727699Y+6116667D01*
X-5727699Y+3852833D01*
X-5473699Y+3598833D01*
X-5473699Y+614333D01*
X-5354667Y+495301D01*
X-4927833Y+495301D01*
X-4554801Y+868333D01*
X-4554801Y+1008701D01*
X-4542101Y+1008701D01*
X-4542101Y+1491299D01*
X-4554801Y+1491299D01*
X-4554801Y+1884333D01*
X-4392333Y+2046801D01*
X-2715899Y+2046801D01*
X-2715899Y+2044699D01*
X-4148167Y+2044699D01*
X-4267199Y+1925667D01*
X-4267199Y+868333D01*
X-4148167Y+749301D01*
X-3427833Y+749301D01*
X-3308801Y+868333D01*
X-3308801Y+1008701D01*
X-3296101Y+1008701D01*
X-3296101Y+1384301D01*
X-891833Y+1384301D01*
X-518801Y+1757333D01*
X-518801Y+2008701D01*
X-506101Y+2008701D01*
X-506101Y+2491299D01*
X-1066801Y+2491299D01*
X-1066801Y+3703667D01*
X-1185832Y+3822698D01*
X-1862168Y+3822698D01*
X-1981199Y+3703667D01*
X-1981199Y+3543299D01*
X-1993899Y+3543299D01*
X-1993899Y+3060701D01*
X-1727198Y+3060701D01*
X-1727198Y+2997199D01*
X-2330167Y+2997199D01*
X-2449199Y+2878167D01*
X-2449199Y+2491299D01*
X-2715899Y+2491299D01*
X-2715899Y+2453199D01*
X-4560667Y+2453199D01*
X-4961199Y+2052667D01*
X-4961199Y+1491299D01*
X-5067301Y+1491299D01*
X-5067301Y+3670301D01*
X-2455833Y+3670301D01*
X-2082801Y+4043333D01*
X-2082801Y+4584701D01*
X-2070101Y+4584701D01*
X-2070101Y+5067299D01*
X-2501899Y+5067299D01*
X-2501899Y+4584701D01*
X-2489199Y+4584701D01*
X-2489199Y+4211667D01*
X-2590802Y+4110064D01*
X-2590802Y+5194301D01*
X-2177833Y+5194301D01*
X-1804801Y+5567333D01*
X-1804801Y+5758701D01*
X-1030101Y+5758701D01*
X-1030101Y+6241299D01*
X-1042801Y+6241299D01*
X-1042801Y+6600667D01*
X-1439833Y+6997699D01*
X-2972667Y+6997699D01*
X-3767167Y+6203199D01*
G37*
G36*
X-3009899Y+3060701D02*
X-2070101Y+3060701D01*
X-2070101Y+3543299D01*
X-3009899Y+3543299D01*
X-3009899Y+3060701D01*
G37*
G36*
X-1993899Y+4584701D02*
X-1308101Y+4584701D01*
X-1308101Y+5067299D01*
X-1993899Y+5067299D01*
X-1993899Y+4584701D01*
G37*
%LPD*%
%TA.AperFunction,Conductor*%
G36*
X-3539317Y+5856317D02*
X-3598833Y+5796801D01*
X-3792101Y+5796801D01*
X-3792101Y+5758701D01*
X-4312801Y+5758701D01*
X-4312801Y+5440333D01*
X-4368801Y+5384333D01*
X-4368801Y+5346699D01*
X-3767167Y+5346699D01*
X-3513167Y+5600699D01*
X-2346167Y+5600699D01*
X-2211199Y+5735667D01*
X-2211199Y+5758701D01*
X-2223899Y+5758701D01*
X-2223899Y+6241299D01*
X-1449199Y+6241299D01*
X-1449199Y+6432333D01*
X-1608167Y+6591301D01*
X-2804333Y+6591301D01*
X-3539317Y+5856317D01*
G37*
%TD.AperFunction*%
%TA.AperFunction,Conductor*%
G36*
X-1026801Y+1841500D02*
X-1026801Y+1824065D01*
X-925199Y+1925667D01*
X-925199Y+2008701D01*
X-1026801Y+2008701D01*
X-1026801Y+1841500D01*
G37*
%TD.AperFunction*%
%TA.AperFunction,Conductor*%
G36*
X-5067301Y+930565D02*
X-4989165Y+1008701D01*
X-5067301Y+1008701D01*
X-5067301Y+930565D01*
G37*
%TD.AperFunction*%
D10*
X-2008000Y+6000000D02*
X-2008000Y+5651500D01*
X-2262000Y+5397500D01*
X-3429000Y+5397500D01*
X-3683000Y+5143500D01*
X-4318000Y+5143500D01*
X-4318000Y+4826000D01*
X-2286000Y+3302000D02*
X-2286000Y+3619500D01*
X-4699000Y+3619500D01*
X-5012000Y+3306500D01*
X-5012000Y+1250000D01*
X-1778000Y+4318000D02*
X-1270000Y+4318000D01*
X-976000Y+4024000D01*
X-976000Y+2250000D01*
X-1500000Y+6000000D02*
X-1500000Y+5421500D01*
X-1778000Y+5143500D01*
X-1778000Y+4826000D01*
X-2286000Y+3302000D02*
X-2032000Y+3556000D01*
X-2032000Y+4064000D01*
X-1778000Y+4318000D01*
X-1500000Y+6000000D02*
X-1500000Y+6286500D01*
X-2603500Y+6286500D01*
X-3238500Y+5651500D01*
X-4262000Y+5651500D01*
X-4262000Y+6000000D01*
X-1778000Y+4826000D02*
X-1778000Y+4318000D01*
X-1524000Y+3302000D02*
X-1524000Y+2794000D01*
X-2246000Y+2794000D01*
X-2246000Y+2250000D01*
X-4516000Y+6000000D02*
X-4516000Y+5524500D01*
X-4572000Y+5468500D01*
X-4572000Y+4635500D01*
X-4318000Y+4381500D01*
X-3048000Y+4381500D01*
X-3048000Y+4826000D01*
X-4770000Y+6000000D02*
X-5080000Y+6000000D01*
X-5080000Y+4381500D01*
X-4826000Y+4127500D01*
X-2794000Y+4127500D01*
X-2794000Y+5143500D01*
X-3302000Y+5143500D01*
X-3302000Y+4826000D01*
X-1230000Y+2250000D02*
X-1230000Y+1841500D01*
X-4064000Y+1841500D01*
X-4064000Y+952500D01*
X-3512000Y+952500D01*
X-3512000Y+1250000D01*
X-722000Y+2250000D02*
X-722000Y+1841500D01*
X-976000Y+1587500D01*
X-3766000Y+1587500D01*
X-3766000Y+1250000D01*
X-1778000Y+3302000D02*
X-1778000Y+3619500D01*
X-1270000Y+3619500D01*
X-1270000Y+2540000D01*
X-1992000Y+2540000D01*
X-1992000Y+2250000D01*
X-5270500Y+3683000D02*
X-5270500Y+3873500D01*
X-2540000Y+3873500D01*
X-2286000Y+4127500D01*
X-2286000Y+4826000D01*
X-5270500Y+3683000D02*
X-5524500Y+3937000D01*
X-5524500Y+6032500D01*
X-5270500Y+6286500D01*
X-4318000Y+6286500D01*
X-4758000Y+1250000D02*
X-4758000Y+1968500D01*
X-4476500Y+2250000D01*
X-2500000Y+2250000D01*
X-4758000Y+1250000D02*
X-4758000Y+952500D01*
X-5012000Y+698500D01*
X-5270500Y+698500D01*
X-5270500Y+3683000D01*
X-4008000Y+6000000D02*
X-3683000Y+6000000D01*
X-2888500Y+6794500D01*
X-1524000Y+6794500D01*
X-1246000Y+6516500D01*
X-1246000Y+6000000D01*
X-4008000Y+6000000D02*
X-4008000Y+6286500D01*
X-4318000Y+6286500D01*
D11*
X-5862320Y+106680D02*
X-106680Y+106680D01*
X-106680Y+9926320D01*
X-5862320Y+9926320D01*
X-5862320Y+106680D01*
X-3767167Y+6203199D02*
X-3792101Y+6203199D01*
X-3792101Y+6241299D01*
X-3804801Y+6241299D01*
X-3804801Y+6370667D01*
X-3923833Y+6489699D01*
X-5354667Y+6489699D01*
X-5727699Y+6116667D01*
X-5727699Y+3852833D01*
X-5473699Y+3598833D01*
X-5473699Y+614333D01*
X-5354667Y+495301D01*
X-4927833Y+495301D01*
X-4554801Y+868333D01*
X-4554801Y+1008701D01*
X-4542101Y+1008701D01*
X-4542101Y+1491299D01*
X-4554801Y+1491299D01*
X-4554801Y+1884333D01*
X-4392333Y+2046801D01*
X-2715899Y+2046801D01*
X-2715899Y+2044699D01*
X-4148167Y+2044699D01*
X-4267199Y+1925667D01*
X-4267199Y+868333D01*
X-4148167Y+749301D01*
X-3427833Y+749301D01*
X-3308801Y+868333D01*
X-3308801Y+1008701D01*
X-3296101Y+1008701D01*
X-3296101Y+1384301D01*
X-891833Y+1384301D01*
X-518801Y+1757333D01*
X-518801Y+2008701D01*
X-506101Y+2008701D01*
X-506101Y+2491299D01*
X-1066801Y+2491299D01*
X-1066801Y+3703667D01*
X-1185832Y+3822698D01*
X-1862168Y+3822698D01*
X-1981199Y+3703667D01*
X-1981199Y+3543299D01*
X-1993899Y+3543299D01*
X-1993899Y+3060701D01*
X-1727198Y+3060701D01*
X-1727198Y+2997199D01*
X-2330167Y+2997199D01*
X-2449199Y+2878167D01*
X-2449199Y+2491299D01*
X-2715899Y+2491299D01*
X-2715899Y+2453199D01*
X-4560667Y+2453199D01*
X-4961199Y+2052667D01*
X-4961199Y+1491299D01*
X-5067301Y+1491299D01*
X-5067301Y+3670301D01*
X-2455833Y+3670301D01*
X-2082801Y+4043333D01*
X-2082801Y+4584701D01*
X-2070101Y+4584701D01*
X-2070101Y+5067299D01*
X-2501899Y+5067299D01*
X-2501899Y+4584701D01*
X-2489199Y+4584701D01*
X-2489199Y+4211667D01*
X-2590802Y+4110064D01*
X-2590802Y+5194301D01*
X-2177833Y+5194301D01*
X-1804801Y+5567333D01*
X-1804801Y+5758701D01*
X-1030101Y+5758701D01*
X-1030101Y+6241299D01*
X-1042801Y+6241299D01*
X-1042801Y+6600667D01*
X-1439833Y+6997699D01*
X-2972667Y+6997699D01*
X-3767167Y+6203199D01*
X-3009899Y+3060701D02*
X-2070101Y+3060701D01*
X-2070101Y+3543299D01*
X-3009899Y+3543299D01*
X-3009899Y+3060701D01*
X-1993899Y+4584701D02*
X-1308101Y+4584701D01*
X-1308101Y+5067299D01*
X-1993899Y+5067299D01*
X-1993899Y+4584701D01*
X-3539317Y+5856317D02*
X-3598833Y+5796801D01*
X-3792101Y+5796801D01*
X-3792101Y+5758701D01*
X-4312801Y+5758701D01*
X-4312801Y+5440333D01*
X-4368801Y+5384333D01*
X-4368801Y+5346699D01*
X-3767167Y+5346699D01*
X-3513167Y+5600699D01*
X-2346167Y+5600699D01*
X-2211199Y+5735667D01*
X-2211199Y+5758701D01*
X-2223899Y+5758701D01*
X-2223899Y+6241299D01*
X-1449199Y+6241299D01*
X-1449199Y+6432333D01*
X-1608167Y+6591301D01*
X-2804333Y+6591301D01*
X-3539317Y+5856317D01*
X-1026801Y+1841500D02*
X-1026801Y+1824065D01*
X-925199Y+1925667D01*
X-925199Y+2008701D01*
X-1026801Y+2008701D01*
X-1026801Y+1841500D01*
X-5067301Y+930565D02*
X-4989165Y+1008701D01*
X-5067301Y+1008701D01*
X-5067301Y+930565D01*
D12*
X-5012000Y+1059501D02*
X-5012000Y+1250000D01*
X-5012000Y+1440499D02*
X-5012000Y+1250000D01*
X-1500000Y+5809501D02*
X-1500000Y+6000000D01*
X-1500000Y+6190499D02*
X-1500000Y+6000000D01*
X-4262000Y+5809501D02*
X-4262000Y+6000000D01*
X-976000Y+2440499D02*
X-976000Y+2250000D01*
X-976000Y+2059501D02*
X-976000Y+2250000D01*
X-2286000Y+3111501D02*
X-2286000Y+3302000D01*
X-2286000Y+3492499D02*
X-2286000Y+3302000D01*
X-2120901Y+3302000D02*
X-2286000Y+3302000D01*
X-1778000Y+4635501D02*
X-1778000Y+4826000D01*
X-1943099Y+4826000D02*
X-1778000Y+4826000D01*
X-1778000Y+5016499D02*
X-1778000Y+4826000D01*
D13*
X-4758000Y+1250000D03*
X-5012000Y+1250000D03*
X-1246000Y+6000000D03*
X-1500000Y+6000000D03*
X-1754000Y+6000000D03*
X-2008000Y+6000000D03*
X-4008000Y+6000000D03*
X-4262000Y+6000000D03*
X-4516000Y+6000000D03*
X-4770000Y+6000000D03*
X-3512000Y+1250000D03*
X-3766000Y+1250000D03*
X-2500000Y+2250000D03*
X-2246000Y+2250000D03*
X-1992000Y+2250000D03*
X-1738000Y+2250000D03*
X-1484000Y+2250000D03*
X-1230000Y+2250000D03*
X-976000Y+2250000D03*
X-722000Y+2250000D03*
X-1524000Y+3302000D03*
X-1778000Y+3302000D03*
X-2286000Y+3302000D03*
X-2540000Y+3302000D03*
X-2794000Y+3302000D03*
X-4826000Y+4826000D03*
X-4318000Y+4826000D03*
X-4064000Y+4826000D03*
X-3302000Y+4826000D03*
X-3048000Y+4826000D03*
X-2286000Y+4826000D03*
X-1778000Y+4826000D03*
X-1524000Y+4826000D03*
D14*
X-5969000Y+0D02*
X+0Y+0D01*
X+0Y+10033000D01*
X-5969000Y+10033000D01*
X-5969000Y+0D01*
M02*
